<?xml version="1.0" encoding="utf-8"?>
<!-- Generator: Adobe Illustrator 23.1.1, SVG Export Plug-In . SVG Version: 6.00 Build 0)  -->
<svg version="1.1" id="Ebene_1" xmlns="http://www.w3.org/2000/svg" xmlns:xlink="http://www.w3.org/1999/xlink" x="0px" y="0px"
	 viewBox="0 0 280 80" style="enable-background:new 0 0 280 80;" xml:space="preserve">
<style type="text/css">
	.st0{fill:#494947;}
	.st1{fill:#E20713;}
	.st2{fill:#FBF9F9;}
	.st3{fill:#E10713;}
	.st4{fill:#E10813;}
	.st5{fill:#E20716;}
	.st6{clip-path:url(#SVGID_2_);}
	.st7{clip-path:url(#SVGID_4_);fill:#DC0814;}
	.st8{clip-path:url(#SVGID_4_);fill:#004A93;}
	.st9{clip-path:url(#SVGID_6_);}
	.st10{clip-path:url(#SVGID_8_);fill:#A31834;}
	.st11{clip-path:url(#SVGID_8_);fill:#111424;}
	.st12{clip-path:url(#SVGID_10_);}
	.st13{clip-path:url(#SVGID_12_);fill-rule:evenodd;clip-rule:evenodd;fill:#1D71B8;}
	.st14{clip-path:url(#SVGID_12_);fill:#575756;}
	.st15{fill:#FFFFFF;}
	.st16{fill:#E30613;}
	.st17{fill:#1D1D1B;}
	.st18{fill:#9D9D9C;}
</style>
<path class="st5" d="M275.7,15.8c-0.5,1.2-0.9,2.4-1.3,3.6c-1.1,3-2.2,6-3.3,9c-0.2,0.5-0.4,0.6-1,0.6c-4.1,0-8.1,0-12.2,0
	c-0.5,0-0.8,0.2-0.9,0.7c-0.8,2.2-1.6,4.4-2.4,6.7c4.5,0,9,0,13.6,0c-0.6,1.8-1.2,3.5-1.9,5.3c-0.6,1.8-0.7,1.8-2.6,1.8
	c-3.7,0-7.3,0-11,0c-0.5,0-0.8,0.1-0.9,0.6c-0.6,2-1.3,3.9-2,5.8c-0.2,0.6-0.1,0.7,0.5,0.7c4,0,8,0,12,0c0.7,0,0.8,0.1,0.5,0.8
	c-1.5,4-2.9,7.9-4.3,11.9c-0.2,0.4-0.4,0.6-0.8,0.6c-8.9,0-17.7,0-26.6,0c-1,0-0.5-0.5-0.4-0.8c4-10.8,8-21.6,11.9-32.5
	c1.8-4.8,3.5-9.5,5.3-14.3c0.1-0.4,0.3-0.6,0.8-0.6c8.9,0,17.8,0,26.8,0C275.4,15.7,275.5,15.8,275.7,15.8z"/>
<path class="st5" d="M212.4,28.8c-3.9,0-7.8,0-11.8,0c0.6-1.5,1.1-3,1.6-4.4c1-2.7,2-5.3,3-8c0.2-0.5,0.4-0.6,0.9-0.6
	c12.5,0,24.9,0,37.4,0c0.6,0,0.8,0.1,0.5,0.7c-1.5,3.9-2.9,7.9-4.4,11.8c-0.2,0.4-0.4,0.5-0.8,0.5c-3.5,0-6.9,0-10.4,0
	c-0.6,0-0.8,0.2-1.1,0.7c-4,11.2-8.1,22.3-12.2,33.5c-0.3,0.7-0.5,1-1.4,1c-4.4-0.1-8.9,0-13.3,0c-0.9,0-0.9,0-0.6-0.8
	c4.1-11.2,8.2-22.5,12.3-33.7C212.3,29.2,212.3,29.1,212.4,28.8z"/>
<path class="st5" d="M136.5,63.9c4.3-11.7,8.5-23.4,12.8-35.1c-4,0-7.9,0-11.8,0c0.6-1.6,1.1-3.1,1.7-4.6c1-2.6,2-5.3,2.9-7.9
	c0.1-0.3,0.2-0.6,0.7-0.6c12.7,0,25.4,0,38.1,0c0.1,0,0.1,0,0.2,0.1c-0.5,1.5-1.1,2.9-1.6,4.4c-1,2.6-2,5.3-2.9,7.9
	c-0.2,0.5-0.4,0.7-1,0.7c-3.4,0-6.9,0-10.3,0c-0.6,0-0.8,0.2-1,0.7c-4.1,11.2-8.1,22.4-12.2,33.6c-0.2,0.6-0.5,0.8-1.2,0.8
	c-4.5,0-9,0-13.5,0C137.2,63.9,136.9,63.9,136.5,63.9z"/>
<path class="st5" d="M201.2,15.8c-0.5,1.3-0.9,2.6-1.4,3.9c-5.3,14.4-10.6,28.9-15.9,43.3c-0.2,0.7-0.5,0.9-1.3,0.9
	c-4.6,0-9.2,0-13.8,0c-0.9,0-0.9,0-0.6-0.8c5.7-15.6,11.3-31.1,17-46.7c0.1-0.4,0.2-0.7,0.7-0.7c5,0,10,0,15,0
	C201,15.7,201.1,15.8,201.2,15.8z"/>
<path class="st5" d="M137.1,19.1c-2.3-2.1-5-3.5-8-4.3c-1.1-0.3-2.3-0.5-3.5-0.8c-1.7,0-3.5,0-5.2,0c-1.1,0.4-2.2,0.4-3.3,0.7
	c-7.8,2.1-13.5,6.8-17.3,13.8c-3.7,6.8-4.9,14.2-3.4,21.8c1.6,8.2,8,14.1,16.2,15.4c0.4,0.1,0.8,0,1.1,0.3c1.8,0,3.7,0,5.5,0
	c1.1-0.4,2.2-0.4,3.2-0.6c0.5-0.1,0.8-0.4,1-0.9c1.8-4.9,3.6-9.8,5.4-14.8c0.2-0.5,0.4-1.1,0.6-1.6c-0.2,0-0.3,0-0.3,0
	c-2.6,1-5.3,1.3-8.1,0.9c-2.5-0.3-4.4-1.4-5.3-3.9c-0.6-1.7-0.4-3.5,0-5.2c1.8-8.3,9.9-8.8,14.1-5.9c0.6,0.4,1.1,1,1.7,1.5
	c0.1-0.1,0.1-0.1,0.1-0.2c1.9-5.1,3.8-10.2,5.7-15.3C137.6,19.6,137.4,19.4,137.1,19.1z M126.8,23.1c-0.3,0.7-0.3,1.5-0.8,2
	c-0.5,0.4-1.3-0.1-2-0.1c-3.9-0.1-7.1,1.6-9.8,4.2c-3.6,3.5-5.5,7.9-6.1,12.8c-0.3,2.2-0.2,4.3,0.4,6.4c1.3,4.2,4,6.8,8.6,7.3
	c-0.3,0.8-0.6,1.7-1,2.6c-0.2,0.6-0.7,0.3-1,0.2c-3.6-0.7-6.4-2.6-8.3-5.8c-1.6-2.9-2.1-6-1.9-9.2c0.2-3.9,1.2-7.6,3.1-11.1
	c2.5-4.6,6.1-8.1,11.1-9.8c2.3-0.8,4.7-0.9,7.1-0.4C126.8,22.3,127.1,22.4,126.8,23.1z"/>
<path class="st5" d="M43.6,48c-4.2,0-8.4,0-12.6,0c-1,0-1,0-0.7-0.9c2.9-8.1,5.9-16.3,8.8-24.4c0.8-2.3,1.6-4.5,2.4-6.8
	c-0.1,0-0.2-0.1-0.3-0.1c-6.7,0-13.3,0-20,0c-0.5,0-0.6,0.3-0.7,0.6C15.7,29.7,10.9,43.1,6,56.5c-0.9,2.4-1.7,4.8-2.7,7.2
	c0,0.1,0,0.2,0,0.3c0.3,0,0.5,0,0.8,0c11.3,0,22.5,0,33.8,0c0.6,0,0.9-0.2,1.1-0.7c1.2-3.5,2.5-6.9,3.7-10.4
	c0.6-1.6,1.1-3.2,1.7-4.8C44,48,43.8,48,43.6,48z M34.9,55.1c-0.6,2.3-0.6,2.3-3,2.3c-5.6,0-11.3,0-16.9,0c-0.7,0-0.8-0.1-0.5-0.8
	C18.3,46,22.1,35.4,26,24.9c0.2-0.6,0.4-0.8,1.1-0.7c0.7,0.1,1.4,0,2.1,0c0.6,0,0.7,0.1,0.4,0.6c-1.2,3.3-2.4,6.6-3.7,9.9
	c-2.3,6.2-4.6,12.5-6.9,18.7c-0.1,0.2-0.2,0.5-0.3,0.8c5.2,0,10.3,0,15.5,0C35.1,54.2,35.1,54.2,34.9,55.1z"/>
<path class="st5" d="M94,30.7c-1.6-9.1-8.4-15.5-17.7-16.6c-0.1,0-0.2,0-0.3-0.1c-1.6,0-3.2,0-4.9,0c-0.1,0.2-0.2,0.1-0.3,0.2
	c-6.1,0.7-11.3,3.3-15.5,7.7c-7.6,7.9-10.3,17.5-8.3,28.2c1.5,8.2,6.7,13.4,14.9,15.4c0.8,0.2,1.7,0.2,2.5,0.5c1.8,0,3.7,0,5.5,0
	c1.1-0.4,2.3-0.4,3.4-0.7c8.4-2.2,14.3-7.3,17.9-15C94.2,44.1,95.2,37.5,94,30.7z M75.8,56.8c-3.7,2.2-7.7,2.9-11.9,1.4
	c-4.5-1.6-7.2-4.8-8.7-9.3c-1.8-5.5-1.1-10.9,1.2-16.1c2.3-5,5.7-8.9,10.9-11.1c4.1-1.8,8.3-2.1,12.4-0.1c3.6,1.8,5.6,5,6.9,8.7
	c0.7,2,0.9,4,0.9,7C87,45.1,83.5,52.2,75.8,56.8z"/>
<path class="st5" d="M276.5,56.3c-0.9-3.2-3.5-5.1-6.8-5c-3.3,0.2-6,2.7-6.2,5.8c-0.3,3.5,1.9,6.4,5.2,7c3.5,0.7,6.7-1.1,7.7-4.3
	c0.1-0.2,0.1-0.5,0.3-0.7c0-0.9,0-1.8,0-2.7C276.5,56.5,276.5,56.4,276.5,56.3z M270.1,63.2c-3.1-0.1-5.3-2.5-5.3-5.5
	c0.1-3,2.5-5.3,5.4-5.3c3,0.1,5.2,2.5,5.1,5.5C275.2,61,272.9,63.3,270.1,63.2z"/>
<path class="st5" d="M83.5,30.7c-2.1-5.7-7.2-8.6-12.9-7.1c-3.4,0.9-6.2,2.9-8.3,5.6c-4.1,5.1-5.9,11-4.5,17.5
	c0.8,3.9,2.9,7,6.7,8.5c3.6,1.4,7,0.7,10.2-1.2c6.5-4,9.3-10.2,9.8-17.6C84.4,34.4,84.1,32.5,83.5,30.7z M71.4,46.8
	c-0.9,0.9-2,1.7-3.4,1.2c-1.4-0.5-1.8-1.7-2-3c-0.6-4.6,0.8-8.7,3.9-12.1c0.1-0.1,0.3-0.2,0.4-0.4c2.1-1.7,4-1.1,4.8,1.5
	c0.2,0.8,0.3,1.7,0.3,2.6C75.3,40.5,74.2,44,71.4,46.8z"/>
<path class="st5" d="M271.5,58.8c-0.2-0.2-0.3-0.4,0.2-0.5c1.3-0.4,1.7-1.2,1.5-2.4c-0.2-1.1-0.9-1.7-2.2-1.8c-1,0-2,0-3.1,0
	c-0.4,0-0.5,0.1-0.5,0.5c0,2.2,0,4.5,0,6.7c0,0.5,0.3,0.5,0.6,0.5c0.4,0,0.7,0.1,0.7-0.5c-0.1-0.6,0-1.3,0-2c0-0.8,0.1-0.9,0.9-0.8
	c0.3,0,0.3,0.2,0.4,0.4c0.4,0.7,0.9,1.3,1.2,2c0.4,1,1.1,1.1,2,0.8C272.7,60.7,272.1,59.7,271.5,58.8z M271.1,57.2
	c-0.7,0.2-1.5,0.1-2.2,0.1c-0.2,0-0.3-0.1-0.3-0.3c0-0.5,0-1,0-1.6c0-0.3,0.2-0.3,0.4-0.3c0.3,0,0.6,0,0.9,0c0,0,0,0,0,0
	c0.4,0,0.7,0,1.1,0.1c0.5,0.1,0.8,0.4,0.8,1C271.9,56.7,271.6,57.1,271.1,57.2z"/>
</svg>
