<?xml version="1.0" encoding="utf-8"?>
<!-- Generator: Adobe Illustrator 23.1.1, SVG Export Plug-In . SVG Version: 6.00 Build 0)  -->
<svg version="1.1" id="Ebene_1" xmlns="http://www.w3.org/2000/svg" xmlns:xlink="http://www.w3.org/1999/xlink" x="0px" y="0px"
	 viewBox="0 0 280 80" style="enable-background:new 0 0 280 80;" xml:space="preserve">
<style type="text/css">
	.st0{fill:#494947;}
	.st1{fill:#E20713;}
	.st2{fill:#FBF9F9;}
	.st3{fill:#E10713;}
	.st4{fill:#E10813;}
	.st5{fill:#E20716;}
	.st6{clip-path:url(#SVGID_2_);}
	.st7{clip-path:url(#SVGID_4_);fill:#DC0814;}
	.st8{clip-path:url(#SVGID_4_);fill:#004A93;}
	.st9{clip-path:url(#SVGID_6_);}
	.st10{clip-path:url(#SVGID_8_);fill:#A31834;}
	.st11{clip-path:url(#SVGID_8_);fill:#111424;}
	.st12{clip-path:url(#SVGID_10_);}
	.st13{clip-path:url(#SVGID_12_);fill-rule:evenodd;clip-rule:evenodd;fill:#1D71B8;}
	.st14{clip-path:url(#SVGID_12_);fill:#575756;}
	.st15{fill:#FFFFFF;}
	.st16{fill:#E30613;}
	.st17{fill:#1D1D1B;}
	.st18{fill:#9D9D9C;}
</style>
<path class="st0" d="M4.1,59.6c0.5-0.9,0.8-1.9,1.1-2.8c3.2-8.5,6.3-17,9.5-25.5c0.3-0.8,0.3-0.8-0.5-0.8c-2.3,0-4.6,0-6.9,0
	c-0.5,0-0.7-0.1-0.5-0.7c1.1-3.1,2.2-6.1,3.3-9.2c0.1-0.3,0.3-0.5,0.6-0.5c9.3,0,18.7,0,28,0c0.1,0,0.1,0,0.3,0.1
	c-0.8,2.2-1.6,4.4-2.4,6.5c-0.4,1-0.8,2.1-1.1,3.1c-0.2,0.5-0.4,0.6-0.9,0.6c-2.3,0-4.5,0-6.8,0c-0.6,0-0.8,0.2-1,0.7
	c-3.5,9.4-7,18.7-10.4,28.1c-0.2,0.5-0.4,0.8-1,0.7c-3.8,0-7.5,0-11.3,0C4.1,59.8,4.1,59.7,4.1,59.6z"/>
<path class="st0" d="M45.1,50.3c4.2,0,8.3,0,12.4,0c-0.8,2.2-1.6,4.4-2.4,6.5c-0.3,0.9-0.7,1.7-1,2.6c-0.1,0.4-0.4,0.5-0.8,0.5
	c-7.8,0-15.6,0-23.4,0c-0.8,0-0.5-0.3-0.4-0.7c3.3-8.9,6.5-17.9,9.8-26.8c1.4-3.9,2.8-7.8,4.3-11.7c0.1-0.4,0.2-0.6,0.8-0.6
	c7.9,0,15.7,0,23.6,0c0.1,0,0.3,0,0.5,0c-1,2.8-2,5.5-3,8.2c-0.5,1.4-0.5,1.4-2,1.4c-3.5,0-6.9,0-10.4,0c-0.3,0-0.6,0-0.8,0.4
	c-0.7,2.1-1.5,4.2-2.3,6.3c0.3,0.2,0.5,0.1,0.8,0.1c3.4,0,6.7,0,10.1,0c0.6,0,0.8,0.1,0.5,0.7c-0.7,1.8-1.4,3.7-2,5.5
	c-0.2,0.5-0.4,0.6-0.9,0.6c-3.4,0-6.8,0-10.1,0c-0.5,0-0.8,0.1-1,0.7c-0.7,1.9-1.4,3.7-2.1,5.6C45.3,49.8,45.2,50,45.1,50.3z"/>
<path class="st1" d="M224.2,29.5c-0.7-4.4-3.1-7.6-7.3-9.4c-1.6-0.7-3.3-0.9-5-1.1c-1.8,0-3.6,0-5.4,0c-0.9,0.2-1.8,0.1-2.7,0.3
	c-4.6,1-8.8,2.9-12.6,5.7c-0.7,0.6-1.4,1.1-2.1,1.7c-0.1,0-0.1,0.1-0.2,0.2c-1.3,1.1-2.3,2.4-3.4,3.6c-4.3,5.5-6.6,11.7-5.9,18.8
	c0.3,2.8,1.2,5.4,3,7.6c0.4,0.5,0.9,0.9,1.4,1.3c0.6,0.5,1.3,1,2,1.4c1.8,0.9,3.7,1.4,5.7,1.6c1.9,0,3.8,0,5.7,0
	c1.1-0.2,2.1-0.2,3.2-0.4c4.2-0.9,8-2.7,11.5-5.2c1.4-1.1,2.7-2.1,3.9-3.4c2.4-2.4,4.4-5.1,5.9-8.2C224.1,39.2,225,34.5,224.2,29.5z
	 M209.9,41c-0.2,0.2-0.3,0.4-0.4,0.7c-0.1,0.1-0.1,0.2-0.2,0.4c-0.4,0.6-0.9,1.1-1.1,1.8c-1.6,2.4-3.6,4.3-6.3,5.5
	c-1.5,0.6-3,0.9-4.6,0.9c-3.1-0.2-4.6-1.8-4.8-4.8c-0.2-4.5,1.6-8.2,4.6-11.4c1.9-2,4.1-3.4,6.8-3.9c1.2-0.2,2.3-0.2,3.5,0
	c2.1,0.4,3.3,1.5,3.6,3.8C211.4,36.3,211,38.7,209.9,41z"/>
<path class="st2" d="M208.3,43.9c0,0-0.1-0.1-0.1-0.1c0.3-0.6,0.4-1.4,1.2-1.7C209.1,42.8,208.8,43.4,208.3,43.9z"/>
<path class="st2" d="M209.6,41.7c-0.1-0.4,0-0.6,0.4-0.7C209.9,41.3,209.8,41.6,209.6,41.7z"/>
<path class="st0" d="M146.7,30c-0.6-4.8-3.1-8.3-7.8-10c-1.5-0.6-3-0.7-4.5-0.9c-1.8,0-3.6,0-5.4,0c-0.7,0.3-1.4,0.3-2.1,0.4
	c-6.7,1.2-12.5,4.4-17.1,9.3c-5.3,5.6-8.1,12.2-7.6,20.1c0.4,6.2,4.1,10.5,10.2,11.7c0.6,0.1,1.3,0.1,1.9,0.4c1.9,0,3.7,0,5.6,0
	c2.6-0.2,5-0.7,7.4-1.7c7.8-3.1,13.7-8.2,17.3-15.9C146.6,39.1,147.3,34.6,146.7,30z M129.5,45.6c-1.9,2.2-4.1,3.8-7,4.4
	c-1.3,0.3-2.6,0.3-3.8,0.1c-2-0.4-3.3-1.8-3.5-4.1c-0.1-0.6-0.1-1.2-0.1-1.9c0.1-6.3,5.4-12.9,11.3-14.1c1.2-0.3,2.4-0.2,3.6,0
	c2.4,0.4,3.5,2,3.6,4.8C133.8,39,132.2,42.5,129.5,45.6z"/>
<path class="st1" d="M254.8,43.2c0.7-1.8,1.3-3.6,2-5.4c2-5.7,4.1-11.3,6.1-17c0.2-0.5,0.4-0.7,1-0.7c3.6,0,7.3,0,11,0
	c-0.3,0.9-0.6,1.8-0.9,2.6c-4.5,12.2-9,24.3-13.5,36.5c-0.2,0.6-0.4,0.8-1.1,0.8c-4.3,0-8.7,0-13,0c-0.5,0-0.7-0.1-0.8-0.7
	c-1.3-7.3-2.7-14.6-4.1-22c-0.3,0.2-0.3,0.5-0.4,0.7c-2.6,7.1-5.2,14.2-7.8,21.2c-0.1,0.3-0.1,0.7-0.6,0.7c-3.8,0-7.6,0-11.5,0
	c0.5-1.3,1-2.6,1.4-3.9c4.3-11.7,8.6-23.5,12.9-35.2c0.2-0.5,0.4-0.8,1-0.7c4.4,0,8.7,0,13.1,0c0.7,0,0.8,0.3,0.9,0.9
	c1.3,7.4,2.7,14.8,4,22.3C254.7,43.2,254.8,43.2,254.8,43.2z"/>
<path class="st2" d="M214.4,54.5c-0.1-0.2-0.2-0.3,0-0.5c0,0,0.2,0,0.2,0c0.3,0.2,0.3,0.5,0.3,0.8C214.5,54.9,214.6,54.5,214.4,54.5
	C214.4,54.5,214.4,54.5,214.4,54.5z"/>
<path class="st0" d="M155.3,60.8c-4.6-0.2-8.9-1.2-12.9-3.6c-0.6-0.4-0.7-0.6-0.2-1.2c2.2-2.7,4.3-5.5,6.4-8.3
	c0.3-0.5,0.5-0.4,0.9,0c2.7,2.8,6,4.2,10,3.5c1-0.2,1.9-0.6,2.5-1.4c1.3-1.5,1-3.6-0.7-4.6c-0.9-0.5-1.8-0.9-2.7-1.2
	c-1-0.4-2-0.8-3-1.3c-3.1-1.6-4.6-4.3-4.7-7.8c-0.1-6.4,3-10.8,8.7-13.3c7.2-3.2,14.4-3,21.6,0.2c1.7,0.8,1.6,0.8,0.5,2.3
	c-1.8,2.3-3.6,4.7-5.4,7.1c-0.3,0.4-0.5,0.5-1,0.1c-2.4-1.9-5.1-2.8-8.1-2.1c-1.3,0.3-2.3,1-2.7,2.4c-0.3,1.1,0,2,0.9,2.7
	c0.8,0.6,1.8,1,2.8,1.4c1.5,0.6,3,1.1,4.3,2c2.3,1.5,3.5,3.7,3.6,6.4c0.4,6.3-2.6,10.8-7.8,13.9C164.5,59.9,160.1,60.9,155.3,60.8z"
	/>
<path class="st3" d="M275.8,54.1c-0.6-2.2-2.1-3.5-4.3-3.9c-2.2-0.3-4.1,0.3-5.4,2.1c-1.6,2.2-1.3,5.4,0.8,7.1
	c2.1,1.8,5.6,1.7,7.6-0.2c0.8-0.8,1.2-1.7,1.5-2.7c0-0.7,0-1.4,0-2.2C275.9,54.2,275.8,54.2,275.8,54.1z M270.4,59.6
	c-2.2,0-4-2-3.9-4.2c0.1-2.3,1.9-4.1,4.1-4c2.2,0.1,3.9,1.9,3.9,4.2C274.4,57.8,272.6,59.6,270.4,59.6z"/>
<path class="st0" d="M100.1,23c-2.1-2-4.7-2.8-7.5-2.8c-5.7-0.1-11.4,0-17.1-0.1c-0.7,0-1,0.2-1.2,0.8c-4,11-8,22-12.1,33.1
	c-0.7,2-1.4,3.9-2.1,5.9c0.1,0,0.2,0.1,0.3,0.1c3.7,0,7.4,0,11.1,0c0.5,0,0.6-0.2,0.7-0.6c0.8-2.2,1.6-4.3,2.4-6.5
	c0.9-2.4,1.8-4.8,2.7-7.3c0.1,0.4,0.2,0.6,0.2,0.8c1.1,4.3,2.1,8.7,3.2,13c0.1,0.3,0,0.7,0.6,0.7c4.5,0,9.1,0,13.8,0
	c-0.2-0.4-0.3-0.7-0.4-1c-1.8-4.8-3.6-9.5-5.5-14.3c-0.2-0.5-0.1-0.6,0.4-0.8c1.2-0.3,2.4-0.7,3.5-1.3c5.3-2.8,8.9-6.8,9.3-13.1
	C102.5,27,101.9,24.7,100.1,23z M89.3,32.3c-0.1,2.6-2,4.6-5,5.3c-1,0.2-1.9,0.3-2.9,0.3c-1.4,0-1.4,0-0.9-1.3
	c0.8-2.3,1.7-4.5,2.5-6.8c0.2-0.4,0.4-0.6,0.8-0.6c1.2,0,2.3,0,3.5,0.3C88.9,30,89.4,30.7,89.3,32.3z"/>
<path class="st4" d="M271.8,55.7c1-0.4,1.3-1,1.1-1.9c-0.1-0.8-0.7-1.3-1.7-1.3c-0.8-0.1-1.7,0-2.5,0c-0.4,0-0.5,0.2-0.5,0.5
	c0,1.6,0,3.3,0,4.9c0,0.3,0,0.5,0.4,0.5c0.6,0.1,0.9-0.1,0.8-0.8c-0.1-0.4,0-0.8,0-1.2c0-0.2-0.2-0.5,0.2-0.6c0.3-0.1,0.6,0,0.7,0.4
	c0.2,0.4,0.5,0.8,0.7,1.3c0.3,0.8,0.9,1,1.7,0.8c-0.4-0.7-0.9-1.4-1.3-2.1C271.5,56,271.4,55.9,271.8,55.7z M270.3,54.9
	c-0.7,0.1-0.8-0.2-0.8-0.8c0-0.7,0.3-0.8,0.9-0.7c0.6,0,1.3-0.1,1.3,0.7C271.7,55,270.9,54.8,270.3,54.9z"/>
</svg>
