<?xml version="1.0" encoding="utf-8"?>
<!-- Generator: Adobe Illustrator 23.1.1, SVG Export Plug-In . SVG Version: 6.00 Build 0)  -->
<svg version="1.1" id="Ebene_1" xmlns="http://www.w3.org/2000/svg" xmlns:xlink="http://www.w3.org/1999/xlink" x="0px" y="0px"
	 viewBox="0 0 280 100" style="enable-background:new 0 0 280 100;" xml:space="preserve">
<style type="text/css">
	.st0{clip-path:url(#SVGID_2_);}
	.st1{clip-path:url(#SVGID_4_);fill:#DC0814;}
	.st2{clip-path:url(#SVGID_4_);fill:#004A93;}
	.st3{clip-path:url(#SVGID_6_);}
	.st4{clip-path:url(#SVGID_8_);fill:#A31834;}
	.st5{clip-path:url(#SVGID_8_);fill:#111424;}
	.st6{clip-path:url(#SVGID_10_);}
	.st7{clip-path:url(#SVGID_12_);fill-rule:evenodd;clip-rule:evenodd;fill:#1D71B8;}
	.st8{clip-path:url(#SVGID_12_);fill:#575756;}
	.st9{fill:#FFFFFF;}
	.st10{fill:#E30613;}
	.st11{fill:#1D1D1B;}
	.st12{fill:#9D9D9C;}
</style>
<g id="ATG_Logo_1_">
	<g>
		<defs>
			<rect id="SVGID_9_" y="5.3" width="280" height="89.5"/>
		</defs>
		<clipPath id="SVGID_2_">
			<use xlink:href="#SVGID_9_"  style="overflow:visible;"/>
		</clipPath>
		<g class="st0">
			<defs>
				<rect id="SVGID_11_" y="5.3" width="280" height="89.5"/>
			</defs>
			<clipPath id="SVGID_4_">
				<use xlink:href="#SVGID_11_"  style="overflow:visible;"/>
			</clipPath>
			<path style="clip-path:url(#SVGID_4_);fill-rule:evenodd;clip-rule:evenodd;fill:#1D71B8;" d="M7.9,58.5c1.5-2.8,3.3-4.9,5.6-7.1
				c2.2-2.1,4.8-3.6,7.5-4.9c4.1-2,8.4-3.6,12.8-4.9c6-1.8,12-3.2,18.1-4.3c5.6-1.1,11.3-2.1,16.9-3.1c5.6-1,10.9-1.3,16.5-2.3
				c1.3-0.2,2.8-0.4,4.4-0.6c1-0.1,1.7-0.1,2.5-0.5c6.3-3.6,12.7-7,19.2-10.1c5.7-2.7,11.4-5.3,17.4-7.2c3.8-1.3,7.7-2.1,11.7-2.8
				c2.5-0.4,5.1-0.8,7.6-1.1c1.5-0.2,3-0.3,4.5-0.4c2.4-0.2,4.8-0.4,7.2-0.4c3.5-0.1,7,0,10.6,0c0.9,0,1.8,0.1,2.7,0.1
				c2.6,0.2,5.2,0.3,7.8,0.5c2.3,0.2,4.6,0.4,6.9,0.7c2.7,0.3,5.5,0.7,8.2,1.2c8.9,1.6,17.7,3.9,26.4,6.6c5,1.5,9.8,3.4,14.7,5.4
				c6.3,2.5,12.6,5.2,19,7.4c4.7,1.6,9.6,2.6,14.6,2.9c2.2,0.1,4.4,0.2,6.6,0.4c0.2,0,0.4,0.1,0.7,0.1c-0.1,0.4-0.4,0.4-0.6,0.4
				c-3,0.3-6,0.6-9,0.6c-7.9-0.2-15.6-1.2-23-4c-4-1.5-7.9-3.2-11.8-4.8c-6.6-2.7-13.2-5.3-19.9-7.5c-7.2-2.4-14.6-4.4-22.1-5.6
				c-3.7-0.6-7.4-1.2-11.2-1.6c-5.2-0.6-10.5-1.1-15.7-1.1c-3.4,0-6.8,0-10.1,0.4c-2.3,0.3-4.7,0.4-7,0.7c-2.9,0.4-5.8,0.9-8.7,1.5
				c-2.9,0.6-5.8,1.3-8.7,2c-3.6,0.9-7,2.3-10.3,3.8c-7.6,3.5-14.7,7.6-21.7,12.1c-1,0.6-2,1.2-2.9,1.9c-1,0.7-2,1.2-3.2,1.4
				c-2,0.4-4,0.7-6,0.9c-2.1,0.3-4.1,0.5-6.2,0.7c-2.1,0.2-4.2,0.5-6.3,0.7c-3,0.3-6,0.7-9.1,1.1c-2.2,0.3-4.4,0.5-6.6,0.9
				c-4.1,0.6-8.2,1.3-12.3,2.1c-5.1,0.9-10.2,2.2-15.1,3.8c-3.6,1.2-7.2,2.6-10.5,4.5c-5.4,3.1-9.7,7.3-12.8,12.7
				c-0.4,0.6-1.7,2.9-2.1,3.5c-0.1,0.1,2.7-6.1,2.6-5.9"/>
			<path style="clip-path:url(#SVGID_4_);fill-rule:evenodd;clip-rule:evenodd;fill:#1D71B8;" d="M7.2,65.2c0.1-0.2,0.2-0.9,0.5-1.4
				c2.9-5,6.5-9.4,11.1-12.8c3.2-2.3,6.7-3.9,10.4-5c3.9-1.2,7.9-2,12-2.7c4-0.6,8-1.1,12.1-1.5c4.9-0.4,9.7-0.7,14.6-0.9
				c2.8-0.1,5.6-0.1,8.4-0.3c2.2-0.1,4.4-0.3,6.6-0.4c2.5-0.2,5.1-0.4,7.6-0.7c2-0.2,3.9-0.4,5.9-0.7c1.8-0.2,3.6-0.5,5.4-0.7
				c2.3-0.3,4.6-0.7,6.9-1c2.3-0.3,4.6-0.7,6.9-1c2.1-0.3,4.3-0.7,6.4-1c2.3-0.3,4.6-0.7,6.9-1c2.3-0.3,4.7-0.7,7-1
				c2.5-0.4,5-0.7,7.4-1c1.8-0.2,3.5-0.5,5.3-0.7c1.8-0.2,3.5-0.5,5.3-0.7c2.1-0.3,4.1-0.5,6.2-0.7c2.1-0.2,4.2-0.5,6.3-0.7
				c1.5-0.2,3.1-0.3,4.6-0.5c1.2-0.1,2.5-0.3,3.7-0.3c2-0.1,3.9-0.2,5.9-0.4c6-0.4,12-0.3,18-0.2c2.8,0,5.7,0.3,8.5,0.5
				c1.9,0.1,3.8,0.2,5.6,0.4c1.4,0.1,2.8,0.3,4.2,0.4c0.7,0.1,1.3,0.2,2,0.1c0-0.5-0.5-0.5-0.7-0.7c-3.1-1.6-6.2-3-9.4-4.4
				c-6.9-2.9-14.1-5.3-21.4-7.1c-4-1-8.1-1.8-12.2-2.2c-2.8-0.3-5.7-0.6-8.5-0.8c-3.4-0.2-6.8-0.1-10.1-0.1c-1.7,0-3.4,0-5.1,0.1
				c-2,0.1-4,0.3-6.1,0.5c-1.1,0.1-2.2,0.2-3.3,0.3c-2.3,0.3-4.6,0.5-6.9,0.8c-0.1,0-0.3,0-0.4,0c0.1-0.4,0.4-0.4,0.6-0.4
				c1.6-0.3,3.1-0.5,4.7-0.8c2-0.3,3.9-0.5,5.9-0.8c1.3-0.2,2.6-0.3,3.9-0.4c2.9-0.1,5.8-0.2,8.7-0.4c3.2-0.1,6.5,0,9.7,0.1
				c2.4,0.1,4.7,0.3,7.1,0.5c3.1,0.2,6.1,0.7,9.2,1.1c8.3,1.3,16.4,3.4,24.3,6.4c6,2.2,11.9,4.7,17.8,7.2c4.1,1.8,8.2,3.6,12.3,5.4
				c0.4,0.2,0.9,0.3,1.2,0.9c-0.6-0.1-1.2-0.2-1.8-0.3c-5-1-10.1-1.9-15.1-2.5c-3.9-0.5-7.8-0.9-11.6-1.4c-2-0.2-3.9-0.3-5.9-0.4
				c-6.6-0.4-13.2-0.4-19.8-0.2c-2.7,0.1-5.5,0.3-8.2,0.5c-1.7,0.1-3.5,0.3-5.2,0.4c-1.4,0.1-2.9,0.3-4.3,0.5
				c-1.1,0.1-2.2,0.2-3.3,0.4c-2.9,0.3-5.8,0.6-8.6,1c-2.7,0.3-5.3,0.7-8,1.1c-3.2,0.4-6.4,0.8-9.6,1.3c-4.1,0.6-8.2,1.2-12.3,1.9
				c-7.5,1.4-15.1,2.9-22.6,4.3c-5.4,1-10.8,2-16.2,2.9c-4.7,0.8-9.4,1-14.1,0.7c-3.2-0.2-6.5-0.4-9.7-0.6c-4.8-0.3-9.6-0.4-14.3,0
				c-4,0.3-7.9,0.9-11.9,1.8c-3.5,0.8-6.9,1.6-10.3,3c-7.9,3.2-14.3,8.2-19.2,15.3"/>
			<path style="clip-path:url(#SVGID_4_);fill-rule:evenodd;clip-rule:evenodd;fill:#1D71B8;" d="M264.5,56.2
				c-0.2-0.2-0.4-0.3-0.6-0.5c-5.9-5.5-12.8-9.1-20.6-11.1c-3.5-0.9-7-1.4-10.5-1.8c-5.7-0.6-11.4-0.6-17.1-0.5
				c-3.7,0.1-7.4,0.3-11.1,0.5c-3.6,0.2-7.1,0.5-10.7,1c-3.4,0.4-6.9,0.9-10.3,1.5c-9.6,1.7-19.2,3.8-28.8,5.9
				c-11.8,2.5-23.6,5.1-35.3,7.7c-8.5,1.9-17,3.9-25.4,6.2c-4.3,1.1-8.6,2.2-13,2.9c-1.9,0.3-3.7,0.5-5.6,0.5c-0.4,0-0.8,0-1.2-0.1
				c-1-0.1-1.8-0.5-2.3-1.5c-0.6-1.1-1.2-2.2-1.8-3.3c-1.9-3.7-4.6-6.6-7.9-9.1c-2.6-1.9-5.6-3-8.7-3.8c-3.9-0.9-7.8-1.1-11.8-0.7
				c-2.9,0.3-5.8,0.8-8.6,1.7c-4.8,1.6-8.9,4.2-12.3,7.9c-0.2,0.3-0.5,0.5-0.9,0.6c0.1-0.2,0.1-0.3,0.2-0.5c2.5-3.6,5.7-6.4,9.8-8.1
				c3.8-1.6,7.8-2.5,11.9-2.9c5-0.5,9.8,0,14.6,1.2c5.8,1.5,10.6,4.7,14.4,9.2c0.5,0.6,0.9,1.1,1.4,1.7c1.3,1.7,3.1,2.7,5.3,3
				c1.2,0.2,2.4,0.2,3.6,0.1c4.9-0.5,9.6-1.4,14.4-2.3c5.9-1.2,11.7-2.4,17.6-3.6c6.7-1.4,13.5-3,20.2-4.4
				c6.1-1.3,12.1-2.7,18.2-3.9c5.6-1.2,11.1-2.3,16.7-3.4c4.4-0.8,8.7-1.5,13.1-2.2c3.2-0.5,6.4-1,9.6-1.3c3.4-0.4,6.7-0.7,10.1-1
				c3.8-0.3,7.6-0.5,11.4-0.7c3.8-0.2,7.5-0.2,11.3,0.1c2.1,0.2,4.1,0.2,6.2,0.4c5.3,0.4,10.7,1,15.8,2.6c6.5,2,12.3,5.3,17.2,10
				c0.5,0.5,1,1.1,1.4,1.6C264.5,55.9,264.5,56,264.5,56.2"/>
			<polygon style="clip-path:url(#SVGID_4_);fill:#575756;" points="181.5,49 197,91.6 188.3,91.6 185.8,84.1 185.8,84.1 
				178.4,61.6 173,77.1 178.2,77.1 180.6,84.1 170.7,84.1 168.1,91.6 159.4,91.6 174.9,49 			"/>
			<polygon style="clip-path:url(#SVGID_4_);fill:#575756;" points="214.6,56.5 214.6,91.6 206.3,91.6 206.3,56.5 195.2,56.5 
				195.2,49.1 225.7,49.1 225.7,56.5 			"/>
			<path style="clip-path:url(#SVGID_4_);fill:#575756;" d="M261.6,74.2c0,5.8-1.4,10.1-4.1,13c-3.2,3.2-7.2,4.8-12,4.8
				c-4.5,0-8.4-1.6-11.5-4.7c-1.8-1.8-3-4-3.5-6.4c-0.5-2.4-0.7-5.9-0.7-10.6c0-4.7,0.2-8.2,0.7-10.6c0.5-2.4,1.6-4.6,3.5-6.4
				c3.1-3.1,6.9-4.7,11.5-4.7c4.6,0,8.3,1.3,11.2,4c2.6,2.4,4.2,5.6,4.8,9.6h-8.4c-1-4.1-3.6-6.2-7.6-6.2c-2.2,0-4,0.8-5.3,2.3
				c-1.4,1.7-2,5.7-2,12c0,6.4,0.7,10.4,2,12c1.2,1.5,3,2.2,5.3,2.2c2.5,0,4.4-0.8,5.9-2.4c1.3-1.5,1.9-3.4,1.9-5.7v-1.6h-7.8v-6.9
				h16.1V74.2z"/>
			<polygon style="clip-path:url(#SVGID_4_);fill:#575756;" points="3.8,71.8 5.6,71.8 5.6,75 8.2,71.8 10.3,71.8 7,76 10.6,81.1 
				8.5,81.1 5.6,77 5.6,81.1 3.8,81.1 			"/>
			<polygon style="clip-path:url(#SVGID_4_);fill:#575756;" points="11.9,71.8 16.5,71.8 16.5,73.5 13.7,73.5 13.7,75.2 16.5,75.2 
				16.5,76.9 13.7,76.9 13.7,81.1 11.9,81.1 			"/>
			<polygon style="clip-path:url(#SVGID_4_);fill:#575756;" points="17.6,71.8 23.2,71.8 19.9,79.4 23,79.4 23,81.1 17.3,81.1 
				20.6,73.6 17.6,73.6 			"/>
			<rect x="24.6" y="76.9" style="clip-path:url(#SVGID_4_);fill:#575756;" width="3.2" height="1.6"/>
			<polygon style="clip-path:url(#SVGID_4_);fill:#575756;" points="29.5,71.8 35.2,71.8 31.9,79.4 35,79.4 35,81.1 29.3,81.1 
				32.6,73.6 29.5,73.6 			"/>
			<path style="clip-path:url(#SVGID_4_);fill:#575756;" d="M36.3,74.2h1.7v3.3c0,0.6,0,1.1,0.1,1.3c0.1,0.3,0.2,0.4,0.4,0.6
				c0.2,0.1,0.4,0.2,0.7,0.2c0.3,0,0.5-0.1,0.7-0.2c0.2-0.1,0.4-0.3,0.4-0.6c0.1-0.2,0.1-0.6,0.1-1.3v-3.4h1.7v2.9
				c0,1.2-0.1,2-0.3,2.5c-0.2,0.5-0.6,1-1,1.2c-0.5,0.3-1,0.4-1.7,0.4c-0.8,0-1.4-0.2-1.8-0.5c-0.5-0.3-0.8-0.8-1-1.4
				c-0.1-0.4-0.2-1.2-0.2-2.3V74.2z"/>
			<path style="clip-path:url(#SVGID_4_);fill:#575756;" d="M45.8,71.6V75c0.3-0.3,0.7-0.5,1-0.7c0.4-0.2,0.8-0.2,1.2-0.2
				c0.9,0,1.7,0.3,2.3,1c0.6,0.7,0.9,1.6,0.9,2.6c0,1-0.3,1.9-1,2.6c-0.7,0.7-1.4,1-2.3,1c-0.4,0-0.8-0.1-1.1-0.2
				c-0.3-0.1-0.7-0.4-1-0.7v0.7h-1.7v-9.6H45.8z M47.7,75.7c-0.5,0-1,0.2-1.4,0.6c-0.4,0.4-0.5,0.9-0.5,1.5c0,0.6,0.2,1.1,0.5,1.5
				c0.4,0.4,0.8,0.6,1.4,0.6c0.5,0,1-0.2,1.3-0.6c0.4-0.4,0.5-0.9,0.5-1.5c0-0.6-0.2-1.1-0.5-1.5C48.6,75.9,48.2,75.7,47.7,75.7"/>
			<path style="clip-path:url(#SVGID_4_);fill:#575756;" d="M59.6,78.2H54c0.1,0.5,0.3,0.9,0.6,1.2c0.3,0.3,0.8,0.4,1.3,0.4
				c0.6,0,1.2-0.2,1.7-0.7l1.5,0.7c-0.4,0.5-0.8,0.9-1.3,1.1c-0.5,0.2-1.1,0.4-1.8,0.4c-1.1,0-2-0.3-2.6-1c-0.7-0.7-1-1.5-1-2.6
				c0-1.1,0.3-1.9,1-2.6c0.7-0.7,1.5-1,2.6-1c1.1,0,2,0.3,2.6,1c0.7,0.7,1,1.6,1,2.8L59.6,78.2z M57.9,76.8
				c-0.1-0.4-0.3-0.7-0.7-0.9c-0.3-0.2-0.7-0.4-1.2-0.4c-0.5,0-0.9,0.1-1.3,0.4c-0.2,0.2-0.4,0.5-0.6,0.9H57.9z"/>
			<path style="clip-path:url(#SVGID_4_);fill:#575756;" d="M61,71.6h1.7v3.4c0.3-0.3,0.7-0.5,1-0.7c0.3-0.1,0.7-0.2,1-0.2
				c0.7,0,1.3,0.2,1.7,0.7c0.4,0.4,0.6,1,0.6,1.8v4.6h-1.7v-3c0-0.8,0-1.3-0.1-1.6c-0.1-0.3-0.2-0.5-0.4-0.6
				c-0.2-0.1-0.4-0.2-0.7-0.2c-0.4,0-0.7,0.1-0.9,0.3c-0.3,0.2-0.4,0.5-0.5,1c-0.1,0.2-0.1,0.7-0.1,1.4v2.8H61V71.6z"/>
			<path style="clip-path:url(#SVGID_4_);fill:#575756;" d="M72,74.1c0.7,0,1.3,0.2,1.8,0.5c0.6,0.3,1,0.8,1.3,1.3
				c0.3,0.6,0.5,1.2,0.5,1.8c0,0.7-0.2,1.3-0.5,1.8c-0.3,0.6-0.8,1-1.3,1.3c-0.6,0.3-1.2,0.5-1.8,0.5c-1,0-1.8-0.4-2.5-1.1
				c-0.7-0.7-1-1.6-1-2.6c0-1.1,0.4-2,1.2-2.7C70.3,74.4,71.1,74.1,72,74.1 M70.6,71.2c0.3,0,0.5,0.1,0.6,0.3
				c0.2,0.2,0.3,0.4,0.3,0.6c0,0.3-0.1,0.5-0.3,0.6c-0.2,0.2-0.4,0.3-0.6,0.3c-0.2,0-0.5-0.1-0.6-0.3c-0.2-0.2-0.3-0.4-0.3-0.6
				c0-0.2,0.1-0.5,0.3-0.6C70.2,71.3,70.4,71.2,70.6,71.2 M72,75.7c-0.5,0-1,0.2-1.3,0.6c-0.4,0.4-0.5,0.9-0.5,1.4
				c0,0.6,0.2,1.1,0.5,1.5c0.4,0.4,0.8,0.6,1.3,0.6c0.5,0,1-0.2,1.4-0.6c0.4-0.4,0.5-0.9,0.5-1.5c0-0.6-0.2-1.1-0.5-1.4
				C73,75.9,72.6,75.7,72,75.7 M73.4,71.2c0.3,0,0.5,0.1,0.6,0.3c0.2,0.2,0.3,0.4,0.3,0.6c0,0.3-0.1,0.5-0.3,0.6
				c-0.2,0.2-0.4,0.3-0.6,0.3c-0.2,0-0.5-0.1-0.6-0.3c-0.2-0.2-0.3-0.4-0.3-0.6c0-0.2,0.1-0.5,0.3-0.6C73,71.3,73.2,71.2,73.4,71.2"
				/>
			<path style="clip-path:url(#SVGID_4_);fill:#575756;" d="M76.7,74.2h1.5v0.9c0.2-0.3,0.4-0.6,0.6-0.8c0.3-0.2,0.6-0.3,0.9-0.3
				c0.2,0,0.5,0.1,0.7,0.2l-0.5,1.5c-0.2-0.1-0.4-0.2-0.5-0.2c-0.3,0-0.5,0.2-0.7,0.5c-0.2,0.3-0.3,1-0.3,1.9l0,0.3v2.8h-1.7V74.2z"
				/>
			<path style="clip-path:url(#SVGID_4_);fill:#575756;" d="M90.9,77.5l1.1,1.2l-0.5,0.4L91,79.6l1.5,1.6h-2.2l-0.6-0.6
				c-1,0.6-1.9,0.9-2.7,0.9c-0.7,0-1.3-0.2-1.7-0.6c-0.4-0.4-0.7-1-0.7-1.6c0-0.5,0.1-1,0.4-1.4c0.2-0.4,0.7-0.9,1.3-1.4
				c-0.6-0.8-0.9-1.5-0.9-2.1c0-0.5,0.2-0.9,0.6-1.4c0.4-0.4,1-0.7,1.7-0.7c0.7,0,1.3,0.2,1.7,0.7c0.4,0.4,0.6,0.9,0.6,1.3
				c0,0.4-0.1,0.7-0.3,1c-0.2,0.3-0.6,0.8-1.2,1.4c0.8,0.9,1.2,1.4,1.5,1.7C90,78.2,90.3,77.9,90.9,77.5 M88.6,79.3
				c-0.3-0.3-0.8-0.9-1.4-1.6c-0.6,0.5-0.9,1-0.9,1.4c0,0.2,0.1,0.3,0.3,0.5c0.2,0.2,0.4,0.2,0.6,0.2C87.5,79.8,88,79.6,88.6,79.3
				 M87.5,75.4c0.5-0.4,0.7-0.8,0.7-1.1c0-0.2-0.1-0.3-0.2-0.4c-0.1-0.1-0.2-0.2-0.4-0.2c-0.2,0-0.3,0.1-0.4,0.2
				c-0.1,0.1-0.2,0.2-0.2,0.4C87.1,74.7,87.2,75,87.5,75.4"/>
			<polygon style="clip-path:url(#SVGID_4_);fill:#575756;" points="97.5,71.8 102.6,71.8 102.6,73.6 99.3,73.6 99.3,75.2 
				102.6,75.2 102.6,76.9 99.3,76.9 99.3,79.4 102.6,79.4 102.6,81.1 97.5,81.1 			"/>
			<path style="clip-path:url(#SVGID_4_);fill:#575756;" d="M103.7,74.2h1.5v0.9c0.2-0.3,0.4-0.6,0.6-0.8c0.3-0.2,0.6-0.3,0.9-0.3
				c0.2,0,0.5,0.1,0.7,0.2l-0.5,1.5c-0.2-0.1-0.4-0.2-0.5-0.2c-0.3,0-0.5,0.2-0.7,0.5c-0.2,0.3-0.3,1-0.3,1.9l0,0.3v2.8h-1.7V74.2z"
				/>
			<path style="clip-path:url(#SVGID_4_);fill:#575756;" d="M112.4,75.2l-1.1,1.1c-0.4-0.4-0.8-0.6-1.2-0.6c-0.2,0-0.3,0-0.5,0.1
				c-0.1,0.1-0.2,0.2-0.2,0.3c0,0.1,0,0.2,0.1,0.3c0.1,0.1,0.2,0.2,0.5,0.3l0.6,0.3c0.7,0.3,1.1,0.7,1.4,1c0.2,0.3,0.4,0.7,0.4,1.2
				c0,0.6-0.2,1.1-0.7,1.5c-0.4,0.4-1.1,0.6-1.8,0.6c-1,0-1.8-0.4-2.4-1.2l1.1-1.2c0.2,0.2,0.4,0.4,0.7,0.6c0.3,0.1,0.5,0.2,0.7,0.2
				c0.2,0,0.4-0.1,0.6-0.2c0.1-0.1,0.2-0.2,0.2-0.4c0-0.3-0.3-0.5-0.8-0.8l-0.6-0.3c-1.1-0.6-1.7-1.3-1.7-2.1c0-0.5,0.2-1,0.6-1.4
				c0.4-0.4,1-0.6,1.6-0.6c0.4,0,0.9,0.1,1.3,0.3C111.8,74.6,112.2,74.8,112.4,75.2"/>
			<path style="clip-path:url(#SVGID_4_);fill:#575756;" d="M119,74.2h1.7v6.9H119v-0.7c-0.3,0.3-0.7,0.6-1,0.7
				c-0.3,0.1-0.7,0.2-1.1,0.2c-0.9,0-1.7-0.3-2.3-1c-0.6-0.7-1-1.5-1-2.6c0-1.1,0.3-1.9,0.9-2.6c0.6-0.7,1.4-1,2.3-1
				c0.4,0,0.8,0.1,1.2,0.2c0.4,0.2,0.7,0.4,1,0.7V74.2z M117.2,75.7c-0.5,0-1,0.2-1.3,0.6c-0.4,0.4-0.5,0.9-0.5,1.5
				c0,0.6,0.2,1.1,0.5,1.5c0.4,0.4,0.8,0.6,1.3,0.6c0.5,0,1-0.2,1.4-0.6c0.4-0.4,0.5-0.9,0.5-1.5c0-0.6-0.2-1.1-0.5-1.5
				C118.2,75.8,117.7,75.7,117.2,75.7"/>
			<polygon style="clip-path:url(#SVGID_4_);fill:#575756;" points="122.7,71.7 124.4,71.7 124.4,74.2 125.5,74.2 125.5,75.7 
				124.4,75.7 124.4,81.1 122.7,81.1 122.7,75.7 121.8,75.7 121.8,74.2 122.7,74.2 			"/>
			<polygon style="clip-path:url(#SVGID_4_);fill:#575756;" points="126.1,74.2 131.4,74.2 128.3,79.7 131.2,79.7 131.2,81.1 
				125.6,81.1 128.7,75.7 126.1,75.7 			"/>
			<polygon style="clip-path:url(#SVGID_4_);fill:#575756;" points="132.6,71.7 134.3,71.7 134.3,74.2 135.3,74.2 135.3,75.7 
				134.3,75.7 134.3,81.1 132.6,81.1 132.6,75.7 131.7,75.7 131.7,74.2 132.6,74.2 			"/>
			<path style="clip-path:url(#SVGID_4_);fill:#575756;" d="M143.1,78.2h-5.6c0.1,0.5,0.3,0.9,0.6,1.2c0.3,0.3,0.8,0.4,1.3,0.4
				c0.6,0,1.2-0.2,1.7-0.7l1.5,0.7c-0.4,0.5-0.8,0.9-1.3,1.1c-0.5,0.2-1.1,0.4-1.8,0.4c-1.1,0-2-0.3-2.6-1c-0.7-0.7-1-1.5-1-2.6
				c0-1.1,0.3-1.9,1-2.6c0.7-0.7,1.5-1,2.6-1c1.1,0,2,0.3,2.6,1c0.7,0.7,1,1.6,1,2.8L143.1,78.2z M141.4,76.8
				c-0.1-0.4-0.3-0.7-0.7-0.9c-0.3-0.2-0.7-0.4-1.2-0.4c-0.5,0-0.9,0.1-1.3,0.4c-0.2,0.2-0.4,0.5-0.6,0.9H141.4z"/>
			<path style="clip-path:url(#SVGID_4_);fill:#575756;" d="M145.2,71.4c0.3,0,0.6,0.1,0.8,0.3c0.2,0.2,0.3,0.5,0.3,0.8
				c0,0.3-0.1,0.6-0.3,0.8c-0.2,0.2-0.5,0.3-0.8,0.3c-0.3,0-0.6-0.1-0.8-0.3c-0.2-0.2-0.3-0.5-0.3-0.8c0-0.3,0.1-0.6,0.3-0.8
				C144.7,71.5,144.9,71.4,145.2,71.4 M144.4,74.2h1.7v6.9h-1.7V74.2z"/>
			<rect x="147.5" y="71.6" style="clip-path:url(#SVGID_4_);fill:#575756;" width="1.7" height="9.6"/>
			<path style="clip-path:url(#SVGID_4_);fill:#575756;" d="M157.7,78.2h-5.6c0.1,0.5,0.3,0.9,0.6,1.2c0.3,0.3,0.8,0.4,1.3,0.4
				c0.6,0,1.2-0.2,1.7-0.7l1.5,0.7c-0.4,0.5-0.8,0.9-1.3,1.1c-0.5,0.2-1.1,0.4-1.8,0.4c-1.1,0-2-0.3-2.6-1c-0.7-0.7-1-1.5-1-2.6
				c0-1.1,0.3-1.9,1-2.6c0.7-0.7,1.5-1,2.6-1c1.1,0,2,0.3,2.6,1c0.7,0.7,1,1.6,1,2.8L157.7,78.2z M155.9,76.8
				c-0.1-0.4-0.3-0.7-0.7-0.9c-0.3-0.2-0.7-0.4-1.2-0.4c-0.5,0-0.9,0.1-1.3,0.4c-0.2,0.2-0.4,0.5-0.6,0.9H155.9z"/>
			<path style="clip-path:url(#SVGID_4_);fill:#575756;" d="M4.3,87H3c0-0.7,0.3-1.3,0.7-1.7c0.4-0.4,1-0.6,1.7-0.6
				c0.4,0,0.8,0.1,1.1,0.3C6.8,85,7,85.3,7.2,85.6c0.2,0.3,0.3,0.7,0.3,1c0,0.4-0.1,0.8-0.3,1.3c-0.2,0.5-0.7,1-1.3,1.7l-0.8,0.8
				h2.4v1.2H2.8V91l2.1-2.2c0.5-0.5,0.9-0.9,1-1.3c0.2-0.3,0.3-0.6,0.3-0.9c0-0.3-0.1-0.5-0.3-0.7c-0.2-0.2-0.4-0.3-0.7-0.3
				c-0.3,0-0.5,0.1-0.7,0.3C4.4,86.3,4.3,86.6,4.3,87"/>
			<path style="clip-path:url(#SVGID_4_);fill:#575756;" d="M10.7,84.6l1.1,0.6l-1.2,2.3c0.6,0,1.1,0.2,1.5,0.6
				c0.4,0.4,0.6,0.9,0.6,1.6c0,0.6-0.2,1.1-0.6,1.5c-0.4,0.4-0.9,0.6-1.5,0.6c-0.6,0-1.1-0.2-1.5-0.6c-0.4-0.4-0.6-0.9-0.6-1.5
				c0-0.2,0-0.4,0.1-0.6c0.1-0.2,0.2-0.5,0.4-1L10.7,84.6z M10.6,88.7c-0.2,0-0.4,0.1-0.6,0.3c-0.2,0.2-0.2,0.4-0.2,0.7
				c0,0.3,0.1,0.5,0.3,0.7c0.2,0.2,0.4,0.3,0.6,0.3c0.2,0,0.5-0.1,0.6-0.3c0.2-0.2,0.3-0.4,0.3-0.7c0-0.3-0.1-0.5-0.3-0.7
				C11,88.8,10.8,88.7,10.6,88.7"/>
			<path style="clip-path:url(#SVGID_4_);fill:#575756;" d="M15,87h-1.3c0-0.7,0.3-1.3,0.7-1.7c0.4-0.4,1-0.6,1.7-0.6
				c0.4,0,0.8,0.1,1.1,0.3c0.3,0.2,0.6,0.4,0.8,0.8c0.2,0.3,0.3,0.7,0.3,1c0,0.4-0.1,0.8-0.3,1.3c-0.2,0.5-0.7,1-1.3,1.7l-0.8,0.8
				h2.4v1.2h-4.8V91l2.1-2.2c0.5-0.5,0.9-0.9,1-1.3c0.2-0.3,0.3-0.6,0.3-0.9c0-0.3-0.1-0.5-0.3-0.7c-0.2-0.2-0.4-0.3-0.7-0.3
				c-0.3,0-0.5,0.1-0.7,0.3C15.1,86.3,15,86.6,15,87"/>
			<path style="clip-path:url(#SVGID_4_);fill:#575756;" d="M21.3,84.6c0.5,0,0.9,0.1,1.3,0.4c0.4,0.2,0.6,0.6,0.8,1.1
				c0.2,0.5,0.3,1.2,0.3,2.1c0,0.9-0.1,1.6-0.3,2.1c-0.2,0.5-0.5,0.9-0.8,1.1c-0.3,0.2-0.8,0.4-1.3,0.4c-0.5,0-1-0.1-1.3-0.4
				c-0.4-0.2-0.6-0.6-0.8-1.1c-0.2-0.5-0.3-1.2-0.3-2.1c0-1.3,0.2-2.2,0.6-2.7C19.9,84.9,20.5,84.6,21.3,84.6 M21.3,85.8
				c-0.2,0-0.4,0.1-0.6,0.2c-0.2,0.1-0.3,0.4-0.4,0.7c-0.1,0.3-0.1,0.9-0.1,1.5c0,0.9,0.1,1.5,0.3,1.8c0.2,0.3,0.5,0.5,0.8,0.5
				c0.3,0,0.6-0.2,0.8-0.5c0.2-0.4,0.3-1,0.3-1.9c0-0.9-0.1-1.5-0.3-1.9C21.9,86,21.7,85.8,21.3,85.8"/>
			<polygon style="clip-path:url(#SVGID_4_);fill:#575756;" points="27.5,84.7 28.7,84.7 31.7,89.3 31.7,84.7 33,84.7 33,91.6 
				31.7,91.6 28.8,87.1 28.8,91.6 27.5,91.6 			"/>
			<path style="clip-path:url(#SVGID_4_);fill:#575756;" d="M39.5,89.4h-4.1c0.1,0.4,0.2,0.6,0.5,0.9c0.3,0.2,0.6,0.3,1,0.3
				c0.5,0,0.9-0.2,1.2-0.5l1.1,0.5c-0.3,0.4-0.6,0.7-1,0.8c-0.4,0.2-0.8,0.3-1.3,0.3c-0.8,0-1.4-0.3-1.9-0.8
				c-0.5-0.5-0.8-1.1-0.8-1.9c0-0.8,0.2-1.4,0.7-1.9c0.5-0.5,1.1-0.8,1.9-0.8c0.8,0,1.5,0.3,2,0.8c0.5,0.5,0.8,1.2,0.8,2L39.5,89.4z
				 M38.2,88.4c-0.1-0.3-0.2-0.5-0.5-0.7c-0.2-0.2-0.5-0.3-0.9-0.3c-0.4,0-0.7,0.1-0.9,0.3c-0.2,0.1-0.3,0.3-0.5,0.7H38.2z"/>
			<path style="clip-path:url(#SVGID_4_);fill:#575756;" d="M40.5,86.5h1.3V89c0,0.5,0,0.8,0.1,1c0.1,0.2,0.2,0.3,0.3,0.4
				c0.1,0.1,0.3,0.2,0.5,0.2s0.4-0.1,0.5-0.2c0.1-0.1,0.3-0.2,0.3-0.4c0.1-0.1,0.1-0.5,0.1-0.9v-2.5H45v2.2c0,0.9-0.1,1.5-0.2,1.8
				c-0.2,0.4-0.4,0.7-0.8,0.9c-0.3,0.2-0.8,0.3-1.3,0.3c-0.6,0-1-0.1-1.4-0.4c-0.3-0.2-0.6-0.6-0.7-1c-0.1-0.3-0.1-0.9-0.1-1.7V86.5
				z"/>
			<path style="clip-path:url(#SVGID_4_);fill:#575756;" d="M46.3,86.5h1.3V87c0.3-0.2,0.6-0.4,0.8-0.5c0.2-0.1,0.5-0.1,0.7-0.1
				c0.5,0,0.9,0.2,1.3,0.5c0.3,0.3,0.4,0.7,0.4,1.3v3.4h-1.3v-2.2c0-0.6,0-1-0.1-1.2c-0.1-0.2-0.1-0.4-0.3-0.5
				c-0.1-0.1-0.3-0.2-0.5-0.2c-0.3,0-0.5,0.1-0.7,0.3c-0.2,0.2-0.3,0.4-0.4,0.7c0,0.2-0.1,0.5-0.1,1v2h-1.3V86.5z"/>
			<polygon style="clip-path:url(#SVGID_4_);fill:#575756;" points="52,84.6 53.3,84.6 53.3,88.6 55.2,86.5 56.8,86.5 54.6,89 
				57,91.6 55.4,91.6 53.3,89.3 53.3,91.6 52,91.6 			"/>
			<path style="clip-path:url(#SVGID_4_);fill:#575756;" d="M58,84.4c0.2,0,0.4,0.1,0.6,0.2c0.2,0.2,0.2,0.4,0.2,0.6
				c0,0.2-0.1,0.4-0.2,0.6c-0.2,0.2-0.3,0.2-0.6,0.2c-0.2,0-0.4-0.1-0.6-0.2c-0.2-0.2-0.2-0.4-0.2-0.6c0-0.2,0.1-0.4,0.2-0.6
				C57.6,84.5,57.8,84.4,58,84.4 M57.4,86.5h1.3v5.1h-1.3V86.5z"/>
			<path style="clip-path:url(#SVGID_4_);fill:#575756;" d="M59.5,86.5h1.1v0.6c0.1-0.3,0.3-0.4,0.5-0.6c0.2-0.1,0.4-0.2,0.6-0.2
				c0.2,0,0.3,0,0.5,0.1l-0.4,1.1c-0.1-0.1-0.3-0.1-0.4-0.1c-0.2,0-0.4,0.1-0.5,0.4c-0.1,0.2-0.2,0.7-0.2,1.4l0,0.2v2.1h-1.3V86.5z"
				/>
			<path style="clip-path:url(#SVGID_4_);fill:#575756;" d="M67.9,87.6l-1.1,0.6c-0.2-0.2-0.4-0.4-0.6-0.4c-0.2-0.1-0.4-0.1-0.7-0.1
				c-0.5,0-0.9,0.1-1.2,0.4c-0.3,0.3-0.4,0.6-0.4,1.1c0,0.4,0.1,0.8,0.4,1.1c0.3,0.3,0.7,0.4,1.1,0.4c0.6,0,1-0.2,1.3-0.6l1,0.7
				c-0.5,0.7-1.3,1.1-2.3,1.1c-0.9,0-1.6-0.3-2.1-0.8c-0.5-0.5-0.8-1.1-0.8-1.9c0-0.5,0.1-0.9,0.4-1.4c0.2-0.4,0.6-0.7,1-1
				c0.4-0.2,0.9-0.4,1.5-0.4c0.5,0,1,0.1,1.4,0.3C67.3,86.9,67.6,87.2,67.9,87.6"/>
			<path style="clip-path:url(#SVGID_4_);fill:#575756;" d="M69,84.6h1.3V87c0.2-0.2,0.5-0.4,0.8-0.5c0.3-0.1,0.5-0.2,0.8-0.2
				c0.5,0,0.9,0.2,1.3,0.5c0.3,0.3,0.4,0.7,0.4,1.3v3.4h-1.3v-2.2c0-0.6,0-1-0.1-1.2s-0.2-0.4-0.3-0.5c-0.1-0.1-0.3-0.2-0.5-0.2
				c-0.3,0-0.5,0.1-0.7,0.3c-0.2,0.2-0.3,0.4-0.4,0.7c0,0.2-0.1,0.5-0.1,1v2H69V84.6z"/>
			<path style="clip-path:url(#SVGID_4_);fill:#575756;" d="M79.8,89.4h-4.1c0.1,0.4,0.2,0.6,0.5,0.9c0.3,0.2,0.6,0.3,1,0.3
				c0.5,0,0.9-0.2,1.2-0.5l1.1,0.5c-0.3,0.4-0.6,0.7-1,0.8c-0.4,0.2-0.8,0.3-1.3,0.3c-0.8,0-1.4-0.3-1.9-0.8
				c-0.5-0.5-0.8-1.1-0.8-1.9c0-0.8,0.2-1.4,0.7-1.9c0.5-0.5,1.1-0.8,1.9-0.8c0.8,0,1.5,0.3,2,0.8c0.5,0.5,0.8,1.2,0.8,2L79.8,89.4z
				 M78.6,88.4c-0.1-0.3-0.2-0.5-0.5-0.7c-0.2-0.2-0.5-0.3-0.9-0.3c-0.4,0-0.7,0.1-0.9,0.3c-0.2,0.1-0.3,0.3-0.5,0.7H78.6z"/>
			<path style="clip-path:url(#SVGID_4_);fill:#575756;" d="M80.9,86.5h1.3V87c0.3-0.2,0.6-0.4,0.8-0.5c0.2-0.1,0.5-0.1,0.7-0.1
				c0.5,0,0.9,0.2,1.3,0.5c0.3,0.3,0.4,0.7,0.4,1.3v3.4h-1.3v-2.2c0-0.6,0-1-0.1-1.2c-0.1-0.2-0.1-0.4-0.3-0.5
				c-0.1-0.1-0.3-0.2-0.5-0.2c-0.3,0-0.5,0.1-0.7,0.3s-0.3,0.4-0.4,0.7c0,0.2-0.1,0.5-0.1,1v2h-1.3V86.5z"/>
			<rect x="89.5" y="88.5" style="clip-path:url(#SVGID_4_);fill:#575756;" width="2.4" height="1.2"/>
			<polygon style="clip-path:url(#SVGID_4_);fill:#575756;" points="95.4,86.5 96.7,86.5 97.7,89.4 98.8,86.5 99.5,86.5 100.6,89.4 
				101.6,86.5 102.9,86.5 101.1,91.6 100.2,91.6 99.2,88.7 98,91.6 97.2,91.6 			"/>
			<polygon style="clip-path:url(#SVGID_4_);fill:#575756;" points="103.1,86.5 104.3,86.5 105.3,89.4 106.4,86.5 107.2,86.5 
				108.3,89.4 109.3,86.5 110.6,86.5 108.7,91.6 107.9,91.6 106.8,88.7 105.7,91.6 104.9,91.6 			"/>
			<polygon style="clip-path:url(#SVGID_4_);fill:#575756;" points="110.7,86.5 112,86.5 113,89.4 114.1,86.5 114.8,86.5 
				115.9,89.4 116.9,86.5 118.2,86.5 116.3,91.6 115.5,91.6 114.5,88.7 113.3,91.6 112.5,91.6 			"/>
			<path style="clip-path:url(#SVGID_4_);fill:#575756;" d="M119.6,90.3c0.2,0,0.4,0.1,0.5,0.2c0.1,0.1,0.2,0.3,0.2,0.5
				c0,0.2-0.1,0.4-0.2,0.5c-0.1,0.1-0.3,0.2-0.5,0.2c-0.2,0-0.4-0.1-0.5-0.2c-0.1-0.1-0.2-0.3-0.2-0.5c0-0.2,0.1-0.4,0.2-0.5
				C119.2,90.3,119.4,90.3,119.6,90.3"/>
			<path style="clip-path:url(#SVGID_4_);fill:#575756;" d="M128,86.5h1.3v5.1H128v-0.5c-0.2,0.2-0.5,0.4-0.7,0.5
				c-0.3,0.1-0.5,0.2-0.8,0.2c-0.7,0-1.2-0.3-1.7-0.8c-0.5-0.5-0.7-1.1-0.7-1.9c0-0.8,0.2-1.4,0.7-1.9c0.5-0.5,1-0.8,1.7-0.8
				c0.3,0,0.6,0.1,0.9,0.2c0.3,0.1,0.5,0.3,0.7,0.5V86.5z M126.7,87.6c-0.4,0-0.7,0.1-1,0.4c-0.3,0.3-0.4,0.6-0.4,1.1
				c0,0.4,0.1,0.8,0.4,1.1c0.3,0.3,0.6,0.4,1,0.4c0.4,0,0.7-0.1,1-0.4c0.3-0.3,0.4-0.6,0.4-1.1c0-0.4-0.1-0.8-0.4-1.1
				C127.4,87.7,127.1,87.6,126.7,87.6"/>
			<polygon style="clip-path:url(#SVGID_4_);fill:#575756;" points="130.7,84.7 132,84.7 132,86.5 132.8,86.5 132.8,87.6 132,87.6 
				132,91.6 130.7,91.6 130.7,87.6 130.1,87.6 130.1,86.5 130.7,86.5 			"/>
			<rect x="133.6" y="88.5" style="clip-path:url(#SVGID_4_);fill:#575756;" width="2.4" height="1.2"/>
			<path style="clip-path:url(#SVGID_4_);fill:#575756;" d="M141.2,86.5h1.3v4.4c0,0.9-0.2,1.5-0.5,1.9c-0.5,0.5-1.2,0.8-2.1,0.8
				c-0.5,0-0.9-0.1-1.3-0.2c-0.3-0.1-0.6-0.3-0.9-0.5c-0.2-0.2-0.4-0.5-0.5-0.9h1.4c0.1,0.1,0.3,0.3,0.5,0.3s0.4,0.1,0.7,0.1
				c0.3,0,0.6-0.1,0.8-0.2c0.2-0.1,0.4-0.2,0.4-0.4c0.1-0.2,0.1-0.5,0.1-0.9c-0.2,0.2-0.5,0.4-0.7,0.5c-0.2,0.1-0.5,0.1-0.8,0.1
				c-0.7,0-1.3-0.2-1.7-0.7c-0.5-0.5-0.7-1.1-0.7-1.9c0-0.8,0.2-1.5,0.7-1.9c0.5-0.4,1-0.7,1.6-0.7c0.3,0,0.6,0.1,0.8,0.2
				c0.3,0.1,0.5,0.3,0.8,0.5V86.5z M139.9,87.6c-0.4,0-0.7,0.1-1,0.4c-0.3,0.3-0.4,0.6-0.4,1c0,0.4,0.1,0.8,0.4,1s0.6,0.4,1,0.4
				c0.4,0,0.7-0.1,1-0.4c0.3-0.3,0.4-0.6,0.4-1c0-0.4-0.1-0.8-0.4-1C140.6,87.7,140.3,87.6,139.9,87.6"/>
			<path style="clip-path:url(#SVGID_4_);fill:#575756;" d="M144.5,90.3c0.2,0,0.4,0.1,0.5,0.2c0.1,0.1,0.2,0.3,0.2,0.5
				c0,0.2-0.1,0.4-0.2,0.5c-0.1,0.1-0.3,0.2-0.5,0.2c-0.2,0-0.4-0.1-0.5-0.2c-0.1-0.1-0.2-0.3-0.2-0.5c0-0.2,0.1-0.4,0.2-0.5
				C144.1,90.3,144.3,90.3,144.5,90.3"/>
			<path style="clip-path:url(#SVGID_4_);fill:#575756;" d="M150.2,86.5h1.3v5.1h-1.3v-0.5c-0.2,0.2-0.5,0.4-0.7,0.5
				c-0.3,0.1-0.5,0.2-0.8,0.2c-0.7,0-1.2-0.3-1.7-0.8c-0.5-0.5-0.7-1.1-0.7-1.9c0-0.8,0.2-1.4,0.7-1.9c0.5-0.5,1-0.8,1.7-0.8
				c0.3,0,0.6,0.1,0.9,0.2c0.3,0.1,0.5,0.3,0.7,0.5V86.5z M148.9,87.6c-0.4,0-0.7,0.1-1,0.4s-0.4,0.6-0.4,1.1c0,0.4,0.1,0.8,0.4,1.1
				c0.3,0.3,0.6,0.4,1,0.4c0.4,0,0.7-0.1,1-0.4c0.3-0.3,0.4-0.6,0.4-1.1c0-0.4-0.1-0.8-0.4-1.1C149.6,87.7,149.3,87.6,148.9,87.6"/>
			<polygon style="clip-path:url(#SVGID_4_);fill:#575756;" points="152.9,84.7 154.2,84.7 154.2,86.5 154.9,86.5 154.9,87.6 
				154.2,87.6 154.2,91.6 152.9,91.6 152.9,87.6 152.3,87.6 152.3,86.5 152.9,86.5 			"/>
		</g>
	</g>
</g>
</svg>
