<?xml version="1.0" encoding="utf-8"?>
<!-- Generator: Adobe Illustrator 23.1.1, SVG Export Plug-In . SVG Version: 6.00 Build 0)  -->
<svg version="1.1" id="Ebene_1" xmlns="http://www.w3.org/2000/svg" xmlns:xlink="http://www.w3.org/1999/xlink" x="0px" y="0px"
	 viewBox="0 0 60 60" style="enable-background:new 0 0 60 60;" xml:space="preserve">
<style type="text/css">
	.st0{opacity:0.7;}
	.st1{fill:#95161C;}
	.st2{fill:none;stroke:#FFFFFF;}
	.st3{enable-background:new    ;}
	.st4{fill:#FFFFFF;}
</style>
<g class="st0">
	<g id="Ellipse_114" transform="translate(2777 1111)">
		<circle class="st1" cx="-2747" cy="-1081" r="28"/>
		<circle class="st2" cx="-2747" cy="-1081" r="27.5"/>
	</g>
	<g class="st3">
		<path class="st4" d="M41.2,33.8c0,0.2-0.1,0.4-0.2,0.5l-1.2,1.2c-0.2,0.2-0.3,0.2-0.5,0.2s-0.4-0.1-0.5-0.2l-9.2-9.2l-9.2,9.2
			c-0.2,0.2-0.3,0.2-0.5,0.2s-0.4-0.1-0.5-0.2L18,34.3c-0.2-0.2-0.2-0.3-0.2-0.5s0.1-0.4,0.2-0.5L29,22.3c0.2-0.2,0.3-0.2,0.5-0.2
			s0.4,0.1,0.5,0.2L41,33.2C41.1,33.4,41.2,33.5,41.2,33.8z"/>
	</g>
</g>
</svg>
