<?xml version="1.0" encoding="utf-8"?>
<!-- Generator: Adobe Illustrator 23.1.1, SVG Export Plug-In . SVG Version: 6.00 Build 0)  -->
<svg version="1.1" id="Ebene_1" xmlns="http://www.w3.org/2000/svg" xmlns:xlink="http://www.w3.org/1999/xlink" x="0px" y="0px"
	 viewBox="0 0 150 150" style="enable-background:new 0 0 150 150;" xml:space="preserve">
<style type="text/css">
	.st0{clip-path:url(#SVGID_2_);}
	.st1{clip-path:url(#SVGID_4_);fill:#FFF5F5;}
	.st2{clip-path:url(#SVGID_4_);fill:#FEAAAA;}
	.st3{clip-path:url(#SVGID_4_);fill:#FE0000;}
	.st4{clip-path:url(#SVGID_4_);fill:#FE0303;}
	.st5{clip-path:url(#SVGID_4_);fill:#FE0202;}
	.st6{clip-path:url(#SVGID_4_);fill:#FFFEFE;}
	.st7{clip-path:url(#SVGID_4_);fill:#FFFCFB;}
	.st8{clip-path:url(#SVGID_4_);fill:#FFFBFB;}
	.st9{clip-path:url(#SVGID_4_);fill:#FFFCFC;}
	.st10{clip-path:url(#SVGID_4_);fill:#FFFDFD;}
	.st11{clip-path:url(#SVGID_4_);fill:#FFFAFA;}
	.st12{clip-path:url(#SVGID_4_);fill:#010101;}
	.st13{clip-path:url(#SVGID_4_);fill:#FE0808;}
	.st14{clip-path:url(#SVGID_4_);fill:#FE0606;}
	.st15{clip-path:url(#SVGID_4_);fill:#FEFEFE;}
</style>
<g id="Logo_Karosserie_Fachbetrieb_8_">
	<g>
		<defs>
			<rect id="SVGID_1_" x="4.7" y="6.1" width="140" height="138.5"/>
		</defs>
		<clipPath id="SVGID_2_">
			<use xlink:href="#SVGID_1_"  style="overflow:visible;"/>
		</clipPath>
		<g class="st0">
			<defs>
				<rect id="SVGID_3_" x="4.7" y="6.1" width="140" height="138.5"/>
			</defs>
			<clipPath id="SVGID_4_">
				<use xlink:href="#SVGID_3_"  style="overflow:visible;"/>
			</clipPath>
			<path class="st1" d="M144.7,127.5v-1.4c-0.1,0-0.1,0-0.2,0c-0.1,0-0.3,0-0.4,0c-46.2,0-92.3,0-138.5,0c-0.8,0-0.7,0.1-0.7-0.7
				c0-33.4,0-66.9,0-100.3c0-0.9-0.1-0.8,0.8-0.8c46,0,92,0,138.1,0c0.2,0,0.5,0,0.7,0c0,0,0.1,0,0.1,0V23c0,0-0.1,0-0.1,0
				c-0.3,0-0.6,0-0.8,0c-45.9,0-91.8,0-137.8,0c-0.1,0-0.3,0-0.4,0C5,23,5,23,4.9,22.5c0-0.1,0-0.2,0-0.3c0-5,0-10,0-15
				c0-1.1-0.2-0.9,0.9-0.9c45.9,0,91.7,0,137.6,0c0.4,0,0.7,0,1.1,0c0.1,0,0.1,0,0.2,0c0,0,0.1-0.1-0.1-0.1c-0.2,0-0.3,0-0.5,0H4.7
				c0,46.2,0,92.3,0,138.5h139.4c0.1,0,0.3,0,0.4,0c0.3,0,0.1-0.2,0.1-0.3c0,0-0.1,0-0.1,0c-0.2,0-0.4,0-0.6,0
				c-46.1,0-92.2,0-138.3,0c-0.8,0-0.7,0-0.7-0.7c0-5.1,0-10.2,0-15.3c0-0.9,0-0.9,0.9-0.9c46,0,92,0,138,0c0.2,0,0.5,0,0.7,0
				C144.6,127.5,144.6,127.5,144.7,127.5"/>
			<path class="st2" d="M144.5,126.1c0.1,0,0.1,0,0.2,0V24.3c0,0-0.1,0-0.1,0c0,0.2,0,0.3,0,0.5c0,33.5,0,67,0,100.6
				C144.5,125.6,144.5,125.8,144.5,126.1"/>
			<path class="st2" d="M144.7,6.2c-0.1,0-0.1,0-0.2,0c0,0.1,0,0.3,0,0.4c0,5.4,0,10.9,0,16.3c0,0,0.1,0,0.1,0V6.2z"/>
			<path class="st2" d="M144.7,127.5c0,0-0.1,0-0.1,0c0,5.6,0,11.2,0,16.8c0,0,0.1,0,0.1,0V127.5z"/>
			<path class="st3" d="M144.5,126.1c0-0.2,0-0.5,0-0.7c0-33.5,0-67,0-100.6c0-0.2,0-0.3,0-0.5c-0.2,0-0.5,0-0.7,0
				c-46,0-92,0-138.1,0c-0.9,0-0.8-0.1-0.8,0.8c0,33.4,0,66.9,0,100.3c0,0.8-0.1,0.7,0.7,0.7c46.2,0,92.3,0,138.5,0
				C144.2,126.1,144.4,126.1,144.5,126.1 M74,27.3c12.7,0.2,23.8,4.5,32.9,13.3c9.5,9.2,14.5,20.5,14.7,33.8
				c0.2,13.3-4.5,24.9-13.9,34.3c-9.2,9.3-20.6,14-33.7,14c-12.8,0-23.9-4.5-33.1-13.4c-9.3-9-14.2-20-14.5-32.9
				C26,62.7,30.7,50.9,40.3,41.3C49.5,32,60.8,27.5,74,27.3"/>
			<path class="st4" d="M144.5,23c0-5.4,0-10.9,0-16.3c0-0.1,0-0.3,0-0.4c-0.4,0-0.7,0-1.1,0c-45.9,0-91.7,0-137.6,0
				c-1.1,0-0.9-0.2-0.9,0.9c0,5,0,10,0,15c0,0.1,0,0.2,0,0.3C5,23,5,23,5.5,23c0.1,0,0.3,0,0.4,0c45.9,0,91.8,0,137.8,0
				C144,23,144.2,23,144.5,23 M59.7,9.4c1.2,0,2.5,0,3.7,0.1c2,0.2,3.2,1.1,3.3,3.4c0,1.2,0,2.4,0,3.6c-0.1,1.7-0.7,2.5-1.9,2.9
				c-0.5,0.2-1.1,0.3-1.6,0.3c-2,0.1-4.1,0-6.1,0c-0.7,0-1.4-0.1-2.1-0.3c-1.3-0.4-2-1.2-2.1-2.6c-0.1-1.6-0.1-3.1,0-4.7
				c0.1-1.4,0.9-2.3,2.3-2.6c0.7-0.2,1.4-0.2,2.1-0.2C58.1,9.4,58.9,9.4,59.7,9.4 M89.9,19.8L89.9,19.8c-0.7,0-1.3,0-2,0
				c-0.8,0-1.5,0-2.3-0.2c-1.3-0.2-1.9-1-2-2.3c0-0.2,0-0.5,0-0.7c0-0.3,0.1-0.4,0.4-0.4c0.7,0,1.5,0,2.2,0c0.5,0,0.5,0,0.6,0.5
				c0.1,0.3,0.2,0.5,0.5,0.6c0.2,0.1,0.5,0.1,0.7,0.1c1.1,0,2.2,0,3.4,0c0.2,0,0.4,0,0.6,0c0.2,0,0.3,0,0.5-0.1
				c0.5-0.2,0.7-0.4,0.7-0.8c0-0.4-0.2-0.7-0.8-0.8c-0.5-0.1-1.1-0.1-1.6-0.1c-1,0-2,0-3.1,0c-0.8,0-1.7-0.1-2.5-0.3
				c-0.8-0.2-1.4-0.7-1.5-1.5c-0.1-0.8-0.1-1.7,0-2.5c0.1-0.8,0.6-1.4,1.4-1.6c0.8-0.3,1.7-0.3,2.5-0.4c1.5,0,3.1,0,4.6,0
				c0.7,0,1.4,0.1,2.1,0.3c1.1,0.3,1.7,1.1,1.7,2.2c0,0.2,0,0.3,0,0.5c0,0.3-0.1,0.4-0.4,0.4c-0.8,0-1.6,0-2.4,0
				c-0.3,0-0.4-0.1-0.4-0.4c0-0.4-0.3-0.5-0.6-0.6c-0.2,0-0.4-0.1-0.6-0.1c-1.3,0-2.5,0-3.8,0c-0.2,0-0.4,0-0.6,0.1
				c-0.3,0.1-0.5,0.4-0.5,0.7c0,0.4,0.1,0.5,0.5,0.7c0.4,0.1,0.7,0.1,1.1,0.1c1.7,0,3.4,0,5.1,0.1c0.5,0,0.9,0.1,1.4,0.3
				c0.7,0.2,1.1,0.7,1.3,1.4c0.2,0.9,0.2,1.8,0.1,2.8c-0.1,0.9-0.7,1.4-1.5,1.6c-0.5,0.2-1.1,0.2-1.7,0.3
				C92.1,19.8,91,19.8,89.9,19.8 M75,19.8L75,19.8c-0.8,0-1.6,0.1-2.4,0c-0.8,0-1.6,0-2.3-0.3c-0.7-0.2-1.2-0.7-1.4-1.5
				c-0.1-0.5-0.1-1-0.1-1.4c0-0.2,0.1-0.3,0.3-0.3c0.8,0,1.7,0,2.5,0c0.2,0,0.3,0.1,0.3,0.3c0,0.7,0.4,0.8,0.9,0.8
				c0.1,0,0.2,0,0.3,0c1.3,0,2.6,0,3.9,0c0.3,0,0.5,0,0.7-0.1c0.3-0.1,0.5-0.4,0.5-0.7c0-0.4-0.1-0.6-0.5-0.7
				c-0.1,0-0.2-0.1-0.3-0.1c-0.5,0-1.1-0.1-1.6-0.1c-1,0-2,0-3,0c-0.9,0-1.7-0.1-2.6-0.3c-0.8-0.2-1.3-0.7-1.4-1.5
				c-0.1-0.8-0.1-1.7,0-2.5c0.1-0.9,0.7-1.4,1.5-1.7c0.8-0.3,1.7-0.3,2.5-0.3c1.5,0,3,0,4.5,0c0.8,0,1.6,0.1,2.4,0.3
				c0.8,0.3,1.2,0.8,1.4,1.6c0.1,0.4,0.1,0.8,0.1,1.1c0,0.2-0.1,0.3-0.3,0.3c-0.8,0-1.7,0-2.5,0c-0.2,0-0.3-0.1-0.3-0.3
				c0-0.5-0.3-0.6-0.7-0.7c-0.1,0-0.3,0-0.4,0c-1.3,0-2.5,0-3.8,0c-0.2,0-0.4,0-0.6,0.1c-0.4,0.2-0.5,0.4-0.5,0.7
				c0,0.3,0.2,0.5,0.5,0.6c0.3,0.1,0.7,0.1,1,0.1c1.6,0,3.2,0,4.8,0.1c0.5,0,1.1,0.1,1.6,0.3c0.9,0.2,1.4,0.9,1.5,1.8
				c0.1,0.7,0.1,1.5,0,2.2c-0.1,1.1-0.7,1.6-1.7,1.9c-0.5,0.1-1,0.2-1.5,0.2C77.2,19.8,76.1,19.8,75,19.8 M48.9,15.7
				c1.2,0.3,1.5,1.1,1.6,2c0,0.6,0,1.1,0,1.7c0,0.2-0.1,0.3-0.3,0.3c-0.8,0-1.7,0-2.5,0c-0.2,0-0.3-0.1-0.3-0.3c0-0.5,0.1-1-0.1-1.5
				c-0.2-0.6-0.3-0.8-0.9-0.8c-1.5,0-3.1,0-4.6,0c-0.4,0-0.4,0.1-0.4,0.5c0,0.6,0,1.2,0,1.8c0,0.3-0.1,0.4-0.4,0.4
				c-0.8,0-1.5,0-2.3,0c-0.6,0-0.5,0-0.5-0.6c0-3,0-6,0-9c0-0.1,0-0.2,0-0.3c0-0.2,0.1-0.3,0.3-0.3c0.1,0,0.3,0,0.4,0
				c2.8,0,5.6,0,8.4,0c0.4,0,0.8,0,1.2,0.1c1.1,0.2,1.8,0.8,2,1.9c0.2,0.7,0.1,1.3,0.1,2C50.5,14.6,50.1,15.4,48.9,15.7 M122.9,15.7
				c0.1,0.1,0.2,0.1,0.3,0.2c0.8,0.3,1.1,0.9,1.1,1.7c0,0.6,0,1.2,0,1.8c0,0.2-0.1,0.3-0.3,0.3c-0.8,0-1.7,0-2.5,0
				c-0.3,0-0.4-0.1-0.4-0.4c0-0.4,0-0.8,0-1.3c0-0.6-0.3-0.9-0.9-0.9c-1.6,0-3.1,0-4.7,0c-0.3,0-0.4,0.1-0.4,0.4c0,0.6,0,1.2,0,1.8
				c0,0.2-0.1,0.3-0.3,0.3c-0.8,0-1.7,0-2.5,0c-0.3,0-0.3-0.1-0.3-0.3c0-0.1,0-0.2,0-0.3c0-3,0-6,0-9c0-0.1,0-0.3,0-0.4
				c0-0.1,0.1-0.2,0.2-0.2c0.1,0,0.3,0,0.4,0c2.9,0,5.9,0,8.8,0c0.4,0,0.8,0.1,1.2,0.1c1,0.2,1.6,0.9,1.8,1.9
				c0.1,0.6,0.1,1.2,0.1,1.8C124.3,14.5,124.1,15.4,122.9,15.7 M104.3,19.7c-1.7,0-3.4,0-5.1,0c-0.6,0-0.6,0.1-0.6-0.5v-0.1
				c0-3,0-6,0-9c0-0.1,0-0.3,0-0.4c0-0.1,0.1-0.2,0.2-0.2c0.1,0,0.3,0,0.4,0c3.2,0,6.5,0,9.7,0c0.1,0,0.3,0,0.4,0
				c0.2,0,0.3,0.1,0.3,0.3c0,0.6,0,1.2,0,1.8c0,0.2-0.1,0.3-0.3,0.3c-0.1,0-0.3,0-0.4,0c-2.2,0-4.5,0-6.7,0c-0.3,0-0.5,0.1-0.4,0.4
				c0,0.2,0,0.5,0,0.7c0,0.3,0.1,0.4,0.4,0.4c1.1,0,2.2,0,3.4,0c1.1,0,2.2,0,3.3,0c0.3,0,0.4,0.1,0.4,0.4c0,0.4,0,0.8,0,1.1
				c0,0.6,0.1,0.6-0.6,0.6c-1.9,0-3.9,0-5.8,0c-0.4,0-0.8-0.2-1,0.1c-0.2,0.2-0.1,0.7-0.1,1c0,0.5,0,0.5,0.5,0.5c1.9,0,3.7,0,5.6,0
				c0.6,0,1.1,0,1.7,0c0.3,0,0.4,0.1,0.4,0.4c0,0.5,0,1,0,1.5c0,0.5,0,0.5-0.5,0.5C107.8,19.7,106.1,19.7,104.3,19.7 M137.3,19.7
				c-1.3,0-2.6,0-3.9,0c-0.5,0-0.9,0-1.4,0c-0.2,0-0.4-0.1-0.3-0.3c0-0.1,0-0.3,0-0.4v-8.8c0-0.1,0-0.1,0-0.2c0-0.5,0-0.5,0.5-0.5
				c0.1,0,0.2,0,0.3,0c2.9,0,5.9,0,8.8,0c0.4,0,0.7,0,1.1,0c0.2,0,0.4,0.1,0.4,0.3c0,0.6,0,1.2,0,1.8c0,0.3-0.1,0.3-0.3,0.3
				c-0.1,0-0.3,0-0.4,0c-2.2,0-4.5,0-6.7,0c-0.5,0-0.5,0-0.5,0.5c0,0.2,0,0.4,0,0.6c0,0.4,0.1,0.4,0.4,0.4c0.8,0,1.6,0,2.4,0
				c1.4,0,2.8,0,4.2,0c0.5,0,0.5,0,0.5,0.5c0,0.3,0,0.6,0,0.8c0,0.8,0,0.8-0.9,0.8c-2.1,0-4.2,0-6.2,0c-0.5,0-0.5,0-0.5,0.5
				c0,0.3,0,0.5,0,0.8c0,0.3,0.1,0.4,0.4,0.4c0.5,0,1,0,1.5,0c1.9,0,3.8,0,5.7,0c0.5,0,0.5,0,0.5,0.5c0,0.5,0,0.9,0,1.4
				c0,0.6,0,0.6-0.5,0.6C140.7,19.7,139,19.7,137.3,19.7 M21.6,19.7c-0.1-0.2,0-0.2,0-0.3c0.6-1.2,1.3-2.3,1.9-3.5
				c1.1-2,2.2-4,3.2-6c0.2-0.3,0.3-0.4,0.7-0.4c1,0,2,0,2.9,0c0.5,0,0.8,0.2,1,0.6c1.6,3,3.3,6,5,9.1c0.1,0.1,0.2,0.3,0.1,0.5
				c-1.1,0-2.1,0-3.2,0c-0.2,0-0.3-0.1-0.3-0.3c-0.2-0.4-0.4-0.8-0.6-1.2c-0.1-0.2-0.3-0.4-0.6-0.4c-1.8,0-3.6,0-5.5,0
				c-0.3,0-0.4,0.1-0.5,0.3c-0.1,0.3-0.3,0.6-0.4,0.9c-0.2,0.4-0.4,0.6-0.9,0.5c-0.6,0-1.1,0-1.7,0H21.6z M20.2,19.6
				c0,0,0,0.1,0,0.1c-1.4,0-2.7,0-4.1,0c-0.2,0-0.3-0.1-0.5-0.3c-1.1-1-2.3-2-3.4-3c-0.5-0.4-0.9-0.8-1.6-0.7
				c-0.5,0.1-0.5,0-0.5,0.6c0,1,0,1.9,0,2.9c0,0.3-0.1,0.4-0.4,0.4c-0.7,0-1.5,0-2.2,0c-0.5,0-0.5,0-0.5-0.5c0-2.3,0-4.7,0-7
				c0-0.8,0-1.5,0-2.3c0-0.3,0.1-0.4,0.4-0.4c0.7,0,1.5,0,2.2,0c0.4,0,0.4,0,0.4,0.5c0,0.8,0,1.7,0,2.5c0,0.8-0.1,0.7,0.7,0.7
				c0.5,0,0.8-0.1,1.2-0.5c1-1,2.1-2,3.1-3c0.2-0.2,0.4-0.3,0.7-0.3c1.1,0,2.2,0,3.3,0c0.1,0,0.3-0.1,0.4,0.1
				c-1.8,1.6-3.5,3.2-5.4,4.9C16.2,16.3,18.2,17.9,20.2,19.6 M129.6,14.6c0,1.5,0,3.1,0,4.6c0,0.5,0,0.5-0.4,0.5c-0.8,0-1.5,0-2.3,0
				c-0.4,0-0.4,0-0.4-0.5c0-1.5,0-2.9,0-4.4c0-1.6,0-3.2,0-4.8c0-0.5,0-0.5,0.5-0.5c0.7,0,1.5,0,2.2,0c0.5,0,0.5,0,0.5,0.5
				C129.6,11.6,129.6,13.1,129.6,14.6"/>
			<path class="st5" d="M144.5,144.3c0-5.6,0-11.2,0-16.8c-0.2,0-0.5,0-0.7,0c-46,0-92,0-138,0c-0.9,0-0.9,0-0.9,0.9
				c0,5.1,0,10.2,0,15.3c0,0.7-0.1,0.7,0.7,0.7c46.1,0,92.2,0,138.3,0C144.1,144.3,144.3,144.3,144.5,144.3 M140.9,135.7
				c0.8,0.2,1.3,0.6,1.4,1.3c0.2,0.7,0.2,1.5,0,2.2c-0.2,0.7-0.6,1.1-1.3,1.4c-0.5,0.2-1,0.2-1.5,0.2c-3.1,0-6.3,0-9.4,0
				c-0.1,0-0.3,0-0.4,0c-0.2,0-0.2-0.1-0.2-0.2c0-0.1,0-0.3,0-0.4c0-2.9,0-5.9,0-8.8c0-0.1,0-0.3,0-0.4c0-0.2,0.1-0.3,0.3-0.3
				c0.1,0,0.3,0,0.4,0c2.8,0,5.6,0,8.5,0c0.6,0,1.1,0,1.6,0.2c0.7,0.2,1.3,0.4,1.6,1.1c0.4,0.8,0.4,1.7,0.2,2.5
				C141.8,135.1,141.4,135.4,140.9,135.7 M71.2,135.7c1,0.2,1.5,0.7,1.7,1.6c0.1,0.5,0.1,1.1,0,1.6c-0.2,1-0.7,1.6-1.7,1.8
				c-0.4,0.1-0.8,0.1-1.2,0.1c-3.1,0-6.2,0-9.3,0c-0.1,0-0.3,0-0.4,0c-0.2,0-0.4-0.1-0.3-0.3c0-0.1,0-0.2,0-0.3c0-3,0-5.9,0-8.9
				c0-0.1,0-0.3,0-0.4c0-0.2,0.1-0.2,0.2-0.2c0.1,0,0.3,0,0.4,0c2.8,0,5.6,0,8.5,0c0.6,0,1.1,0,1.6,0.2c0.8,0.2,1.4,0.5,1.7,1.3
				c0.3,0.9,0.3,1.7,0,2.6C72.2,135.2,71.8,135.5,71.2,135.7 M109.5,136.9c1,0.2,1.5,0.8,1.5,1.7c0.1,0.7,0,1.4,0,2.1
				c0,0.2-0.1,0.2-0.3,0.2c-0.8,0-1.7,0-2.5,0c-0.2,0-0.3-0.1-0.3-0.3c0-0.4,0-0.8,0-1.1c0-0.8-0.4-1.1-1.2-1.2c-1.5,0-3,0-4.5,0
				c-0.3,0-0.5,0.1-0.4,0.4c0,0.6,0,1.2,0,1.8c0,0.2,0,0.4-0.3,0.4c-0.9,0-1.7,0-2.6,0c-0.2,0-0.3-0.1-0.3-0.3c0-0.1,0-0.3,0-0.4
				c0-3,0-5.9,0-8.9c0-0.1,0-0.2,0-0.3c0-0.2,0.1-0.3,0.3-0.3c0.1,0,0.3,0,0.4,0c2.9,0,5.8,0,8.7,0c0.3,0,0.6,0,0.9,0
				c1.4,0.2,2.1,1,2.2,2.3c0,0.4,0,0.8,0,1.2C111.1,135.4,110.9,136.4,109.5,136.9 M79.7,140.9h-1.8c-1.1,0-2.3,0-3.4,0
				c-0.4,0-0.4,0-0.5-0.5c0-0.1,0-0.2,0-0.3c0-2.9,0-5.9,0-8.8c0-0.1,0-0.3,0-0.4c0-0.2,0.1-0.3,0.3-0.3c0.1,0,0.3,0,0.4,0h9.8
				c0.1,0,0.2,0,0.3,0c0.3,0,0.4,0.1,0.4,0.4c0,0.5,0,1,0,1.5c0,0.5,0,0.5-0.5,0.5c-2.1,0-4.2,0-6.4,0c-0.4,0-0.8-0.2-1,0.1
				c-0.2,0.2-0.1,0.7-0.1,1c0,0.5,0,0.5,0.5,0.5c1.1,0,2.2,0,3.4,0c1.1,0,2.1,0,3.2,0c0.4,0,0.4,0,0.4,0.5c0,0.4,0,0.8,0,1.1
				c0,0.5,0,0.5-0.5,0.5c-2,0-3.9,0-5.9,0c-1.2,0-1.2,0-1.1,1.1c0,0.4,0,0.4,0.5,0.4c0.7,0,1.4,0,2,0c1.7,0,3.4,0,5,0
				c0.6,0,0.6,0,0.6,0.6c0,0.5,0,1,0,1.5c0,0.5,0,0.5-0.5,0.5C83,140.9,81.3,140.9,79.7,140.9 M122.8,140.9h-2c-1.1,0-2.2,0-3.3,0
				c-0.4,0-0.4,0-0.5-0.5c0-0.1,0-0.2,0-0.3v-8.8c0-0.1,0-0.3,0-0.4c0-0.2,0.1-0.3,0.3-0.3c0.1,0,0.3,0,0.4,0h9.8c0.1,0,0.2,0,0.3,0
				c0.3,0,0.4,0.1,0.4,0.4c0,0.5,0,1,0,1.5c0,0.5,0,0.5-0.5,0.5c-2.1,0-4.2,0-6.4,0c-0.3,0-0.8-0.2-1,0.1c-0.2,0.2-0.1,0.7-0.1,1
				c0,0.5,0,0.5,0.5,0.5c1,0,2.1,0,3.1,0c1.1,0,2.2,0,3.4,0c0.5,0,0.5,0,0.5,0.5c0,0.4,0,0.7,0,1.1c0,0.5,0,0.5-0.5,0.5
				c-2,0-3.9,0-5.9,0c-1.2,0-1.2,0-1.1,1.1c0,0.4,0,0.4,0.5,0.4c0.7,0,1.4,0,2,0c1.7,0,3.4,0,5,0c0.6,0,0.6-0.1,0.6,0.6
				c0,0.5,0,0.9,0,1.4c0,0.5,0,0.5-0.5,0.5C126.2,140.9,124.5,140.9,122.8,140.9 M38.6,130.6c1,0,2,0,3,0c0.7,0,1.4,0.1,2.1,0.4
				c0.7,0.3,1.2,0.8,1.4,1.5c0.1,0.5,0.2,1,0.2,1.6c0,0.3-0.1,0.3-0.3,0.3c-0.8,0-1.6,0-2.4,0c-0.3,0-0.4-0.1-0.4-0.4
				c0-0.4-0.3-0.6-0.7-0.7c-0.3-0.1-0.5-0.1-0.8-0.1c-1,0-2.1,0-3.1,0c-0.2,0-0.5,0-0.7,0c-0.8,0.1-1.2,0.5-1.3,1.3
				c-0.1,0.7-0.1,1.4-0.1,2.1c0.1,1.3,0.5,1.7,1.8,1.7c1.1,0,2.2,0,3.4,0c0.2,0,0.3,0,0.5,0c0.8-0.1,1-0.2,1.1-1.1
				c0-0.2,0.1-0.3,0.3-0.3c0.9,0,1.7,0,2.6,0c0.2,0,0.3,0.1,0.3,0.3c0,0.4,0,0.8,0,1.2c-0.2,1.1-0.4,1.9-2,2.4
				c-0.6,0.1-1.1,0.2-1.7,0.2c-1.7,0-3.3,0-5,0c-0.7,0-1.5-0.1-2.2-0.2c-1.2-0.3-2-1-2.2-2.2c-0.3-1.7-0.2-3.5-0.1-5.3
				c0.1-1.2,0.8-2,2-2.4c0.5-0.2,1-0.2,1.5-0.3C36.7,130.6,37.6,130.6,38.6,130.6 M45.9,135.8c0-1.5,0-3.1,0-4.6
				c0-0.6,0-0.5,0.6-0.5c0.7,0,1.3,0,2,0c0.6,0,0.6,0,0.6,0.6c0,0.9,0,1.7,0,2.6c0,0.3,0.1,0.4,0.4,0.4c1.9,0,3.8,0,5.7,0
				c0.3,0,0.4-0.1,0.4-0.4c0-0.9,0-1.8,0-2.7c0-0.5,0-0.5,0.4-0.5c0.8,0,1.5,0,2.3,0c0.4,0,0.4,0,0.4,0.5c0,1.8,0,3.6,0,5.4
				c0,1.3,0,2.6,0,3.9c0,0.3-0.1,0.5-0.4,0.4c-0.8,0-1.6,0-2.4,0c-0.4,0-0.4-0.1-0.4-0.4c0-1,0-2,0-2.9c0-0.4,0-0.4-0.5-0.4
				c-1.8,0-3.7,0-5.5,0c-0.5,0-0.5,0-0.5,0.5c0,0.9,0,1.8,0,2.7c0,0.6,0,0.5-0.6,0.5c-0.7,0-1.4,0-2,0c-0.5,0-0.5,0-0.5-0.5
				C45.9,138.8,45.9,137.3,45.9,135.8 M17.2,140.9c0.1-0.3,0.2-0.5,0.4-0.8c1.6-3,3.3-6,4.9-9c0.2-0.3,0.4-0.4,0.7-0.4c1,0,2,0,3,0
				c0.5,0,0.7,0.2,1,0.6c1.6,3,3.3,6,4.9,9c0.1,0.2,0.3,0.3,0.2,0.6c-1,0-2,0-3,0c-0.2,0-0.4-0.1-0.5-0.3c-0.2-0.4-0.5-0.8-0.7-1.2
				c-0.1-0.2-0.2-0.3-0.4-0.3c-1.9,0-3.7,0-5.6,0c-0.3,0-0.4,0.1-0.5,0.3c-0.2,0.4-0.4,0.7-0.6,1.1c-0.1,0.2-0.2,0.3-0.5,0.3
				C19.4,140.8,18.4,140.9,17.2,140.9 M12.7,130.7h0.4c1.5,0,2.9,0,4.4,0c0.3,0,0.5,0.1,0.4,0.4c0,0.5,0,1.1,0,1.6
				c0,0.4,0,0.5-0.4,0.5c-1.9,0-3.8,0-5.7,0c-0.3,0-0.7,0-1,0c-0.2,0-0.3,0.1-0.3,0.3c0,0.4,0,0.8,0,1.2c0,0.3,0.1,0.4,0.4,0.4
				c0.5,0,1,0,1.5,0c1.6,0,3.2,0,4.8,0c0.3,0,0.5,0,0.5,0.4c0,0.5,0,1.1,0,1.7c0,0.3-0.1,0.4-0.4,0.4c-0.1,0-0.3,0-0.4,0
				c-1.9,0-3.9,0-5.8,0c-0.5,0-0.5,0-0.5,0.5c0,0.8,0,1.7,0,2.5c0,0.5,0,0.5-0.5,0.5c-0.7,0-1.4,0-2.2,0c-0.5,0-0.5,0-0.5-0.5
				c0-3.1,0-6.1,0-9.2c0-0.5,0-0.5,0.5-0.5C9.5,130.7,11.1,130.7,12.7,130.7 M91.7,130.7h3.1c0.8,0,1.7,0,2.5,0
				c0.3,0,0.4,0.1,0.4,0.4c0,0.6,0,1.3,0,1.9c0,0.3-0.1,0.3-0.3,0.3c-0.1,0-0.3,0-0.4,0c-1.1,0-2.1,0-3.2,0c-0.3,0-0.4,0.1-0.4,0.4
				c0,0.3,0,0.5,0,0.8c0,2,0,4,0,6c0,0.5,0,0.5-0.5,0.5c-0.7,0-1.4,0-2.2,0c-0.5,0-0.5,0-0.5-0.5c0-2.1,0-4.2,0-6.4
				c0-0.1,0-0.3,0-0.4c0-0.2-0.1-0.3-0.3-0.3c-0.1,0-0.3,0-0.4,0c-1.1,0-2.2,0-3.2,0c-0.3,0-0.4-0.1-0.4-0.4c0-0.6,0-1.2,0-1.8
				c0-0.4,0-0.4,0.5-0.4C88.1,130.7,89.9,130.7,91.7,130.7 M115.7,135.8c0,1.5,0,3.1,0,4.6c0,0.5,0,0.5-0.5,0.5c-0.7,0-1.5,0-2.2,0
				c-0.3,0-0.4-0.1-0.4-0.4c0-3.1,0-6.2,0-9.3c0-0.4,0.1-0.4,0.4-0.4c0.8,0,1.5,0,2.3,0c0.4,0,0.5,0,0.5,0.5
				C115.7,132.7,115.7,134.2,115.7,135.8"/>
			<path class="st6" d="M74,27.3c-13.1,0.2-24.4,4.7-33.7,14C30.7,50.9,26,62.7,26.4,76.3c0.4,12.9,5.3,23.9,14.5,32.9
				c9.2,8.9,20.3,13.4,33.1,13.4c13.1,0,24.4-4.7,33.7-14c9.4-9.4,14.1-21,13.9-34.3c-0.2-13.2-5.1-24.6-14.7-33.8
				C97.7,31.8,86.6,27.5,74,27.3 M47.5,85.9c-0.1,0.2,0,0.4,0,0.6c0,2.8,0,5.7,0,8.5c0,0.7-0.3,1.2-0.9,1.7
				c-0.6,0.5-1.3,0.7-2.1,0.7c-2,0-3.9,0-5.9,0c-0.7,0-1.3-0.2-1.7-0.8c-0.2-0.4-0.4-0.8-0.5-1.3c-0.1-0.5-0.1-1-0.1-1.5
				c-0.1-1.5-0.2-3.1-0.2-4.6c-0.1-1.2-0.1-2.3-0.1-3.5c0-0.4,0-0.8,0-1.3c0-0.3,0-0.6-0.5-0.6c-0.4,0-0.7-0.3-1-0.7
				c-0.3-0.3-0.5-0.7-0.7-1.1c-0.6-1.4-0.8-2.9-0.9-4.4c-0.1-1.6,0-3.2,0-4.8c0-1.9,0.2-3.8,0.5-5.7c0.3-1.7,1-3.2,2.6-4.2
				c0.2-0.1,0.3-0.3,0.3-0.5c0.6-1.5,1.1-3,1.5-4.5c0.4-1.4,0.7-2.9,1.3-4.2c1-2.5,2.7-4.5,5.2-5.7c1.5-0.7,3-1,4.6-1.3
				c2.3-0.4,4.7-0.7,7.1-1.1c2.4-0.3,4.9-0.6,7.3-0.8c1.7-0.2,3.5-0.3,5.2-0.4c1.9-0.1,3.8-0.3,5.6-0.2c1.1,0,2.3,0,3.4,0.1
				c1.1,0.1,2.3,0.1,3.4,0.2c1.9,0.1,3.9,0.3,5.8,0.5c2.5,0.3,5,0.6,7.5,1c2.4,0.4,4.7,0.7,7,1.3c2.7,0.7,4.9,2.1,6.4,4.5
				c0.7,1.2,1.3,2.5,1.6,3.8c0.6,2.1,1.2,4.2,1.9,6.3c0.2,0.6,0.4,1.1,1.1,1.3c0.1,0,0.1,0.1,0.2,0.1c0.7,0.5,1,1.2,1.2,1.9
				c0.4,1.3,0.7,2.7,0.8,4c0.1,1.1,0.2,2.3,0.2,3.4c0.1,2.3,0.1,4.7-0.3,7c-0.2,1.2-0.5,2.3-1.1,3.3c-0.3,0.5-0.7,0.9-1.3,1
				c-0.3,0-0.3,0.2-0.3,0.3c0,1.8-0.1,3.6-0.2,5.4c-0.1,1.2-0.1,2.3-0.1,3.5c0,0.7,0,1.4-0.1,2.1c-0.2,1.1-0.6,2.2-2.2,2.2
				c-2.2,0-4.4,0.1-6.5-0.1c-1.2-0.1-2.3-1.2-2.3-2.4c0-0.4,0.1-0.8,0.1-1.3c0-2.5,0-5-0.1-7.4c0,0,0-0.1,0-0.1
				c0-0.2-0.1-0.3-0.3-0.2c-0.1,0-0.2,0-0.3,0c-2,0.1-4,0.1-6,0.2c-1.2,0.1-2.4,0.1-3.6,0.1c-1.3,0.1-2.6,0.1-3.9,0.1
				c-1.4,0.1-2.9,0.1-4.3,0.1c-1.3,0.1-2.7,0-4,0.1c-0.2,0-0.3,0-0.5,0c-1.2,0.2-2.5,0.1-3.7,0.1c-1.3,0-2.5,0-3.8-0.1
				c-1.6-0.1-3.3-0.1-4.9-0.1c-1.8-0.1-3.6-0.1-5.4-0.1c-1.4,0-2.7-0.1-4.1-0.1c-1.9-0.1-3.8-0.2-5.6-0.2
				C49.2,85.9,48.3,85.9,47.5,85.9"/>
			<path class="st7" d="M59.7,9.4c-0.8,0-1.7,0-2.5,0c-0.7,0-1.4,0.1-2.1,0.2c-1.4,0.4-2.1,1.2-2.3,2.6c-0.1,1.6-0.1,3.1,0,4.7
				c0.1,1.4,0.9,2.2,2.1,2.6c0.7,0.2,1.4,0.3,2.1,0.3c2,0,4.1,0.1,6.1,0c0.6,0,1.1-0.1,1.6-0.3c1.2-0.5,1.8-1.2,1.9-2.9
				c0-1.2,0-2.4,0-3.6c0-2.3-1.2-3.2-3.3-3.4C62.2,9.4,61,9.4,59.7,9.4 M59.8,17.2c-0.7,0-1.4,0-2.1,0c0,0-0.1,0-0.1,0
				c-1-0.1-1.4-0.4-1.5-1.4c-0.1-0.6,0-1.1,0-1.7c0-1.4,0.5-1.9,2-2c0.1,0,0.1,0,0.2,0c1.1,0,2.1,0,3.2,0c0.3,0,0.6,0,0.9,0.1
				c0.6,0.1,1,0.5,1.1,1.2c0.1,0.9,0.1,1.8,0,2.7c-0.1,0.6-0.4,1-1.1,1.1c-0.2,0-0.5,0-0.7,0C61,17.2,60.4,17.2,59.8,17.2"/>
			<path class="st7" d="M89.9,19.8c1.1,0,2.2,0,3.3,0c0.6,0,1.1-0.1,1.7-0.3c0.8-0.2,1.4-0.8,1.5-1.6c0.1-0.9,0.2-1.9-0.1-2.8
				c-0.2-0.7-0.6-1.1-1.3-1.4c-0.4-0.2-0.9-0.2-1.4-0.3c-1.7-0.2-3.4-0.1-5.1-0.1c-0.4,0-0.8,0-1.1-0.1c-0.4-0.1-0.5-0.3-0.5-0.7
				c0-0.3,0.2-0.6,0.5-0.7c0.2-0.1,0.4-0.1,0.6-0.1c1.3,0,2.5,0,3.8,0c0.2,0,0.4,0,0.6,0.1c0.3,0.1,0.6,0.2,0.6,0.6
				c0,0.3,0.1,0.4,0.4,0.4c0.8,0,1.6,0,2.4,0c0.3,0,0.4-0.1,0.4-0.4c0-0.2,0-0.3,0-0.5c0-1.2-0.6-1.9-1.7-2.2
				c-0.7-0.2-1.4-0.2-2.1-0.3c-1.5,0-3.1,0-4.6,0c-0.8,0-1.7,0.1-2.5,0.4c-0.8,0.3-1.3,0.8-1.4,1.6c-0.1,0.8-0.1,1.7,0,2.5
				c0.1,0.9,0.7,1.3,1.5,1.5c0.8,0.2,1.7,0.3,2.5,0.3c1,0,2,0,3.1,0c0.5,0,1.1,0.1,1.6,0.1c0.5,0.1,0.8,0.3,0.8,0.8
				c0,0.4-0.2,0.6-0.7,0.8c-0.2,0.1-0.3,0.1-0.5,0.1c-0.2,0-0.4,0-0.6,0c-1.1,0-2.2,0-3.4,0c-0.2,0-0.5,0-0.7-0.1
				c-0.3-0.1-0.5-0.3-0.5-0.6c-0.1-0.5-0.1-0.5-0.6-0.5c-0.7,0-1.5,0-2.2,0c-0.3,0-0.4,0.1-0.4,0.4c0,0.2,0,0.5,0,0.7
				c0,1.3,0.7,2,2,2.3c0.8,0.1,1.5,0.2,2.3,0.2C88.6,19.9,89.2,19.9,89.9,19.8L89.9,19.8z"/>
			<path class="st7" d="M75,19.8c1.1,0,2.2,0,3.3,0c0.5,0,1-0.1,1.5-0.2c1.1-0.3,1.6-0.8,1.7-1.9c0.1-0.7,0.1-1.5,0-2.2
				c-0.1-0.9-0.6-1.6-1.5-1.8c-0.5-0.1-1.1-0.2-1.6-0.3c-1.6-0.1-3.2-0.1-4.8-0.1c-0.3,0-0.7,0-1-0.1C72.2,13.2,72,13,72,12.7
				c0-0.4,0.1-0.6,0.5-0.7c0.2-0.1,0.4-0.1,0.6-0.1c1.3,0,2.5,0,3.8,0c0.1,0,0.3,0,0.4,0c0.4,0.1,0.7,0.2,0.7,0.7
				c0,0.2,0.1,0.3,0.3,0.3c0.8,0,1.7,0,2.5,0c0.3,0,0.3-0.1,0.3-0.3c0-0.4,0-0.8-0.1-1.1c-0.2-0.8-0.6-1.3-1.4-1.6
				c-0.8-0.3-1.6-0.3-2.4-0.3c-1.5,0-3,0-4.5,0c-0.8,0-1.7,0-2.5,0.3c-0.8,0.3-1.3,0.8-1.5,1.7c-0.1,0.8-0.1,1.7,0,2.5
				c0.1,0.8,0.6,1.3,1.4,1.5c0.8,0.2,1.7,0.3,2.6,0.3c1,0,2,0,3,0c0.5,0,1.1,0.1,1.6,0.1c0.1,0,0.2,0,0.3,0.1
				c0.4,0.1,0.5,0.3,0.5,0.7c0,0.4-0.2,0.6-0.5,0.7c-0.2,0.1-0.5,0.1-0.7,0.1c-1.3,0-2.6,0-3.9,0c-0.1,0-0.2,0-0.3,0
				c-0.5-0.1-0.9-0.1-0.9-0.8c0-0.3-0.1-0.3-0.3-0.3c-0.8,0-1.7,0-2.5,0c-0.2,0-0.3,0.1-0.3,0.3c0,0.5,0,1,0.1,1.4
				c0.2,0.8,0.7,1.2,1.4,1.5c0.8,0.2,1.5,0.3,2.3,0.3C73.4,19.9,74.2,19.9,75,19.8L75,19.8z"/>
			<path class="st8" d="M48.9,15.7c1.2-0.4,1.6-1.1,1.6-2.2c0-0.7,0.1-1.4-0.1-2c-0.3-1.1-0.9-1.7-2-1.9c-0.4-0.1-0.8-0.1-1.2-0.1
				c-2.8,0-5.6,0-8.4,0c-0.1,0-0.3,0-0.4,0c-0.2,0-0.3,0.1-0.3,0.3c0,0.1,0,0.2,0,0.3c0,3,0,6,0,9c0,0.6-0.1,0.6,0.5,0.6
				c0.8,0,1.5,0,2.3,0c0.3,0,0.4-0.1,0.4-0.4c0-0.6,0-1.2,0-1.8c0-0.3,0.1-0.5,0.4-0.5c1.5,0,3.1,0,4.6,0c0.6,0,0.8,0.2,0.9,0.8
				c0.1,0.5,0,1,0.1,1.5c0,0.2,0.1,0.3,0.3,0.3c0.8,0,1.7,0,2.5,0c0.2,0,0.3-0.1,0.3-0.3c0-0.6,0-1.1,0-1.7
				C50.4,16.8,50.1,16,48.9,15.7 M44.1,12.2c0.8,0,1.6,0,2.3,0c0.7,0,1,0.3,1,1c0,0.2,0,0.3,0,0.5c-0.1,0.6-0.4,0.9-0.9,0.9
				c-1.6,0-3.3,0-4.9,0c-0.2,0-0.3-0.1-0.3-0.3c0-0.5,0-1.1,0-1.6c0-0.4,0.1-0.4,0.4-0.4C42.4,12.2,43.3,12.2,44.1,12.2"/>
			<path class="st8" d="M122.9,15.7c1.2-0.3,1.5-1.2,1.5-2.3c0-0.6,0-1.2-0.1-1.8c-0.2-1-0.8-1.7-1.8-1.9c-0.4-0.1-0.8-0.1-1.2-0.1
				c-2.9,0-5.9,0-8.8,0c-0.1,0-0.3,0-0.4,0c-0.2,0-0.2,0.1-0.2,0.2c0,0.1,0,0.3,0,0.4c0,3,0,6,0,9c0,0.1,0,0.2,0,0.3
				c0,0.2,0.1,0.3,0.3,0.3c0.8,0,1.7,0,2.5,0c0.2,0,0.3-0.1,0.3-0.3c0-0.6,0-1.2,0-1.8c0-0.3,0-0.4,0.4-0.4c1.6,0,3.1,0,4.7,0
				c0.6,0,0.9,0.3,0.9,0.9c0,0.4,0,0.8,0,1.3c0,0.3,0.1,0.4,0.4,0.4c0.8,0,1.7,0,2.5,0c0.2,0,0.3-0.1,0.3-0.3c0-0.6,0-1.2,0-1.8
				c0-0.8-0.3-1.4-1.1-1.7C123.1,15.8,123,15.8,122.9,15.7 M117.9,12.2c0.8,0,1.7,0,2.5,0c0.6,0,0.8,0.3,0.9,0.9c0,0.2,0,0.4,0,0.6
				c0,0.6-0.3,0.9-0.8,0.9c-1.7,0-3.3,0-5,0c-0.2,0-0.3-0.1-0.3-0.3c0-0.5,0-1.1,0-1.6c0-0.3,0.1-0.4,0.4-0.4
				C116.3,12.2,117.1,12.2,117.9,12.2"/>
			<path class="st9" d="M104.3,19.7c1.7,0,3.4,0,5.2,0c0.5,0,0.5,0,0.5-0.5c0-0.5,0-1,0-1.5c0-0.3-0.1-0.4-0.4-0.4
				c-0.6,0-1.1,0-1.7,0c-1.9,0-3.7,0-5.6,0c-0.5,0-0.5,0-0.5-0.5c0-0.4-0.2-0.8,0.1-1c0.2-0.2,0.7-0.1,1-0.1c1.9,0,3.9,0,5.8,0
				c0.7,0,0.6,0,0.6-0.6c0-0.4,0-0.8,0-1.1c0-0.3-0.1-0.4-0.4-0.4c-1.1,0-2.2,0-3.3,0c-1.1,0-2.2,0-3.4,0c-0.3,0-0.5-0.1-0.4-0.4
				c0-0.2,0-0.5,0-0.7c0-0.4,0.1-0.4,0.4-0.4c2.2,0,4.5,0,6.7,0c0.1,0,0.3,0,0.4,0c0.2,0,0.3-0.1,0.3-0.3c0-0.6,0-1.2,0-1.8
				c0-0.2-0.1-0.3-0.3-0.3c-0.1,0-0.3,0-0.4,0c-3.2,0-6.5,0-9.7,0c-0.1,0-0.3,0-0.4,0c-0.2,0-0.2,0.1-0.2,0.2c0,0.1,0,0.3,0,0.4
				c0,3,0,6,0,9v0.1c0,0.6,0,0.5,0.6,0.5C101,19.7,102.7,19.7,104.3,19.7"/>
			<path class="st10" d="M137.3,19.7c1.7,0,3.4,0,5.1,0c0.6,0,0.5,0,0.5-0.6c0-0.5,0-0.9,0-1.4c0-0.5,0-0.5-0.5-0.5
				c-1.9,0-3.8,0-5.7,0c-0.5,0-1,0-1.5,0c-0.3,0-0.4-0.1-0.4-0.4c0-0.3,0-0.5,0-0.8c0-0.5,0-0.5,0.5-0.5c2.1,0,4.2,0,6.2,0
				c0.9,0,0.9,0,0.9-0.8c0-0.3,0-0.6,0-0.8c0-0.5,0-0.5-0.5-0.5c-1.4,0-2.8,0-4.2,0c-0.8,0-1.6,0-2.4,0c-0.3,0-0.5-0.1-0.4-0.4
				c0-0.2,0-0.4,0-0.6c0-0.5,0-0.5,0.5-0.5c2.2,0,4.5,0,6.7,0c0.1,0,0.3,0,0.4,0c0.2,0,0.4-0.1,0.3-0.3c0-0.6,0-1.2,0-1.8
				c0-0.3-0.1-0.3-0.4-0.3c-0.4,0-0.7,0-1.1,0c-2.9,0-5.9,0-8.8,0c-0.1,0-0.2,0-0.3,0c-0.5,0-0.5,0-0.5,0.5c0,0.1,0,0.1,0,0.2V19
				c0,0.1,0,0.3,0,0.4c0,0.3,0.1,0.3,0.3,0.3c0.5,0,0.9,0,1.4,0C134.7,19.7,136,19.7,137.3,19.7"/>
			<path class="st9" d="M21.6,19.7h1.1c0.6,0,1.1,0,1.7,0c0.5,0,0.7-0.1,0.9-0.5c0.1-0.3,0.3-0.6,0.4-0.9C25.8,18,26,18,26.3,18
				c1.8,0,3.6,0,5.5,0c0.3,0,0.5,0.1,0.6,0.4c0.2,0.4,0.4,0.8,0.6,1.2c0.1,0.1,0.1,0.3,0.3,0.3c1.1,0,2.1,0,3.2,0
				c0.1-0.2-0.1-0.4-0.1-0.5c-1.7-3-3.3-6-5-9.1c-0.2-0.4-0.5-0.6-1-0.6c-1,0-1.9,0-2.9,0c-0.3,0-0.5,0.1-0.7,0.4
				c-1.1,2-2.1,4-3.2,6c-0.6,1.2-1.3,2.3-1.9,3.5C21.6,19.5,21.5,19.6,21.6,19.7 M29,12.1c0.7,1.3,1.3,2.5,1.9,3.7h-3.8
				C27.7,14.5,28.3,13.3,29,12.1"/>
			<path class="st9" d="M20.2,19.6c-2-1.7-4-3.3-6-5.1c1.8-1.6,3.6-3.2,5.4-4.9c-0.1-0.2-0.3-0.1-0.4-0.1c-1.1,0-2.2,0-3.3,0
				c-0.3,0-0.5,0.1-0.7,0.3c-1,1-2.1,2-3.1,3c-0.3,0.3-0.7,0.5-1.2,0.5c-0.9,0-0.7,0.1-0.7-0.7c0-0.8,0-1.7,0-2.5
				c0-0.5,0-0.5-0.4-0.5c-0.7,0-1.5,0-2.2,0C7,9.5,6.9,9.6,6.9,10c0,0.8,0,1.5,0,2.3c0,2.3,0,4.7,0,7c0,0.5,0,0.5,0.5,0.5
				c0.7,0,1.5,0,2.2,0c0.3,0,0.4-0.1,0.4-0.4c0-1,0-1.9,0-2.9c0-0.5,0-0.5,0.5-0.6c0.7-0.1,1.1,0.2,1.6,0.7c1.1,1,2.3,2,3.4,3
				c0.1,0.1,0.3,0.3,0.5,0.3c1.4,0,2.7,0,4.1,0C20.2,19.7,20.2,19.7,20.2,19.6"/>
			<path class="st7" d="M129.6,14.6c0-1.5,0-3.1,0-4.6c0-0.5,0-0.5-0.5-0.5c-0.7,0-1.5,0-2.2,0c-0.5,0-0.5,0-0.5,0.5
				c0,1.6,0,3.2,0,4.8c0,1.5,0,2.9,0,4.4c0,0.4,0,0.5,0.4,0.5c0.8,0,1.5,0,2.3,0c0.4,0,0.4,0,0.4-0.5
				C129.6,17.7,129.6,16.2,129.6,14.6"/>
			<path class="st7" d="M140.9,135.7c0.5-0.3,1-0.6,1.1-1.3c0.2-0.9,0.2-1.7-0.2-2.5c-0.3-0.7-1-0.9-1.6-1.1
				c-0.5-0.1-1.1-0.2-1.6-0.2c-2.8,0-5.6,0-8.5,0c-0.1,0-0.3,0-0.4,0c-0.2,0-0.3,0.1-0.3,0.3c0,0.1,0,0.3,0,0.4c0,2.9,0,5.9,0,8.8
				c0,0.1,0,0.3,0,0.4c0,0.2,0.1,0.2,0.2,0.2c0.1,0,0.3,0,0.4,0c3.1,0,6.3,0,9.4,0c0.5,0,1-0.1,1.5-0.2c0.7-0.2,1.1-0.7,1.3-1.4
				c0.2-0.7,0.2-1.5,0-2.2C142.1,136.3,141.6,135.9,140.9,135.7 M135.6,136.8c0.8,0,1.6,0,2.4,0c0.2,0,0.5,0,0.7,0.1
				c0.3,0.1,0.5,0.4,0.5,0.7c0,0.3-0.2,0.6-0.6,0.7c-0.2,0-0.5,0-0.7,0c-1.4,0-2.9,0-4.3,0c-1.1,0-1.1,0-1-1.1
				c0-0.3,0.1-0.4,0.4-0.4C133.9,136.8,134.7,136.8,135.6,136.8 M135.6,134.7h-2c-1,0-1,0-1-1c0-0.5,0-0.5,0.5-0.5
				c1.6,0,3.1,0,4.7,0c0.2,0,0.4,0.1,0.6,0.1c0.3,0.1,0.5,0.3,0.5,0.6c0,0.5-0.2,0.8-0.7,0.8C137.3,134.7,136.4,134.7,135.6,134.7"
				/>
			<path class="st7" d="M71.2,135.7c0.6-0.3,1-0.5,1.2-1c0.3-0.9,0.3-1.8,0-2.6c-0.3-0.8-1-1.1-1.7-1.3c-0.5-0.1-1.1-0.2-1.6-0.2
				c-2.8,0-5.6,0-8.5,0c-0.1,0-0.3,0-0.4,0c-0.2,0-0.2,0.1-0.2,0.2c0,0.1,0,0.3,0,0.4c0,3,0,5.9,0,8.9c0,0.1,0,0.2,0,0.3
				c0,0.2,0.1,0.3,0.3,0.3c0.1,0,0.3,0,0.4,0c3.1,0,6.2,0,9.3,0c0.4,0,0.8-0.1,1.2-0.1c1-0.2,1.6-0.8,1.7-1.8c0.1-0.5,0.1-1.1,0-1.6
				C72.7,136.4,72.2,135.9,71.2,135.7 M66.1,138.3h-2c-1.1,0-1.1,0-1-1.1c0-0.5,0-0.5,0.5-0.5c1.7,0,3.4,0,5.1,0
				c0.2,0,0.4,0,0.6,0.1c0.3,0.1,0.5,0.4,0.5,0.7c0,0.3-0.2,0.6-0.6,0.7c-0.2,0-0.4,0.1-0.6,0.1C67.7,138.4,66.9,138.3,66.1,138.3
				 M66.1,134.7h-2c-1.1,0-1.1,0-1-1.1c0-0.5,0-0.5,0.5-0.5c1.5,0,3.1,0,4.6,0c0.2,0,0.5,0.1,0.7,0.1c0.2,0,0.4,0.2,0.4,0.4
				c0.2,0.5-0.1,1-0.7,1C67.8,134.6,66.9,134.7,66.1,134.7"/>
			<path class="st10" d="M109.5,136.9c1.4-0.4,1.6-1.4,1.6-2.6c0-0.4,0-0.8,0-1.2c-0.1-1.4-0.9-2.2-2.2-2.3c-0.3,0-0.6,0-0.9,0
				c-2.9,0-5.8,0-8.7,0c-0.1,0-0.3,0-0.4,0c-0.2,0-0.3,0.1-0.3,0.3c0,0.1,0,0.2,0,0.3c0,3,0,5.9,0,8.9c0,0.1,0,0.3,0,0.4
				c0,0.2,0.1,0.3,0.3,0.3c0.9,0,1.7,0,2.6,0c0.3,0,0.3-0.2,0.3-0.4c0-0.6,0-1.2,0-1.8c0-0.3,0.1-0.4,0.4-0.4c1.5,0,3,0,4.5,0
				c0.8,0,1.2,0.3,1.2,1.2c0,0.4,0,0.8,0,1.1c0,0.2,0.1,0.3,0.3,0.3c0.8,0,1.7,0,2.5,0c0.2,0,0.3,0,0.3-0.2c0-0.7,0-1.4,0-2.1
				C110.9,137.7,110.5,137.1,109.5,136.9 M104.7,135.6c-0.8,0-1.6,0-2.4,0c-0.5,0-0.5,0-0.5-0.5c0-0.4,0-0.9,0-1.3
				c0-0.5,0-0.5,0.5-0.5c1.5,0,3.1,0,4.6,0c0.9,0,1.1,0.3,1.1,1.1c0,0.1,0,0.1,0,0.2c0,0.7-0.3,1-1,1
				C106.2,135.6,105.4,135.6,104.7,135.6"/>
			<path class="st11" d="M79.7,140.9c1.7,0,3.4,0,5.1,0c0.5,0,0.5,0,0.5-0.5c0-0.5,0-1,0-1.5c0-0.6,0-0.6-0.6-0.6c-1.7,0-3.4,0-5,0
				c-0.7,0-1.4,0-2,0c-0.5,0-0.5,0-0.5-0.4c0-1.1,0-1.1,1.1-1.1c2,0,3.9,0,5.9,0c0.5,0,0.5,0,0.5-0.5c0-0.4,0-0.8,0-1.1
				c0-0.5,0-0.5-0.4-0.5c-1.1,0-2.1,0-3.2,0c-1.1,0-2.2,0-3.4,0c-0.5,0-0.5,0-0.5-0.5c0-0.3-0.1-0.8,0.1-1c0.2-0.3,0.7-0.1,1-0.1
				c2.1,0,4.2,0,6.4,0c0.5,0,0.5,0,0.5-0.5c0-0.5,0-1,0-1.5c0-0.3-0.1-0.4-0.4-0.4c-0.1,0-0.2,0-0.3,0h-9.8c-0.1,0-0.3,0-0.4,0
				c-0.2,0-0.3,0.1-0.3,0.3c0,0.1,0,0.3,0,0.4c0,2.9,0,5.9,0,8.8c0,0.1,0,0.2,0,0.3c0,0.5,0,0.5,0.5,0.5c1.1,0,2.3,0,3.4,0H79.7z"/>
			<path class="st11" d="M122.8,140.9c1.7,0,3.4,0,5.1,0c0.5,0,0.5,0,0.5-0.5c0-0.5,0-0.9,0-1.4c0-0.7,0-0.6-0.6-0.6
				c-1.7,0-3.4,0-5,0c-0.7,0-1.4,0-2,0c-0.5,0-0.5,0-0.5-0.4c0-1.1,0-1.1,1.1-1.1c2,0,3.9,0,5.9,0c0.5,0,0.5,0,0.5-0.5
				c0-0.4,0-0.7,0-1.1c0-0.5,0-0.5-0.5-0.5c-1.1,0-2.2,0-3.4,0c-1,0-2.1,0-3.1,0c-0.5,0-0.5,0-0.5-0.5c0-0.3-0.1-0.8,0.1-1
				c0.2-0.3,0.7-0.1,1-0.1c2.1,0,4.2,0,6.4,0c0.5,0,0.5,0,0.5-0.5c0-0.5,0-1,0-1.5c0-0.3-0.1-0.4-0.4-0.4c-0.1,0-0.2,0-0.3,0h-9.8
				c-0.1,0-0.3,0-0.4,0c-0.2,0-0.3,0.1-0.3,0.3c0,0.1,0,0.3,0,0.4v8.8c0,0.1,0,0.2,0,0.3c0,0.5,0,0.5,0.5,0.5c1.1,0,2.2,0,3.3,0
				C121.5,140.9,122.1,140.9,122.8,140.9"/>
			<path class="st9" d="M38.6,130.6c-1,0-1.9,0-2.9,0c-0.5,0-1,0.1-1.5,0.3c-1.2,0.4-1.9,1.2-2,2.4c-0.1,1.7-0.2,3.5,0.1,5.3
				c0.2,1.3,1,2,2.2,2.2c0.7,0.2,1.5,0.2,2.2,0.2c1.7,0,3.3,0,5,0c0.6,0,1.1-0.1,1.7-0.2c1.6-0.4,1.9-1.3,2-2.4c0.1-0.4,0-0.8,0-1.2
				c0-0.2-0.1-0.3-0.3-0.3c-0.9,0-1.7,0-2.6,0c-0.2,0-0.2,0.1-0.3,0.3c-0.1,0.9-0.2,1-1.1,1.1c-0.2,0-0.3,0-0.5,0
				c-1.1,0-2.2,0-3.4,0c-1.3,0-1.8-0.4-1.8-1.7c0-0.7-0.1-1.4,0.1-2.1c0.1-0.8,0.5-1.2,1.3-1.3c0.2,0,0.5,0,0.7,0c1,0,2.1,0,3.1,0
				c0.3,0,0.6,0,0.8,0.1c0.4,0.1,0.7,0.3,0.7,0.7c0,0.3,0.1,0.4,0.4,0.4c0.8,0,1.6,0,2.4,0c0.2,0,0.3-0.1,0.3-0.3
				c0-0.5,0-1.1-0.2-1.6c-0.2-0.7-0.7-1.3-1.4-1.5c-0.7-0.3-1.4-0.3-2.1-0.4C40.6,130.6,39.6,130.6,38.6,130.6"/>
			<path class="st9" d="M45.9,135.8c0,1.5,0,3.1,0,4.6c0,0.5,0,0.5,0.5,0.5c0.7,0,1.4,0,2,0c0.5,0,0.6,0.1,0.6-0.5
				c0-0.9,0-1.8,0-2.7c0-0.5,0-0.5,0.5-0.5c1.8,0,3.7,0,5.5,0c0.4,0,0.5,0,0.5,0.4c0,1,0,2,0,2.9c0,0.3,0.1,0.5,0.4,0.4
				c0.8,0,1.6,0,2.4,0c0.4,0,0.4-0.1,0.4-0.4c0-1.3,0-2.6,0-3.9c0-1.8,0-3.6,0-5.4c0-0.4,0-0.5-0.4-0.5c-0.8,0-1.5,0-2.3,0
				c-0.4,0-0.4,0-0.4,0.5c0,0.9,0,1.8,0,2.7c0,0.3-0.1,0.4-0.4,0.4c-1.9,0-3.8,0-5.7,0c-0.3,0-0.4-0.1-0.4-0.4c0-0.9,0-1.7,0-2.6
				c0-0.6,0.1-0.6-0.6-0.6c-0.7,0-1.3,0-2,0c-0.6,0-0.6,0-0.6,0.5C45.9,132.7,45.9,134.3,45.9,135.8"/>
			<path class="st8" d="M17.2,140.9c1.1,0,2.1,0,3.2,0c0.3,0,0.4-0.1,0.5-0.3c0.2-0.4,0.4-0.7,0.6-1.1c0.1-0.2,0.2-0.3,0.5-0.3
				c1.9,0,3.7,0,5.6,0c0.2,0,0.3,0.1,0.4,0.3c0.2,0.4,0.5,0.8,0.7,1.2c0.1,0.2,0.2,0.3,0.5,0.3c1,0,2,0,3,0c0.1-0.3-0.1-0.4-0.2-0.6
				c-1.6-3-3.3-6-4.9-9c-0.2-0.4-0.5-0.6-1-0.6c-1,0.1-2,0-3,0c-0.3,0-0.5,0.1-0.7,0.4c-1.6,3-3.3,6-4.9,9
				C17.5,140.3,17.4,140.5,17.2,140.9 M24.8,133.1c0.7,1.3,1.3,2.5,1.9,3.7h-3.8C23.5,135.6,24.1,134.4,24.8,133.1"/>
			<path class="st7" d="M12.7,130.7c-1.6,0-3.2,0-4.8,0c-0.5,0-0.5,0-0.5,0.5c0,3.1,0,6.1,0,9.2c0,0.5,0,0.5,0.5,0.5
				c0.7,0,1.4,0,2.2,0c0.4,0,0.4,0,0.5-0.5c0-0.8,0-1.7,0-2.5c0-0.5,0-0.5,0.5-0.5c1.9,0,3.9,0,5.8,0c0.1,0,0.3,0,0.4,0
				c0.3,0,0.4-0.1,0.4-0.4c0-0.6,0-1.1,0-1.7c0-0.4-0.2-0.4-0.5-0.4c-1.6,0-3.2,0-4.8,0c-0.5,0-1,0-1.5,0c-0.3,0-0.4-0.1-0.4-0.4
				c0-0.4,0-0.8,0-1.2c0-0.2,0.1-0.3,0.3-0.3c0.3,0,0.7,0,1,0c1.9,0,3.8,0,5.7,0c0.4,0,0.4,0,0.4-0.5c0-0.5,0-1.1,0-1.6
				c0-0.3-0.1-0.4-0.4-0.4c-1.5,0-2.9,0-4.4,0H12.7z"/>
			<path class="st10" d="M91.7,130.7c-1.8,0-3.6,0-5.4,0c-0.4,0-0.5,0-0.5,0.4c0,0.6,0,1.2,0,1.8c0,0.3,0.1,0.4,0.4,0.4
				c1.1,0,2.2,0,3.2,0c0.1,0,0.3,0,0.4,0c0.2,0,0.3,0.1,0.3,0.3c0,0.1,0,0.3,0,0.4c0,2.1,0,4.2,0,6.4c0,0.5,0,0.5,0.5,0.5
				c0.7,0,1.4,0,2.2,0c0.5,0,0.5,0,0.5-0.5c0-2,0-4,0-6c0-0.3,0-0.5,0-0.8c0-0.3,0.1-0.4,0.4-0.4c1.1,0,2.1,0,3.2,0
				c0.1,0,0.3,0,0.4,0c0.2,0,0.3-0.1,0.3-0.3c0-0.6,0-1.3,0-1.9c0-0.3-0.1-0.4-0.4-0.4c-0.8,0-1.7,0-2.5,0
				C93.8,130.7,92.7,130.7,91.7,130.7"/>
			<path class="st7" d="M115.7,135.8c0-1.5,0-3.1,0-4.6c0-0.4,0-0.4-0.5-0.5c-0.8,0-1.5,0-2.3,0c-0.3,0-0.5,0.1-0.4,0.4
				c0,3.1,0,6.2,0,9.3c0,0.3,0.1,0.4,0.4,0.4c0.7,0,1.5,0,2.2,0c0.5,0,0.5,0,0.5-0.5C115.7,138.8,115.7,137.3,115.7,135.8"/>
			<path class="st12" d="M47.5,85.9c0.9,0,1.7,0,2.6,0c1.9,0.1,3.8,0.2,5.6,0.2c1.4,0.1,2.7,0.1,4.1,0.1c1.8,0,3.6,0.1,5.4,0.1
				c1.6,0,3.3,0,4.9,0.1c1.3,0.1,2.5,0.1,3.8,0.1c1.2,0,2.5,0.1,3.7-0.1c0.2,0,0.3,0,0.5,0c1.3,0,2.7,0,4-0.1
				c1.4-0.1,2.9-0.1,4.3-0.1c1.3-0.1,2.6-0.1,3.9-0.1c1.2-0.1,2.4-0.1,3.6-0.1c2-0.1,4-0.2,6-0.2c0.1,0,0.2,0,0.3,0
				c0.2,0,0.3,0,0.3,0.2c0,0,0,0.1,0,0.1c0.1,2.5,0.1,5,0.1,7.4c0,0.4-0.1,0.8-0.1,1.3c0,1.2,1.1,2.3,2.3,2.4
				c2.2,0.2,4.4,0.1,6.5,0.1c1.6,0,2-1.1,2.2-2.2c0.1-0.7,0.1-1.4,0.1-2.1c0.1-1.2,0.1-2.3,0.1-3.5c0.1-1.8,0.2-3.6,0.2-5.4
				c0-0.2,0-0.3,0.3-0.3c0.6,0,1-0.4,1.3-1c0.6-1,0.9-2.1,1.1-3.3c0.3-2.3,0.3-4.6,0.3-7c0-1.1-0.1-2.3-0.2-3.4
				c-0.2-1.4-0.4-2.7-0.8-4c-0.3-0.8-0.5-1.5-1.2-1.9c-0.1,0-0.1-0.1-0.2-0.1c-0.7-0.2-0.9-0.7-1.1-1.3c-0.8-2.1-1.3-4.2-1.9-6.3
				c-0.4-1.4-0.9-2.6-1.6-3.8c-1.5-2.4-3.7-3.8-6.4-4.5c-2.3-0.6-4.7-1-7-1.3c-2.5-0.4-5-0.7-7.5-1c-1.9-0.2-3.9-0.4-5.8-0.5
				c-1.1-0.1-2.3-0.1-3.4-0.2c-1.1-0.1-2.3,0-3.4-0.1c-1.9,0-3.8,0.1-5.6,0.2c-1.7,0.1-3.5,0.2-5.2,0.4c-2.4,0.2-4.9,0.5-7.3,0.8
				c-2.4,0.3-4.7,0.6-7.1,1.1c-1.6,0.3-3.2,0.6-4.6,1.3c-2.5,1.2-4.2,3.2-5.2,5.7c-0.6,1.4-0.9,2.8-1.3,4.2c-0.4,1.5-0.9,3-1.5,4.5
				c-0.1,0.2-0.1,0.4-0.3,0.5c-1.6,1-2.3,2.4-2.6,4.2c-0.3,1.9-0.5,3.8-0.5,5.7c0,1.6-0.1,3.2,0,4.8c0.1,1.5,0.3,3,0.9,4.4
				c0.2,0.4,0.4,0.8,0.7,1.1c0.3,0.3,0.6,0.6,1,0.7c0.4,0,0.4,0.3,0.5,0.6c0,0.4,0,0.8,0,1.3c0.1,1.2,0.1,2.3,0.1,3.5
				c0.1,1.5,0.1,3.1,0.2,4.6c0,0.5,0,1,0.1,1.5c0.1,0.5,0.3,0.9,0.5,1.3c0.4,0.7,1,0.8,1.7,0.8c2,0,3.9,0,5.9,0
				c0.7,0,1.5-0.2,2.1-0.7c0.5-0.4,0.9-1,0.9-1.7c0-2.8,0-5.7,0-8.5C47.5,86.3,47.4,86.1,47.5,85.9 M39.9,62.2
				c0.5-2.5,1.2-5,2.1-7.3c0.3-0.7,0.5-1.4,0.9-2.1c0.7-1.2,1.9-1.8,3.2-2.2c3.9-1.1,7.8-1.6,11.8-2.1c1.7-0.2,3.4-0.4,5.2-0.6
				c1.9-0.2,3.8-0.3,5.7-0.4c1-0.1,1.9-0.1,2.9-0.1c2.3-0.1,4.6-0.1,6.9,0.1c1.7,0.1,3.5,0.2,5.2,0.4c1.5,0.2,3,0.2,4.5,0.4
				c2.8,0.4,5.6,0.7,8.4,1.3c1.9,0.4,3.9,0.7,5.7,1.4c1.2,0.4,2,1.1,2.6,2.2c0.5,0.8,0.7,1.7,1.1,2.6c0.8,2.1,1.4,4.3,1.8,6.5
				c-0.1,0.1-0.3,0.1-0.4,0.1c-1.3-0.1-2.6-0.2-3.8-0.3c-1.5-0.1-2.9-0.2-4.4-0.3c-2-0.1-4.1-0.2-6.1-0.3c-1.4,0-2.9-0.1-4.3-0.1
				c-2.8-0.1-5.7-0.1-8.5-0.1c-3.4,0-6.9-0.1-10.3,0c-3.2,0.1-6.5,0-9.7,0.1c-2.2,0.1-4.4,0.1-6.7,0.2c-1.3,0-2.6,0.1-3.9,0.2
				c-1.6,0.1-3.1,0.1-4.7,0.2c-1.1,0.1-2.2,0.1-3.3,0.2C41.2,62.1,40.6,62.1,39.9,62.2 M112.1,72.9c0.1,3.5-2.9,6.4-6.3,6.5
				c-3.2,0.1-6.5-2.5-6.5-6.4c0-3.7,2.9-6.4,6.4-6.4C109.5,66.5,112.2,69.6,112.1,72.9 M48.6,72.9c0.1,3.5-3,6.4-6.3,6.4
				c-3.4,0.1-6.6-2.7-6.6-6.4c0-3.5,2.7-6.4,6.4-6.4C46.2,66.5,48.6,69.8,48.6,72.9"/>
			<path class="st4" d="M59.8,17.2c0.6,0,1.2,0,1.8,0c0.2,0,0.5,0,0.7,0c0.6-0.1,1-0.4,1.1-1.1c0.1-0.9,0.1-1.8,0-2.7
				c-0.1-0.6-0.5-1-1.1-1.2c-0.3-0.1-0.6-0.1-0.9-0.1c-1.1,0-2.1,0-3.2,0c-0.1,0-0.1,0-0.2,0c-1.5,0.1-2,0.6-2,2c0,0.6,0,1.1,0,1.7
				c0.1,1,0.5,1.4,1.5,1.4c0,0,0.1,0,0.1,0C58.4,17.2,59.1,17.2,59.8,17.2"/>
			<path class="st4" d="M44.1,12.2c-0.8,0-1.6,0-2.4,0c-0.3,0-0.5,0.1-0.4,0.4c0,0.5,0,1.1,0,1.6c0,0.2,0.1,0.3,0.3,0.3
				c1.6,0,3.3,0,4.9,0c0.6,0,0.8-0.3,0.9-0.9c0-0.2,0-0.3,0-0.5c0-0.7-0.3-0.9-1-1C45.6,12.2,44.8,12.2,44.1,12.2"/>
			<path class="st3" d="M117.9,12.2c-0.8,0-1.6,0-2.4,0c-0.3,0-0.4,0.1-0.4,0.4c0,0.5,0,1.1,0,1.7c0,0.2,0.1,0.3,0.3,0.3
				c1.7,0,3.3,0,5,0c0.6,0,0.8-0.3,0.8-0.9c0-0.2,0-0.4,0-0.6c0-0.6-0.3-0.8-0.9-0.9C119.6,12.2,118.7,12.2,117.9,12.2"/>
			<path class="st13" d="M29,12.1c-0.7,1.3-1.3,2.4-1.9,3.7h3.8C30.3,14.5,29.7,13.3,29,12.1"/>
			<path class="st13" d="M135.6,136.8c-0.9,0-1.7,0-2.6,0c-0.3,0-0.4,0.1-0.4,0.4c0,1.1,0,1.1,1,1.1c1.4,0,2.9,0,4.3,0
				c0.2,0,0.5,0,0.7,0c0.4-0.1,0.6-0.3,0.6-0.7c0-0.3-0.2-0.6-0.5-0.7c-0.2-0.1-0.4-0.1-0.7-0.1
				C137.2,136.8,136.4,136.8,135.6,136.8"/>
			<path class="st13" d="M135.6,134.7c0.9,0,1.7,0,2.6,0c0.5,0,0.8-0.3,0.7-0.8c0-0.3-0.2-0.6-0.5-0.6c-0.2,0-0.4-0.1-0.6-0.1
				c-1.6,0-3.1,0-4.7,0c-0.5,0-0.5,0-0.5,0.5c0,1,0,1,1,1C134.3,134.7,134.9,134.7,135.6,134.7"/>
			<path class="st14" d="M66.1,138.3c0.8,0,1.6,0,2.3,0c0.2,0,0.4,0,0.6-0.1c0.4-0.1,0.6-0.4,0.6-0.7c0-0.3-0.2-0.6-0.5-0.7
				c-0.2-0.1-0.4-0.1-0.6-0.1c-1.7,0-3.4,0-5.1,0c-0.4,0-0.4,0-0.5,0.5c0,1.1,0,1.1,1,1.1H66.1z"/>
			<path class="st14" d="M66.1,134.7c0.8,0,1.7,0,2.5,0c0.6,0,0.9-0.5,0.7-1c-0.1-0.2-0.2-0.4-0.4-0.4c-0.2,0-0.4-0.1-0.7-0.1
				c-1.5,0-3.1,0-4.6,0c-0.5,0-0.5,0-0.5,0.5c0,1.1,0,1.1,1,1.1C64.8,134.7,65.4,134.7,66.1,134.7"/>
			<path class="st13" d="M104.7,135.6c0.8,0,1.5,0,2.3,0c0.7,0,1-0.3,1-1c0-0.1,0-0.1,0-0.2c0-0.8-0.3-1.1-1.1-1.1
				c-1.5,0-3.1,0-4.6,0c-0.5,0-0.5,0-0.5,0.5c0,0.4,0,0.9,0,1.3c0,0.5,0,0.5,0.5,0.5C103.1,135.6,103.9,135.6,104.7,135.6"/>
			<path class="st14" d="M24.8,133.1c-0.7,1.3-1.2,2.4-1.9,3.7h3.8C26.1,135.6,25.4,134.4,24.8,133.1"/>
			<path class="st15" d="M39.9,62.2c0.7,0,1.3-0.1,1.9-0.1c1.1-0.1,2.2-0.2,3.3-0.2c1.6-0.1,3.1-0.1,4.7-0.2
				c1.3-0.1,2.6-0.1,3.9-0.2c2.2,0,4.4-0.1,6.7-0.2c3.2-0.1,6.5,0,9.7-0.1c3.4-0.1,6.9-0.1,10.3,0c2.8,0,5.7,0,8.5,0.1
				c1.4,0,2.9,0.1,4.3,0.1c2,0.1,4.1,0.2,6.1,0.3c1.5,0.1,3,0.2,4.4,0.3c1.3,0.1,2.6,0.2,3.8,0.3c0.1,0,0.3,0,0.4-0.1
				c-0.5-2.2-1.1-4.4-1.8-6.5c-0.3-0.9-0.6-1.8-1.1-2.6c-0.6-1.1-1.5-1.8-2.6-2.2c-1.9-0.6-3.8-1-5.7-1.4c-2.8-0.5-5.6-0.9-8.4-1.3
				c-1.5-0.2-3-0.3-4.5-0.4c-1.7-0.2-3.5-0.3-5.2-0.4c-2.3-0.1-4.6-0.1-6.9-0.1c-1,0-1.9,0-2.9,0.1c-1.9,0.1-3.8,0.3-5.7,0.4
				c-1.7,0.2-3.4,0.3-5.2,0.6c-3.9,0.5-7.9,1.1-11.8,2.1c-1.3,0.4-2.4,1-3.2,2.2c-0.4,0.6-0.7,1.4-0.9,2.1
				C41.1,57.2,40.4,59.6,39.9,62.2"/>
			<path class="st15" d="M112.1,72.9c0.1-3.2-2.6-6.4-6.4-6.4c-3.5,0-6.4,2.8-6.4,6.4c0,4,3.3,6.5,6.5,6.4
				C109.2,79.3,112.2,76.3,112.1,72.9"/>
			<path class="st15" d="M48.6,72.9c0-3-2.4-6.4-6.4-6.4c-3.7,0-6.4,2.9-6.4,6.4c0,3.8,3.2,6.5,6.6,6.4
				C45.6,79.3,48.7,76.4,48.6,72.9"/>
		</g>
	</g>
</g>
</svg>
