<svg xmlns="http://www.w3.org/2000/svg" viewBox="0 0 352 209"><defs><style>.cls-1,.cls-2{fill:#fff;}.cls-2{font-size:18.43px;font-family:Esphimere-Italic, Esphimere;font-style:italic;}.cls-3{fill:none;}</style></defs><g id="Sujets"><path class="cls-1" d="M225.75,84.4V62.65a12.63,12.63,0,0,0-2.25-2.07H208.93a1.21,1.21,0,0,0-1.2,1.22V85.43a1.18,1.18,0,0,0,1.2,1.19h14.36A13,13,0,0,0,225.75,84.4Zm-4.36-2.13a1.12,1.12,0,0,1-.83.34h-8.81V65.79a1.1,1.1,0,0,1,.34-.83,1.15,1.15,0,0,1,.86-.37h7.61a1.25,1.25,0,0,1,1.19,1.2V81.41A1.18,1.18,0,0,1,221.39,82.27Z"/><path class="cls-1" d="M141.62,49a51.49,51.49,0,0,1,66.91,0h12.88a60.43,60.43,0,0,0-92.67,0Z"/><path class="cls-1" d="M43.45,116.67V99.61c0-.52.3-.79.91-.79h3.15a1,1,0,0,1,1,.7L51.9,111.2h.61l3.17-11.66a1,1,0,0,1,1-.7h3.22c.54,0,.81.26.81.77v17.06H58.08v-14.8l-.75-.07-3,11.08c-.22.61-.57.91-1.06.91H51.21A1.29,1.29,0,0,1,50,112.9l-3.17-11.15h-.77v14.92Z"/><path class="cls-1" d="M68.48,103.63c3.4.16,5.1,1.69,5.1,4.61v8.48H71.22l-.09-1.25a8.31,8.31,0,0,1-3.94,1.25q-3.75,0-3.75-4.13.08-3.95,3.48-4.11h4v-.87a1.59,1.59,0,0,0-1.49-1.73l-1.63,0H64.57v-1.94A25.92,25.92,0,0,1,68.48,103.63ZM71,110.71H67c-.53.13-.83.81-.91,2s.37,1.93,1.13,1.93A8.3,8.3,0,0,0,71,113.21Z"/><path class="cls-1" d="M84.32,106c-1,0-2-.08-2.79-.08a3.55,3.55,0,0,0-2.09,1.21v9.63H76.82V103.63h2.4l.2,1a2.84,2.84,0,0,1,2.09-1,14.17,14.17,0,0,1,2.81.31Z"/><path class="cls-1" d="M89.77,100.62v3h3.44v2.16H89.77v7.38c0,.81.29,1.24.82,1.27l2.69-.07v2l-3,.29q-3.11,0-3.1-3.74v-7.14H85.3v-2.16h1.83v-3Z"/><path class="cls-1" d="M98.56,98.36v2.48H95.92V98.36Zm0,5.27v13H95.92v-13Z"/><path class="cls-1" d="M104.45,116.72h-2.64V103.63h2.42l.17,1a2.89,2.89,0,0,1,2.12-1h1.58q4.23,0,4.23,5.81v7.28h-2.59v-7.28c0-2.37-.55-3.56-1.64-3.56h-1.58a3.54,3.54,0,0,0-2.07,1.21Z"/><path class="cls-1" d="M126.22,109.71H122.9v7h-2.64V98.84h7.66q5,0,5,5.44c-.09,3.34-1.37,5.09-3.84,5.23l3.82,7.21H130Zm1.27-2.36c1.87,0,2.81-1,2.81-3.1s-1-3-3-3H122.9v6.15Z"/><path class="cls-1" d="M148.87,106.61V109q0,7.71-5.91,7.71h-1.58q-5.9,0-5.89-7.71v-2.35q0-7.77,5.89-7.77H143Q148.87,98.84,148.87,106.61Zm-7.52-5.39q-3.12,0-3.12,5.46v2.23q0,5.46,3.12,5.46h1.71q3,0,3.05-5.46v-2.23q0-5.46-3.05-5.46Z"/><path class="cls-1" d="M164,98.84v2.48H159v15.4h-2.69v-15.4h-5.45V98.84Z"/><path class="cls-1" d="M178.47,98.84v2.48H173.4v15.4h-2.69v-15.4h-5.45V98.84Z"/><path class="cls-1" d="M192.51,101.34H183.9q-.72,0-.72.87v4.44h7.19v2.29h-7.19v4.49q0,.84.72.84h8.56v2.26l-8.56.19q-3.36,0-3.36-3.29V102.21q0-3.34,3.36-3.34l8.61.19Z"/><path class="cls-1" d="M195.32,116.67V99.61c0-.52.29-.79.88-.79h3.18a1.07,1.07,0,0,1,1.05.75L206,114.44h.5l0-15.57h2.64L209,116q0,.72-.84.72h-3.12a1.25,1.25,0,0,1-1.16-.86l-5.38-14.3H198v15.16Z"/><path class="cls-1" d="M223.11,99.13v2.26l-5.09,0c-2.19,0-3.29.44-3.29,1.32v1.81c.08.73.86,1.3,2.33,1.7l2.31.7c2.9.75,4.35,2.19,4.37,4.3v1.44c0,2.76-1.83,4.13-5.53,4.13l-5.91-.24v-2.28l5.77.07c1.94,0,2.92-.56,3-1.68v-1.44c0-.78-.8-1.41-2.4-1.87l-2.64-.85c-2.5-.76-3.81-2.09-3.94-4v-1.83c0-2.53,2-3.79,6-3.79Z"/><path class="cls-1" d="M238.8,98.84v2.48h-5.07v15.4H231v-15.4h-5.45V98.84Z"/><path class="cls-1" d="M252.84,101.34h-8.61q-.72,0-.72.87v4.44h7.19v2.29h-7.19v4.49q0,.84.72.84h8.56v2.26l-8.56.19q-3.36,0-3.36-3.29V102.21q0-3.34,3.36-3.34l8.61.19Z"/><path class="cls-1" d="M258.29,98.87v17.85h-2.64V98.87Z"/><path class="cls-1" d="M262.32,116.67V99.61c0-.52.3-.79.89-.79h3.17a1.08,1.08,0,0,1,1.06.75L273,114.44h.5l0-15.57h2.64L276,116q0,.72-.84.72h-3.12a1.25,1.25,0,0,1-1.16-.86l-5.38-14.3H265v15.16Z"/><path class="cls-1" d="M291.42,101.34h-8.6q-.72,0-.72.87v4.44h7.18v2.29H282.1v4.49q0,.84.72.84h8.55v2.26l-8.55.19q-3.36,0-3.36-3.29V102.21q0-3.34,3.36-3.34l8.6.19Z"/><path class="cls-1" d="M300.19,109.71h-3.31v7h-2.65V98.84h7.67c3.34,0,5,1.83,5,5.44-.1,3.34-1.38,5.09-3.85,5.23l3.82,7.21h-2.95Zm1.27-2.36c1.88,0,2.81-1,2.81-3.1s-1-3-3-3h-4.42v6.15Z"/><path class="cls-1" d="M43.06,60.48a1.2,1.2,0,0,1,1.19,1.22V85.33a1.12,1.12,0,0,1-.34.83,1.16,1.16,0,0,1-.85.36h-1.6a1.18,1.18,0,0,1-.86-.36,1.12,1.12,0,0,1-.34-.83V76.71a1.23,1.23,0,0,0-1.2-1.2H31.45a1.2,1.2,0,0,0-.86.36,1.18,1.18,0,0,0-.34.84v8.62a1.1,1.1,0,0,1-.36.83,1.13,1.13,0,0,1-.86.36H27.44a1.12,1.12,0,0,1-.84-.36,1.1,1.1,0,0,1-.36-.83V61.7a1.15,1.15,0,0,1,.36-.86,1.12,1.12,0,0,1,.84-.36Zm-4,11a1.14,1.14,0,0,0,.84-.34,1.16,1.16,0,0,0,.36-.85V65.69a1.08,1.08,0,0,0-.36-.83,1.13,1.13,0,0,0-.84-.37H31.45a1.21,1.21,0,0,0-.86.37,1.14,1.14,0,0,0-.34.83V70.3a1.16,1.16,0,0,0,1.2,1.19Z"/><path class="cls-1" d="M64.33,61.7a1.2,1.2,0,0,1,1.19-1.22h1.6a1.2,1.2,0,0,1,1.2,1.22V85.33a1.12,1.12,0,0,1-.34.83,1.18,1.18,0,0,1-.86.36H51.5a1.16,1.16,0,0,1-.85-.36,1.13,1.13,0,0,1-.35-.83V61.7a1.18,1.18,0,0,1,.35-.86,1.16,1.16,0,0,1,.85-.36h1.6a1.23,1.23,0,0,1,1.22,1.22V81.31a1.16,1.16,0,0,0,1.2,1.2h7.61a1.1,1.1,0,0,0,.83-.34,1.19,1.19,0,0,0,.37-.86Z"/><path class="cls-1" d="M89.57,63.3a1.18,1.18,0,0,1-.34.85,1.2,1.2,0,0,1-.86.34h-4.6a1.19,1.19,0,0,0-.86.37,1.1,1.1,0,0,0-.34.83V85.33a1.1,1.1,0,0,1-.36.83,1.12,1.12,0,0,1-.84.36h-1.6a1.13,1.13,0,0,1-.85-.36,1.1,1.1,0,0,1-.36-.83V65.69a1.11,1.11,0,0,0-.35-.83,1.17,1.17,0,0,0-.85-.37H72.75a1.18,1.18,0,0,1-1.2-1.19V61.7a1.18,1.18,0,0,1,.35-.86,1.16,1.16,0,0,1,.85-.36H88.37a1.2,1.2,0,0,1,1.2,1.22Z"/><path class="cls-1" d="M109.17,60.48a1.16,1.16,0,0,1,.85.36,1.18,1.18,0,0,1,.35.86V85.33a1.13,1.13,0,0,1-.35.83,1.16,1.16,0,0,1-.85.36H93.55a1.12,1.12,0,0,1-.84-.36,1.1,1.1,0,0,1-.36-.83V61.7a1.15,1.15,0,0,1,.36-.86,1.12,1.12,0,0,1,.84-.36Zm-4,22a1.14,1.14,0,0,0,.84-.34,1.18,1.18,0,0,0,.36-.86V65.69a1.08,1.08,0,0,0-.36-.83,1.13,1.13,0,0,0-.84-.37H97.56a1.17,1.17,0,0,0-.85.37,1.11,1.11,0,0,0-.35.83V81.31a1.21,1.21,0,0,0,.35.86,1.18,1.18,0,0,0,.85.34Z"/><path class="cls-1" d="M120.35,81.31a1.21,1.21,0,0,0,.35.86,1.18,1.18,0,0,0,.85.34h7.61a1.14,1.14,0,0,0,.84-.34,1.18,1.18,0,0,0,.36-.86v-4.6a1.23,1.23,0,0,0-1.2-1.2h-2.61a1.18,1.18,0,0,1-.85-.34,1.2,1.2,0,0,1-.34-.86v-1.6a1.13,1.13,0,0,1,.34-.85,1.17,1.17,0,0,1,.85-.37h6.61a1.17,1.17,0,0,1,.85.37,1.14,1.14,0,0,1,.35.85V85.33a1.13,1.13,0,0,1-.35.83,1.16,1.16,0,0,1-.85.36H117.54a1.12,1.12,0,0,1-.84-.36,1.1,1.1,0,0,1-.36-.83V61.7a1.15,1.15,0,0,1,.36-.86,1.12,1.12,0,0,1,.84-.36h15.62a1.16,1.16,0,0,1,.85.36,1.18,1.18,0,0,1,.35.86v1.6a1.18,1.18,0,0,1-1.2,1.19H121.55a1.17,1.17,0,0,0-.85.37,1.11,1.11,0,0,0-.35.83Z"/><path class="cls-1" d="M143.45,81.31a1.16,1.16,0,0,0,1.2,1.2h11.6a1.2,1.2,0,0,1,1.2,1.22v1.6a1.12,1.12,0,0,1-.34.83,1.18,1.18,0,0,1-.86.36H140.63a1.08,1.08,0,0,1-.83-.36,1.11,1.11,0,0,1-.37-.83V61.7a1.16,1.16,0,0,1,.37-.86,1.08,1.08,0,0,1,.83-.36h1.6a1.23,1.23,0,0,1,1.22,1.22Z"/><path class="cls-1" d="M178,60.48a1.16,1.16,0,0,1,.85.36,1.18,1.18,0,0,1,.35.86V85.33a1.13,1.13,0,0,1-.35.83,1.16,1.16,0,0,1-.85.36h-1.6a1.18,1.18,0,0,1-.86-.36,1.12,1.12,0,0,1-.34-.83V76.71a1.23,1.23,0,0,0-1.2-1.2h-7.61a1.21,1.21,0,0,0-1.2,1.2v8.62a1.1,1.1,0,0,1-.36.83,1.13,1.13,0,0,1-.85.36h-1.6a1.12,1.12,0,0,1-.84-.36,1.1,1.1,0,0,1-.36-.83V61.7a1.15,1.15,0,0,1,.36-.86,1.12,1.12,0,0,1,.84-.36Zm-4,11a1.14,1.14,0,0,0,.84-.34,1.16,1.16,0,0,0,.36-.85V65.69a1.08,1.08,0,0,0-.36-.83,1.13,1.13,0,0,0-.84-.37h-7.61a1.17,1.17,0,0,0-.85.37,1.11,1.11,0,0,0-.35.83V70.3a1.18,1.18,0,0,0,1.2,1.19Z"/><path class="cls-1" d="M202.73,63.3a1.18,1.18,0,0,1-.34.85,1.2,1.2,0,0,1-.86.34h-11.6a1.19,1.19,0,0,0-.86.37,1.1,1.1,0,0,0-.34.83V70.3a1.18,1.18,0,0,0,.34.85,1.2,1.2,0,0,0,.86.34h11.6a1.19,1.19,0,0,1,.86.37,1.13,1.13,0,0,1,.34.85V85.33a1.12,1.12,0,0,1-.34.83,1.18,1.18,0,0,1-.86.36H185.91a1.16,1.16,0,0,1-.85-.36,1.13,1.13,0,0,1-.35-.83v-1.6a1.18,1.18,0,0,1,.35-.86,1.16,1.16,0,0,1,.85-.36h11.63a1.1,1.1,0,0,0,.83-.34,1.18,1.18,0,0,0,.36-.86v-4.6a1.12,1.12,0,0,0-.36-.84,1.08,1.08,0,0,0-.83-.36H185.91a1.18,1.18,0,0,1-.85-.34,1.21,1.21,0,0,1-.35-.86V61.7a1.18,1.18,0,0,1,.35-.86,1.16,1.16,0,0,1,.85-.36h15.62a1.2,1.2,0,0,1,1.2,1.22Z"/><path class="cls-1" d="M234.84,60.48a1,1,0,0,1,1,1V85.55a.94.94,0,0,1-.28.69,1,1,0,0,1-.71.28h-2.05a1,1,0,0,1-1-1V61.47a.94.94,0,0,1,.28-.69.92.92,0,0,1,.69-.3Z"/><path class="cls-1" d="M259.82,63.3a1.18,1.18,0,0,1-.34.85,1.2,1.2,0,0,1-.86.34H247a1.19,1.19,0,0,0-.86.37,1.1,1.1,0,0,0-.34.83V70.3a1.18,1.18,0,0,0,.34.85,1.2,1.2,0,0,0,.86.34h8.6a1.16,1.16,0,0,1,.86.37,1.1,1.1,0,0,1,.35.85v1.6a1.18,1.18,0,0,1-1.21,1.2H247a1.18,1.18,0,0,0-.86.36,1.14,1.14,0,0,0-.34.84v4.6a1.16,1.16,0,0,0,1.2,1.2h11.6a1.2,1.2,0,0,1,1.2,1.22v1.6a1.12,1.12,0,0,1-.34.83,1.18,1.18,0,0,1-.86.36H243a1.16,1.16,0,0,1-.85-.36,1.12,1.12,0,0,1-.34-.83V61.7A1.2,1.2,0,0,1,243,60.48h15.62a1.2,1.2,0,0,1,1.2,1.22Z"/><path class="cls-1" d="M280.75,60.48a1.2,1.2,0,0,1,.86.36,1.21,1.21,0,0,1,.34.86V85.33a1.16,1.16,0,0,1-.34.83,1.2,1.2,0,0,1-.86.36h-1.6a1.2,1.2,0,0,1-.86-.36,1.16,1.16,0,0,1-.34-.83V65.69a1.08,1.08,0,0,0-.36-.83,1.13,1.13,0,0,0-.84-.37h-7.61a1.17,1.17,0,0,0-.85.37,1.1,1.1,0,0,0-.34.83V85.33a1.25,1.25,0,0,1-1.22,1.19h-1.6a1.12,1.12,0,0,1-.84-.36,1.1,1.1,0,0,1-.36-.83V61.7a1.15,1.15,0,0,1,.36-.86,1.12,1.12,0,0,1,.84-.36Z"/><path class="cls-1" d="M305.48,63.3a1.18,1.18,0,0,1-.34.85,1.2,1.2,0,0,1-.86.34h-11.6a1.19,1.19,0,0,0-.86.37,1.1,1.1,0,0,0-.34.83V70.3a1.18,1.18,0,0,0,.34.85,1.2,1.2,0,0,0,.86.34h11.6a1.19,1.19,0,0,1,.86.37,1.13,1.13,0,0,1,.34.85V85.33a1.12,1.12,0,0,1-.34.83,1.18,1.18,0,0,1-.86.36H288.66a1.16,1.16,0,0,1-.85-.36,1.12,1.12,0,0,1-.34-.83v-1.6a1.2,1.2,0,0,1,1.19-1.22h11.63a1.1,1.1,0,0,0,.83-.34,1.15,1.15,0,0,0,.37-.86v-4.6a1.09,1.09,0,0,0-.37-.84,1.08,1.08,0,0,0-.83-.36H288.66a1.18,1.18,0,0,1-.85-.34,1.2,1.2,0,0,1-.34-.86V61.7a1.2,1.2,0,0,1,1.19-1.22h15.62a1.2,1.2,0,0,1,1.2,1.22Z"/><path class="cls-1" d="M325.76,63.3a1.18,1.18,0,0,1-.34.85,1.2,1.2,0,0,1-.86.34H320a1.19,1.19,0,0,0-.86.37,1.14,1.14,0,0,0-.34.83V85.33a1.1,1.1,0,0,1-.36.83,1.12,1.12,0,0,1-.84.36H316a1.13,1.13,0,0,1-.85-.36,1.1,1.1,0,0,1-.36-.83V65.69a1.11,1.11,0,0,0-.35-.83,1.17,1.17,0,0,0-.85-.37h-4.61a1.16,1.16,0,0,1-1.19-1.19V61.7a1.2,1.2,0,0,1,1.19-1.22h15.62a1.2,1.2,0,0,1,1.2,1.22Z"/><path class="cls-1" d="M207.33,128.14a51.37,51.37,0,0,1-64.51,0H129.61a60.33,60.33,0,0,0,90.94,0Z"/><text class="cls-2" transform="translate(72.62 181.22)">Glas - Folie - Kalibrierung</text></g><g id="Rahmen"><rect class="cls-3" width="352" height="209"/><rect class="cls-3" x="105.13" y="54.89" width="141.73" height="99.21"/></g></svg>