<svg xmlns="http://www.w3.org/2000/svg" viewBox="0 0 352 209"><defs><style>.cls-1{fill:#95161c;}.cls-2{fill:#005576;}.cls-3{fill:#87888a;}.cls-4{fill:#005f86;}.cls-5{fill:none;}</style></defs><g id="Sujets"><path class="cls-1" d="M225.75,84.51V62.78a12.22,12.22,0,0,0-2.25-2.06H209a1.16,1.16,0,0,0-.85.36,1.14,1.14,0,0,0-.35.85v23.6a1.21,1.21,0,0,0,.35.86,1.18,1.18,0,0,0,.85.34h14.34A13,13,0,0,0,225.75,84.51Zm-4.35-2.13a1.14,1.14,0,0,1-.84.34h-8.8V65.92a1.11,1.11,0,0,1,.35-.83,1.17,1.17,0,0,1,.85-.37h7.6a1.13,1.13,0,0,1,.84.37,1.08,1.08,0,0,1,.36.83v15.6A1.18,1.18,0,0,1,221.4,82.38Z"/><path class="cls-2" d="M141.71,49.17a51.43,51.43,0,0,1,66.84,0h12.87a60.35,60.35,0,0,0-92.57,0Z"/><path class="cls-3" d="M43.65,116.75v-17c0-.53.3-.8.91-.8h3.15a1,1,0,0,1,1,.7l3.36,11.66h.6l3.17-11.64a1,1,0,0,1,1-.69h3.22c.54,0,.82.25.82.77v17H58.27V102l-.75-.07-3,11.06c-.22.61-.57.92-1.05.92H51.4a1.28,1.28,0,0,1-1.17-.89l-3.17-11.14h-.77v14.91Z"/><path class="cls-3" d="M68.66,103.71q5.09.24,5.09,4.61v8.47H71.39l-.09-1.24a8.33,8.33,0,0,1-3.94,1.24q-3.73,0-3.74-4.12.08-3.94,3.48-4.11h4v-.86A1.59,1.59,0,0,0,69.64,106c-.53,0-1.07,0-1.63,0H64.75v-2A27.18,27.18,0,0,1,68.66,103.71Zm2.47,7.08h-4c-.53.13-.84.8-.92,2s.38,1.92,1.13,1.92a8.11,8.11,0,0,0,3.77-1.44Z"/><path class="cls-3" d="M84.47,106c-1-.05-2-.07-2.78-.07a3.58,3.58,0,0,0-2.09,1.2v9.62H77V103.71h2.39l.2,1a2.85,2.85,0,0,1,2.09-1,14.06,14.06,0,0,1,2.8.32Z"/><path class="cls-3" d="M89.92,100.71v3h3.43v2.16H89.92v7.37c0,.82.29,1.24.82,1.27l2.69-.07v2l-3.05.29q-3.1,0-3.1-3.75v-7.13H85.46v-2.16h1.82v-3Z"/><path class="cls-3" d="M98.7,98.46v2.47H96.06V98.46Zm0,5.25v13H96.06v-13Z"/><path class="cls-3" d="M104.59,116.79h-2.65V103.71h2.43l.17,1a2.88,2.88,0,0,1,2.11-1h1.58q4.23,0,4.23,5.81v7.27h-2.6v-7.27c0-2.37-.54-3.55-1.63-3.55h-1.58a3.55,3.55,0,0,0-2.06,1.2Z"/><path class="cls-3" d="M126.33,109.79H123v7h-2.64V98.94H128q5,0,5,5.42-.15,5-3.84,5.23l3.81,7.2h-3Zm1.27-2.36c1.87,0,2.81-1,2.81-3.09s-1-3-3-3H123v6.14Z"/><path class="cls-3" d="M149,106.69V109q0,7.71-5.91,7.71h-1.58q-5.88,0-5.88-7.71v-2.35q0-7.75,5.88-7.75h1.58Q149,98.94,149,106.69Zm-7.51-5.38q-3.12,0-3.12,5.45V109c0,3.64,1,5.45,3.12,5.45h1.7c2,0,3-1.81,3-5.45v-2.23q0-5.45-3-5.45Z"/><path class="cls-3" d="M164.1,98.94v2.47H159v15.38h-2.69V101.41H150.9V98.94Z"/><path class="cls-3" d="M178.53,98.94v2.47h-5.07v15.38h-2.69V101.41h-5.44V98.94Z"/><path class="cls-3" d="M192.54,101.43H184q-.72,0-.72.87v4.44h7.18V109h-7.18v4.49q0,.84.72.84h8.54v2.25l-8.54.19q-3.36,0-3.36-3.28V102.3Q180.59,99,184,99l8.59.19Z"/><path class="cls-3" d="M195.35,116.75v-17c0-.53.3-.8.89-.8h3.17a1.08,1.08,0,0,1,1.05.75L206,114.51h.5l0-15.55h2.64L209,116q0,.72-.84.72h-3.12a1.23,1.23,0,0,1-1.15-.87l-5.38-14.28H198v15.15Z"/><path class="cls-3" d="M223.12,99.23v2.25l-5.09,0c-2.19,0-3.29.44-3.29,1.32v1.8c.08.74.86,1.31,2.33,1.71l2.3.69q4.35,1.14,4.37,4.3v1.44q0,4.13-5.52,4.13l-5.9-.24V114.3l5.76.07c1.93,0,2.92-.56,2.95-1.68v-1.44c0-.78-.8-1.41-2.4-1.87l-2.64-.84q-3.75-1.16-3.94-4v-1.83c0-2.52,2-3.79,6-3.79Z"/><path class="cls-3" d="M238.79,98.94v2.47h-5.07v15.38H231V101.41h-5.45V98.94Z"/><path class="cls-3" d="M252.81,101.43h-8.6q-.72,0-.72.87v4.44h7.18V109h-7.18v4.49q0,.84.72.84h8.55v2.25l-8.55.19q-3.36,0-3.36-3.28V102.3q0-3.35,3.36-3.34l8.6.19Z"/><path class="cls-3" d="M258.25,99v17.83h-2.64V99Z"/><path class="cls-3" d="M262.28,116.75v-17c0-.53.3-.8.89-.8h3.17a1.08,1.08,0,0,1,1.06.75l5.52,14.85h.5L273.37,99H276L276,116c0,.48-.29.72-.84.72H272a1.24,1.24,0,0,1-1.15-.87l-5.37-14.28h-.56v15.15Z"/><path class="cls-3" d="M291.35,101.43h-8.59q-.72,0-.72.87v4.44h7.17V109H282v4.49q0,.84.72.84h8.54v2.25l-8.54.19q-3.36,0-3.36-3.28V102.3q0-3.35,3.36-3.34l8.59.19Z"/><path class="cls-3" d="M300.11,109.79H296.8v7h-2.64V98.94h7.65q5,0,5,5.42-.15,5-3.84,5.23l3.81,7.2h-2.95Zm1.27-2.36c1.87,0,2.81-1,2.81-3.09s-1-3-3-3H296.8v6.14Z"/><path class="cls-1" d="M43.26,60.62a1.21,1.21,0,0,1,1.2,1.21v23.6a1.21,1.21,0,0,1-1.2,1.2h-1.6a1.16,1.16,0,0,1-.85-.36,1.14,1.14,0,0,1-.34-.84v-8.6A1.13,1.13,0,0,0,40.1,76a1.08,1.08,0,0,0-.83-.36h-7.6a1.18,1.18,0,0,0-.86.36,1.14,1.14,0,0,0-.34.84v8.6a1.12,1.12,0,0,1-.36.84,1.13,1.13,0,0,1-.86.36H27.66a1.23,1.23,0,0,1-1.2-1.2V61.83a1.23,1.23,0,0,1,1.2-1.21Zm-4,11a1.1,1.1,0,0,0,.83-.34,1.19,1.19,0,0,0,.37-.86v-4.6a1.27,1.27,0,0,0-1.2-1.2h-7.6a1.19,1.19,0,0,0-.86.37,1.1,1.1,0,0,0-.34.83v4.6a1.16,1.16,0,0,0,1.2,1.2Z"/><path class="cls-1" d="M64.5,61.83a1.21,1.21,0,0,1,1.2-1.21h1.6a1.21,1.21,0,0,1,1.2,1.21v23.6a1.21,1.21,0,0,1-1.2,1.2H51.7a1.18,1.18,0,0,1-.86-.36,1.14,1.14,0,0,1-.34-.84V61.83a1.15,1.15,0,0,1,.34-.85,1.18,1.18,0,0,1,.86-.36h1.59a1.15,1.15,0,0,1,.86.36,1.13,1.13,0,0,1,.36.85V81.42a1.16,1.16,0,0,0,1.2,1.2h7.6a1.1,1.1,0,0,0,.83-.34,1.18,1.18,0,0,0,.36-.86Z"/><path class="cls-1" d="M89.72,63.43a1.18,1.18,0,0,1-.34.85,1.19,1.19,0,0,1-.85.34h-4.6a1.19,1.19,0,0,0-.86.37,1.1,1.1,0,0,0-.34.83V85.43a1.23,1.23,0,0,1-1.2,1.2H79.94a1.13,1.13,0,0,1-.86-.36,1.12,1.12,0,0,1-.36-.84V65.82a1.1,1.1,0,0,0-.34-.83,1.19,1.19,0,0,0-.86-.37h-4.6a1.16,1.16,0,0,1-1.19-1.19v-1.6a1.19,1.19,0,0,1,1.19-1.21H88.53a1.17,1.17,0,0,1,.85.36,1.15,1.15,0,0,1,.34.85Z"/><path class="cls-1" d="M109.3,60.62a1.19,1.19,0,0,1,1.19,1.21v23.6a1.14,1.14,0,0,1-.34.84,1.16,1.16,0,0,1-.85.36H93.69a1.1,1.1,0,0,1-.83-.36,1.12,1.12,0,0,1-.36-.84V61.83a1.13,1.13,0,0,1,.36-.85,1.1,1.1,0,0,1,.83-.36Zm-4,22a1.14,1.14,0,0,0,.84-.34,1.18,1.18,0,0,0,.36-.86V65.82a1.08,1.08,0,0,0-.36-.83,1.13,1.13,0,0,0-.84-.37H97.7a1.17,1.17,0,0,0-.85.37,1.1,1.1,0,0,0-.34.83v15.6a1.2,1.2,0,0,0,.34.86,1.18,1.18,0,0,0,.85.34Z"/><path class="cls-1" d="M120.47,81.42a1.16,1.16,0,0,0,1.2,1.2h7.6a1.14,1.14,0,0,0,.84-.34,1.18,1.18,0,0,0,.36-.86V76.83a1.23,1.23,0,0,0-1.2-1.2h-2.6a1.16,1.16,0,0,1-1.2-1.2V72.84a1.15,1.15,0,0,1,.34-.86,1.18,1.18,0,0,1,.86-.36h6.59a1.21,1.21,0,0,1,1.2,1.22V85.43a1.21,1.21,0,0,1-1.2,1.2h-15.6a1.23,1.23,0,0,1-1.2-1.2V61.83a1.23,1.23,0,0,1,1.2-1.21h15.6a1.21,1.21,0,0,1,1.2,1.21v1.6a1.18,1.18,0,0,1-1.2,1.19H121.67a1.19,1.19,0,0,0-.86.37,1.1,1.1,0,0,0-.34.83Z"/><path class="cls-1" d="M143.54,81.42a1.16,1.16,0,0,0,1.2,1.2h11.59a1.2,1.2,0,0,1,.86.36,1.21,1.21,0,0,1,.34.86v1.59a1.18,1.18,0,0,1-.34.84,1.2,1.2,0,0,1-.86.36h-15.6a1.23,1.23,0,0,1-1.2-1.2V61.83a1.23,1.23,0,0,1,1.2-1.21h1.59a1.23,1.23,0,0,1,1.22,1.21Z"/><path class="cls-1" d="M178.05,60.62a1.19,1.19,0,0,1,1.2,1.21v23.6a1.18,1.18,0,0,1-.34.84,1.2,1.2,0,0,1-.86.36h-1.6a1.16,1.16,0,0,1-.85-.36,1.14,1.14,0,0,1-.34-.84v-8.6a1.23,1.23,0,0,0-1.2-1.2h-7.6a1.19,1.19,0,0,0-1.2,1.2v8.6a1.23,1.23,0,0,1-1.21,1.2h-1.6a1.23,1.23,0,0,1-1.2-1.2V61.83a1.23,1.23,0,0,1,1.2-1.21Zm-4,11a1.14,1.14,0,0,0,.84-.34,1.18,1.18,0,0,0,.36-.86v-4.6a1.08,1.08,0,0,0-.36-.83,1.13,1.13,0,0,0-.84-.37h-7.6a1.19,1.19,0,0,0-.86.37,1.14,1.14,0,0,0-.34.83v4.6a1.24,1.24,0,0,0,.34.86,1.2,1.2,0,0,0,.86.34Z"/><path class="cls-1" d="M202.76,63.43a1.18,1.18,0,0,1-1.2,1.19H190a1.19,1.19,0,0,0-.86.37,1.1,1.1,0,0,0-.34.83v4.6a1.16,1.16,0,0,0,1.2,1.2h11.59a1.21,1.21,0,0,1,1.2,1.22V85.43a1.21,1.21,0,0,1-1.2,1.2H186a1.18,1.18,0,0,1-.86-.36,1.14,1.14,0,0,1-.34-.84V83.84a1.2,1.2,0,0,1,1.2-1.22h11.61a1.1,1.1,0,0,0,.83-.34,1.18,1.18,0,0,0,.36-.86V76.83a1.12,1.12,0,0,0-.36-.84,1.08,1.08,0,0,0-.83-.36H186a1.16,1.16,0,0,1-1.2-1.2V61.83a1.15,1.15,0,0,1,.34-.85,1.18,1.18,0,0,1,.86-.36h15.6a1.21,1.21,0,0,1,1.2,1.21Z"/><path class="cls-1" d="M234.83,60.62a.94.94,0,0,1,.71.3.93.93,0,0,1,.28.68V85.66a.94.94,0,0,1-.28.69,1,1,0,0,1-.71.28h-2.05a.91.91,0,0,1-.68-.28.94.94,0,0,1-.29-.69V61.6a.94.94,0,0,1,.29-.68.9.9,0,0,1,.68-.3Z"/><path class="cls-1" d="M259.79,63.43a1.18,1.18,0,0,1-1.2,1.19H247a1.19,1.19,0,0,0-.86.37,1.1,1.1,0,0,0-.34.83v4.6a1.16,1.16,0,0,0,1.2,1.2h8.58a1.23,1.23,0,0,1,1.22,1.22v1.59a1.18,1.18,0,0,1-.36.86,1.15,1.15,0,0,1-.86.34H247a1.18,1.18,0,0,0-.86.36,1.14,1.14,0,0,0-.34.84v4.59a1.16,1.16,0,0,0,1.2,1.2h11.59a1.16,1.16,0,0,1,.85.36,1.18,1.18,0,0,1,.35.86v1.59a1.21,1.21,0,0,1-1.2,1.2H243a1.18,1.18,0,0,1-.86-.36,1.14,1.14,0,0,1-.34-.84V61.83a1.15,1.15,0,0,1,.34-.85,1.18,1.18,0,0,1,.86-.36h15.6a1.21,1.21,0,0,1,1.2,1.21Z"/><path class="cls-1" d="M280.69,60.62a1.21,1.21,0,0,1,1.2,1.21v23.6a1.21,1.21,0,0,1-1.2,1.2h-1.6a1.21,1.21,0,0,1-1.2-1.2V65.82a1.25,1.25,0,0,0-1.19-1.2h-7.6a1.19,1.19,0,0,0-.86.37,1.1,1.1,0,0,0-.34.83V85.43a1.12,1.12,0,0,1-.36.84,1.15,1.15,0,0,1-.86.36h-1.59a1.23,1.23,0,0,1-1.2-1.2V61.83a1.23,1.23,0,0,1,1.2-1.21Z"/><path class="cls-1" d="M305.39,63.43a1.16,1.16,0,0,1-1.19,1.19H292.6a1.17,1.17,0,0,0-.85.37,1.1,1.1,0,0,0-.34.83v4.6a1.2,1.2,0,0,0,.34.86,1.18,1.18,0,0,0,.85.34h11.6a1.2,1.2,0,0,1,1.19,1.22V85.43a1.14,1.14,0,0,1-.34.84,1.16,1.16,0,0,1-.85.36H288.59a1.16,1.16,0,0,1-.85-.36,1.14,1.14,0,0,1-.34-.84V83.84a1.2,1.2,0,0,1,1.19-1.22h11.62a1.12,1.12,0,0,0,.83-.34,1.18,1.18,0,0,0,.36-.86V76.83A1.12,1.12,0,0,0,301,76a1.1,1.1,0,0,0-.83-.36H288.59a1.18,1.18,0,0,1-.85-.34,1.2,1.2,0,0,1-.34-.86V61.83a1.19,1.19,0,0,1,1.19-1.21H304.2a1.19,1.19,0,0,1,1.19,1.21Z"/><path class="cls-1" d="M325.65,63.43a1.18,1.18,0,0,1-.34.85,1.2,1.2,0,0,1-.86.34h-4.6A1.17,1.17,0,0,0,319,65a1.1,1.1,0,0,0-.34.83V85.43a1.23,1.23,0,0,1-1.2,1.2h-1.6a1.23,1.23,0,0,1-1.21-1.2V65.82a1.14,1.14,0,0,0-.34-.83,1.21,1.21,0,0,0-.86-.37h-4.6a1.18,1.18,0,0,1-1.2-1.19v-1.6a1.21,1.21,0,0,1,1.2-1.21h15.6a1.18,1.18,0,0,1,.86.36,1.15,1.15,0,0,1,.34.85Z"/><path class="cls-4" d="M207.35,128.2a51.3,51.3,0,0,1-64.44,0h-13.2a60.26,60.26,0,0,0,90.84,0Z"/><path class="cls-1" d="M84.47,169.06H80.12q-3.18,0-4.14,4.69l-.21,1.55c-.35,2.76.59,4.24,2.84,4.43h3.32l.61-4.65H79.78l.18-1.35h4.29l-1,7.46H78.41c-3.32,0-4.72-2-4.2-5.89l.2-1.55q1.19-6.17,6-6.17l4.28.15Z"/><path class="cls-1" d="M89.3,167.2l-1.44,11c-.13,1,.14,1.56.82,1.56l1.45,0L90,181l-1.48.2c-1.74,0-2.49-1-2.23-3L87.7,167.2Z"/><path class="cls-1" d="M99.75,171.43l-1.29,9.76H97.1l.11-1.51a7.14,7.14,0,0,1-4,1.51c-1.85,0-2.55-1.64-2.12-4.9s1.93-5,4.35-5.08l2.71.18ZM98,173l-2.74-.19c-1.35.11-2.19,1.3-2.55,3.55s0,3.34.72,3.34A8.15,8.15,0,0,0,97.3,178Z"/><path class="cls-1" d="M108.85,171.43l-.18,1.38-3.93,0c-1.16,0-1.77.2-1.82.61l-.15,1c0,.43.39.71,1.13.83l2.26.42c1.6.29,2.32,1.05,2.16,2.3l-.13,1c-.2,1.47-1.31,2.21-3.33,2.21l-4.34-.13.19-1.4,4.27,0q1.59,0,1.68-.72l.13-1c0-.44-.33-.73-1.14-.86l-2.49-.46q-2-.54-1.92-2.19l.17-1.09q.27-2.1,3.54-2.1Z"/><path class="cls-1" d="M119.12,175.22l-.23,1.61H114l.22-1.61Z"/><path class="cls-1" d="M135.35,169.19h-6.63a.85.85,0,0,0-.94.82l-.48,3.61h5.76l-.2,1.6h-5.77l-.79,6h-1.6L126.17,170a2.52,2.52,0,0,1,2.77-2.43l6.61.15Z"/><path class="cls-1" d="M144.62,175.72l-.15,1.11q-.56,4.32-4.24,4.32h-1.1q-3.63,0-3.08-4.32l.15-1.11q.59-4.36,4.22-4.36h1.1Q145.21,171.36,144.62,175.72Zm-4.4-2.94q-2.1,0-2.49,2.94l-.15,1.11c-.26,2,.31,2.94,1.72,2.94h1.1q2.1,0,2.49-2.94l.14-1.11q.39-2.94-1.71-2.94Z"/><path class="cls-1" d="M149.7,167.2l-1.43,11q-.21,1.56.81,1.56l1.46,0-.17,1.27-1.47.2c-1.75,0-2.49-1-2.24-3l1.44-10.93Z"/><path class="cls-1" d="M154.64,171.3l-1.29,9.85h-1.6L153,171.3Zm.54-4.1-.21,1.6h-1.6l.21-1.6Z"/><path class="cls-1" d="M157.37,177.14c-.06,1.79.76,2.69,2.45,2.69.65,0,1.68-.06,3.08-.19l0,1.31a16.58,16.58,0,0,1-3.34.29q-4.26,0-3.61-4.93t3.87-4.95h1.6q3,0,2.62,3.81c-.23,1.31-.8,2-1.71,2Zm5.14-2.16c.17-1.46-.32-2.19-1.49-2.2h-1.29q-1.57,0-2.19,2.94h4.09A.79.79,0,0,0,162.51,175Z"/><path class="cls-1" d="M174.32,175.22l-.22,1.61h-4.86l.22-1.61Z"/><path class="cls-1" d="M183.42,167.38l-.84,6.35,6.58-6.35h2.1l-5.75,5.56a59.55,59.55,0,0,0,4.86,8.39h-1.82a45.22,45.22,0,0,1-4.28-7.25l-2,1.92-.7,5.33H179.9l1.85-14Z"/><path class="cls-1" d="M200.23,171.43l-1.29,9.76h-1.36l.11-1.51a7.11,7.11,0,0,1-4,1.51c-1.84,0-2.55-1.64-2.12-4.9s1.93-5,4.35-5.08l2.71.18ZM198.46,173l-2.74-.19c-1.34.11-2.19,1.3-2.55,3.55s0,3.34.72,3.34a8.15,8.15,0,0,0,3.89-1.77Z"/><path class="cls-1" d="M205,167.2l-1.43,11q-.21,1.56.81,1.56l1.45,0-.16,1.27-1.48.2c-1.74,0-2.48-1-2.23-3l1.44-10.93Z"/><path class="cls-1" d="M209.94,171.3l-1.29,9.85h-1.6l1.29-9.85Zm.54-4.1-.21,1.6h-1.6l.2-1.6Z"/><path class="cls-1" d="M216.3,171.39H217c2.45,0,3.49,1.45,3.11,4.33l-.15,1.11c-.38,2.9-1.8,4.36-4.25,4.36l-4.41-.19,1.79-13.58h1.6l-.57,4.33A12.11,12.11,0,0,1,216.3,171.39Zm-.37,8.38q2.1,0,2.49-2.94l.14-1.11q.39-2.94-1.71-2.94h-.73a6.86,6.86,0,0,0-2.14.36l-.83,6.45Z"/><path class="cls-1" d="M228.28,172.78q-1-.06-2-.06a3.88,3.88,0,0,0-2.06,1.09l-1,7.38h-1.61L223,171.3h1.46l0,1.09a3.57,3.57,0,0,1,2-1.09,10.05,10.05,0,0,1,2,.2Z"/><path class="cls-1" d="M231.91,171.3l-1.29,9.85H229l1.3-9.85Zm.53-4.1-.2,1.6h-1.6l.2-1.6Z"/><path class="cls-1" d="M234.63,177.14c-.06,1.79.76,2.69,2.45,2.69.65,0,1.68-.06,3.08-.19l0,1.31a16.55,16.55,0,0,1-3.33.29q-4.26,0-3.62-4.93t3.87-4.95h1.61c2,0,2.9,1.27,2.61,3.81-.23,1.31-.8,2-1.71,2Zm5.15-2.16c.17-1.46-.33-2.19-1.5-2.2H237q-1.56,0-2.19,2.94h4.09A.8.8,0,0,0,239.78,175Z"/><path class="cls-1" d="M249.19,172.78c-.65,0-1.31-.06-2-.06a3.85,3.85,0,0,0-2.06,1.09l-1,7.38h-1.6l1.31-9.89h1.45l0,1.09a3.6,3.6,0,0,1,2-1.09,10.15,10.15,0,0,1,2,.2Z"/><path class="cls-1" d="M257.17,171.3h1.6l-1.25,9.52c-1.73.22-3.11.34-4.13.37-2.58,0-3.68-1.46-3.3-4.36l.74-5.53h1.59l-.74,5.53c-.26,2,.38,2.94,1.9,2.94a8.65,8.65,0,0,0,2.52-.35Z"/><path class="cls-1" d="M261.56,181.19H260l1.31-9.89h1.46l0,1.09a3.57,3.57,0,0,1,2-1.09h1.29q3.14,0,2.56,4.37l-.73,5.52h-1.59l.74-5.52c.26-2-.13-2.95-1.16-2.95H264.6a3.9,3.9,0,0,0-2.07,1.09Z"/><path class="cls-1" d="M274.6,171.17h.48a27.46,27.46,0,0,1,4.11.45L277.79,182a2.93,2.93,0,0,1-1.62,2.45A7.68,7.68,0,0,1,273,185c-.7,0-1.65-.07-2.85-.19l.46-1.47a18.84,18.84,0,0,0,2.28.18,8.82,8.82,0,0,0,2.08-.2,1.58,1.58,0,0,0,1.29-1.43l.17-1.22-2.73.44h-.36c-2.38,0-3.43-1-3.18-3l.45-3.33Q271,171.17,274.6,171.17Zm2,8,.8-6a10.45,10.45,0,0,0-2.49-.42h-.5a2,2,0,0,0-2.16,2l-.44,3.37c-.12,1,.44,1.45,1.7,1.44h.36Z"/></g><g id="Rahmen"><rect class="cls-5" width="352" height="209"/></g></svg>