<?xml version="1.0" encoding="utf-8"?>
<!-- Generator: Adobe Illustrator 23.1.1, SVG Export Plug-In . SVG Version: 6.00 Build 0)  -->
<svg version="1.1" id="Ebene_1" xmlns="http://www.w3.org/2000/svg" xmlns:xlink="http://www.w3.org/1999/xlink" x="0px" y="0px"
	 viewBox="0 0 352 209" style="enable-background:new 0 0 352 209;" xml:space="preserve">
<style type="text/css">
	.st0{fill:#FFFFFF;}
</style>
<path class="st0" d="M225.5,84.6V62.8c-0.7-0.8-1.4-1.5-2.3-2.1h-14.6c-0.3,0-0.6,0.1-0.9,0.4c-0.2,0.2-0.3,0.5-0.3,0.9v23.7
	c0,0.3,0.1,0.6,0.3,0.9c0.2,0.2,0.5,0.3,0.9,0.3h1.5h0.1H223C223.9,86.2,224.8,85.5,225.5,84.6z M221.1,82.5
	c-0.2,0.2-0.5,0.3-0.8,0.3h-8.8V66c0-0.3,0.1-0.6,0.3-0.8c0.2-0.2,0.5-0.4,0.9-0.4h7.6c0.3,0,0.6,0.1,0.8,0.4
	c0.2,0.2,0.4,0.5,0.4,0.8v15.6C221.5,82,221.4,82.2,221.1,82.5z"/>
<path class="st0" d="M141.2,49.2c9.1-7.8,20.9-12.4,33.5-12.4s24.4,4.6,33.5,12.4h12.9c-11.4-13.4-28.3-21.7-46.4-21.7
	s-35.1,8.3-46.4,21.7H141.2z"/>
<path class="st0" d="M42.9,116.9V99.9c0-0.5,0.3-0.8,0.9-0.8H47c0.5,0,0.8,0.2,1,0.7l3.4,11.7H52l3.2-11.7c0.2-0.5,0.5-0.7,1-0.7
	h3.2c0.5,0,0.8,0.3,0.8,0.8v17.1h-2.6v-14.8l-0.7-0.1l-3,11.1c-0.2,0.6-0.6,0.9-1.1,0.9h-2.1c-0.5,0-0.9-0.3-1.2-0.9L46.3,102h-0.8
	v14.9H42.9z"/>
<path class="st0" d="M68,103.9c3.4,0.2,5.1,1.7,5.1,4.6v8.5h-2.4l-0.1-1.3c-1.4,0.8-2.8,1.2-3.9,1.3c-2.5,0-3.8-1.4-3.8-4.1
	c0-2.6,1.2-4,3.5-4.1h4v-0.9c0-1-0.5-1.6-1.5-1.7c-0.5,0-1.1,0-1.6,0h-3.3v-1.9C65.4,104,66.7,103.9,68,103.9z M70.5,111h-4
	c-0.5,0.1-0.8,0.8-0.9,2c0,1.3,0.4,1.9,1.1,1.9c1,0,2.3-0.5,3.8-1.4V111z"/>
<path class="st0" d="M83.8,106.2c-1,0-2-0.1-2.8-0.1c-0.6,0-1.3,0.4-2.1,1.2v9.6h-2.6v-13.1h2.4l0.2,1c0.6-0.7,1.3-1,2.1-1
	c0.8,0,1.8,0.1,2.8,0.3V106.2z"/>
<path class="st0" d="M89.3,100.9v3h3.4v2.2h-3.4v7.4c0,0.8,0.3,1.2,0.8,1.3l2.7-0.1v2l-3.1,0.3c-2.1,0-3.1-1.3-3.1-3.8V106h-1.8
	v-2.2h1.8v-3H89.3z"/>
<path class="st0" d="M98.1,98.6v2.5h-2.6v-2.5H98.1z M98.1,103.9v13.1h-2.6v-13.1H98.1z"/>
<path class="st0" d="M104,117h-2.6v-13.1h2.4l0.2,1c0.6-0.7,1.3-1,2.1-1h1.6c2.8,0,4.2,1.9,4.2,5.8v7.3h-2.6v-7.3
	c0-2.4-0.5-3.6-1.6-3.6h-1.6c-0.6,0-1.3,0.4-2.1,1.2V117z"/>
<path class="st0" d="M125.8,110h-3.3v7h-2.6V99.1h7.7c3.4,0,5,1.8,5,5.4c-0.1,3.4-1.4,5.1-3.9,5.2l3.8,7.2h-3L125.8,110z
	 M127.1,107.6c1.9,0,2.8-1,2.8-3.1c0-2-1-3.1-3-3.1h-4.4v6.2H127.1z"/>
<path class="st0" d="M148.5,106.9v2.4c0,5.1-2,7.7-5.9,7.7H141c-3.9,0-5.9-2.6-5.9-7.7v-2.4c0-5.2,2-7.8,5.9-7.8h1.6
	C146.5,99.1,148.5,101.7,148.5,106.9z M141,101.5c-2.1,0-3.1,1.8-3.1,5.5v2.2c0,3.6,1,5.5,3.1,5.5h1.7c2,0,3.1-1.8,3.1-5.5v-2.2
	c0-3.6-1-5.5-3.1-5.5H141z"/>
<path class="st0" d="M163.7,99.1v2.5h-5.1V117h-2.7v-15.4h-5.5v-2.5H163.7z"/>
<path class="st0" d="M178.1,99.1v2.5h-5.1V117h-2.7v-15.4h-5.5v-2.5H178.1z"/>
<path class="st0" d="M192.2,101.6h-8.6c-0.5,0-0.7,0.3-0.7,0.9v4.5h7.2v2.3h-7.2v4.5c0,0.6,0.2,0.8,0.7,0.8h8.6v2.3l-8.6,0.2
	c-2.2,0-3.4-1.1-3.4-3.3v-11.2c0-2.2,1.1-3.3,3.4-3.3l8.6,0.2V101.6z"/>
<path class="st0" d="M195,116.9V99.9c0-0.5,0.3-0.8,0.9-0.8h3.2c0.5,0,0.9,0.3,1.1,0.7l5.5,14.9h0.5l0-15.6h2.6l0,17.1
	c0,0.5-0.3,0.7-0.8,0.7h-3.1c-0.5,0-0.9-0.3-1.2-0.9l-5.4-14.3h-0.6v15.2H195z"/>
<path class="st0" d="M222.9,99.4v2.3l-5.1,0c-2.2,0-3.3,0.4-3.3,1.3v1.8c0.1,0.7,0.9,1.3,2.3,1.7l2.3,0.7c2.9,0.8,4.4,2.2,4.4,4.3
	v1.4c0,2.8-1.8,4.1-5.5,4.1l-5.9-0.2v-2.3l5.8,0.1c1.9,0,2.9-0.6,3-1.7v-1.4c0-0.8-0.8-1.4-2.4-1.9l-2.6-0.8c-2.5-0.8-3.8-2.1-3.9-4
	v-1.8c0-2.5,2-3.8,6-3.8L222.9,99.4z"/>
<path class="st0" d="M238.6,99.1v2.5h-5.1V117h-2.7v-15.4h-5.5v-2.5H238.6z"/>
<path class="st0" d="M252.6,101.6H244c-0.5,0-0.7,0.3-0.7,0.9v4.5h7.2v2.3h-7.2v4.5c0,0.6,0.2,0.8,0.7,0.8h8.6v2.3L244,117
	c-2.2,0-3.4-1.1-3.4-3.3v-11.2c0-2.2,1.1-3.3,3.4-3.3l8.6,0.2V101.6z"/>
<path class="st0" d="M258.1,99.1V117h-2.6V99.1H258.1z"/>
<path class="st0" d="M262.1,116.9V99.9c0-0.5,0.3-0.8,0.9-0.8h3.2c0.5,0,0.9,0.3,1.1,0.7l5.5,14.9h0.5l0-15.6h2.6l0,17.1
	c0,0.5-0.3,0.7-0.8,0.7h-3.1c-0.5,0-0.9-0.3-1.2-0.9l-5.4-14.3h-0.6v15.2H262.1z"/>
<path class="st0" d="M291.3,101.6h-8.6c-0.5,0-0.7,0.3-0.7,0.9v4.5h7.2v2.3h-7.2v4.5c0,0.6,0.2,0.8,0.7,0.8h8.6v2.3l-8.6,0.2
	c-2.2,0-3.4-1.1-3.4-3.3v-11.2c0-2.2,1.1-3.3,3.4-3.3l8.6,0.2V101.6z"/>
<path class="st0" d="M300.1,110h-3.3v7h-2.6V99.1h7.7c3.4,0,5,1.8,5,5.4c-0.1,3.4-1.4,5.1-3.9,5.2l3.8,7.2h-3L300.1,110z
	 M301.3,107.6c1.9,0,2.8-1,2.8-3.1c0-2-1-3.1-3-3.1h-4.4v6.2H301.3z"/>
<path class="st0" d="M42.5,60.7c0.3,0,0.6,0.1,0.9,0.4c0.2,0.2,0.3,0.5,0.3,0.9v23.7c0,0.3-0.1,0.6-0.3,0.8
	c-0.2,0.2-0.5,0.4-0.9,0.4h-1.6c-0.3,0-0.6-0.1-0.9-0.4c-0.2-0.2-0.3-0.5-0.3-0.8v-8.6c0-0.3-0.1-0.6-0.4-0.8
	c-0.2-0.2-0.5-0.4-0.8-0.4h-7.6c-0.3,0-0.6,0.1-0.9,0.4c-0.2,0.2-0.3,0.5-0.3,0.8v8.6c0,0.3-0.1,0.6-0.4,0.8
	c-0.2,0.2-0.5,0.4-0.9,0.4h-1.6c-0.3,0-0.6-0.1-0.8-0.4c-0.2-0.2-0.4-0.5-0.4-0.8V61.9c0-0.3,0.1-0.6,0.4-0.9
	c0.2-0.2,0.5-0.4,0.8-0.4H42.5z M38.5,71.7c0.3,0,0.6-0.1,0.8-0.3c0.2-0.2,0.4-0.5,0.4-0.9v-4.6c0-0.3-0.1-0.6-0.4-0.8
	c-0.2-0.2-0.5-0.4-0.8-0.4h-7.6c-0.3,0-0.6,0.1-0.9,0.4c-0.2,0.2-0.3,0.5-0.3,0.8v4.6c0,0.3,0.1,0.6,0.3,0.9
	c0.2,0.2,0.5,0.3,0.9,0.3H38.5z"/>
<path class="st0" d="M63.8,61.9c0-0.3,0.1-0.6,0.3-0.9c0.2-0.2,0.5-0.4,0.9-0.4h1.6c0.3,0,0.6,0.1,0.9,0.4c0.2,0.2,0.3,0.5,0.3,0.9
	v23.7c0,0.3-0.1,0.6-0.3,0.8c-0.2,0.2-0.5,0.4-0.9,0.4H51c-0.3,0-0.6-0.1-0.9-0.4c-0.2-0.2-0.3-0.5-0.3-0.8V61.9
	c0-0.3,0.1-0.6,0.3-0.9c0.2-0.2,0.5-0.4,0.9-0.4h1.6c0.3,0,0.6,0.1,0.9,0.4c0.2,0.2,0.4,0.5,0.4,0.9v19.6c0,0.3,0.1,0.6,0.3,0.9
	c0.2,0.2,0.5,0.3,0.9,0.3h7.6c0.3,0,0.6-0.1,0.8-0.3c0.2-0.2,0.4-0.5,0.4-0.9V61.9z"/>
<path class="st0" d="M89.1,63.5c0,0.3-0.1,0.6-0.3,0.9c-0.2,0.2-0.5,0.3-0.9,0.3h-4.6c-0.3,0-0.6,0.1-0.9,0.4
	c-0.2,0.2-0.3,0.5-0.3,0.8v19.7c0,0.3-0.1,0.6-0.4,0.8c-0.2,0.2-0.5,0.4-0.8,0.4h-1.6c-0.3,0-0.6-0.1-0.9-0.4
	c-0.2-0.2-0.4-0.5-0.4-0.8V65.9c0-0.3-0.1-0.6-0.3-0.8c-0.2-0.2-0.5-0.4-0.9-0.4h-4.6c-0.3,0-0.6-0.1-0.9-0.3
	c-0.2-0.2-0.3-0.5-0.3-0.9v-1.6c0-0.3,0.1-0.6,0.3-0.9c0.2-0.2,0.5-0.4,0.9-0.4h15.6c0.3,0,0.6,0.1,0.9,0.4c0.2,0.2,0.3,0.5,0.3,0.9
	V63.5z"/>
<path class="st0" d="M108.7,60.7c0.3,0,0.6,0.1,0.9,0.4c0.2,0.2,0.3,0.5,0.3,0.9v23.7c0,0.3-0.1,0.6-0.3,0.8
	c-0.2,0.2-0.5,0.4-0.9,0.4H93.1c-0.3,0-0.6-0.1-0.8-0.4c-0.2-0.2-0.4-0.5-0.4-0.8V61.9c0-0.3,0.1-0.6,0.4-0.9
	c0.2-0.2,0.5-0.4,0.8-0.4H108.7z M104.7,82.7c0.3,0,0.6-0.1,0.8-0.3c0.2-0.2,0.4-0.5,0.4-0.9V65.9c0-0.3-0.1-0.6-0.4-0.8
	c-0.2-0.2-0.5-0.4-0.8-0.4h-7.6c-0.3,0-0.6,0.1-0.9,0.4c-0.2,0.2-0.3,0.5-0.3,0.8v15.6c0,0.3,0.1,0.6,0.3,0.9
	c0.2,0.2,0.5,0.3,0.9,0.3H104.7z"/>
<path class="st0" d="M119.9,81.5c0,0.3,0.1,0.6,0.3,0.9c0.2,0.2,0.5,0.3,0.9,0.3h7.6c0.3,0,0.6-0.1,0.8-0.3c0.2-0.2,0.4-0.5,0.4-0.9
	v-4.6c0-0.3-0.1-0.6-0.4-0.8c-0.2-0.2-0.5-0.4-0.8-0.4h-2.6c-0.3,0-0.6-0.1-0.9-0.3c-0.2-0.2-0.3-0.5-0.3-0.9v-1.6
	c0-0.3,0.1-0.6,0.3-0.9c0.2-0.2,0.5-0.4,0.9-0.4h6.6c0.3,0,0.6,0.1,0.9,0.4c0.2,0.2,0.3,0.5,0.3,0.9v12.6c0,0.3-0.1,0.6-0.3,0.8
	c-0.2,0.2-0.5,0.4-0.9,0.4h-15.6c-0.3,0-0.6-0.1-0.8-0.4c-0.2-0.2-0.4-0.5-0.4-0.8V61.9c0-0.3,0.1-0.6,0.4-0.9
	c0.2-0.2,0.5-0.4,0.8-0.4h15.6c0.3,0,0.6,0.1,0.9,0.4c0.2,0.2,0.3,0.5,0.3,0.9v1.6c0,0.3-0.1,0.6-0.3,0.9c-0.2,0.2-0.5,0.3-0.9,0.3
	h-11.6c-0.3,0-0.6,0.1-0.9,0.4c-0.2,0.2-0.3,0.5-0.3,0.8V81.5z"/>
<path class="st0" d="M143.1,81.5c0,0.3,0.1,0.6,0.3,0.9c0.2,0.2,0.5,0.3,0.9,0.3h11.6c0.3,0,0.6,0.1,0.9,0.4
	c0.2,0.2,0.3,0.5,0.3,0.9v1.6c0,0.3-0.1,0.6-0.3,0.8c-0.2,0.2-0.5,0.4-0.9,0.4h-15.6c-0.3,0-0.6-0.1-0.8-0.4
	c-0.2-0.2-0.4-0.5-0.4-0.8V61.9c0-0.3,0.1-0.6,0.4-0.9c0.2-0.2,0.5-0.4,0.8-0.4h1.6c0.3,0,0.6,0.1,0.9,0.4c0.2,0.2,0.4,0.5,0.4,0.9
	V81.5z"/>
<path class="st0" d="M177.7,60.7c0.3,0,0.6,0.1,0.9,0.4c0.2,0.2,0.3,0.5,0.3,0.9v23.7c0,0.3-0.1,0.6-0.3,0.8
	c-0.2,0.2-0.5,0.4-0.9,0.4h-1.6c-0.3,0-0.6-0.1-0.9-0.4c-0.2-0.2-0.3-0.5-0.3-0.8v-8.6c0-0.3-0.1-0.6-0.4-0.8
	c-0.2-0.2-0.5-0.4-0.8-0.4H166c-0.3,0-0.6,0.1-0.9,0.4c-0.2,0.2-0.3,0.5-0.3,0.8v8.6c0,0.3-0.1,0.6-0.4,0.8
	c-0.2,0.2-0.5,0.4-0.9,0.4H162c-0.3,0-0.6-0.1-0.8-0.4c-0.2-0.2-0.4-0.5-0.4-0.8V61.9c0-0.3,0.1-0.6,0.4-0.9
	c0.2-0.2,0.5-0.4,0.8-0.4H177.7z M173.7,71.7c0.3,0,0.6-0.1,0.8-0.3c0.2-0.2,0.4-0.5,0.4-0.9v-4.6c0-0.3-0.1-0.6-0.4-0.8
	c-0.2-0.2-0.5-0.4-0.8-0.4H166c-0.3,0-0.6,0.1-0.9,0.4c-0.2,0.2-0.3,0.5-0.3,0.8v4.6c0,0.3,0.1,0.6,0.3,0.9c0.2,0.2,0.5,0.3,0.9,0.3
	H173.7z"/>
<path class="st0" d="M202.4,63.5c0,0.3-0.1,0.6-0.3,0.9c-0.2,0.2-0.5,0.3-0.9,0.3h-11.6c-0.3,0-0.6,0.1-0.9,0.4
	c-0.2,0.2-0.3,0.5-0.3,0.8v4.6c0,0.3,0.1,0.6,0.3,0.9c0.2,0.2,0.5,0.3,0.9,0.3h11.6c0.3,0,0.6,0.1,0.9,0.4c0.2,0.2,0.3,0.5,0.3,0.9
	v12.6c0,0.3-0.1,0.6-0.3,0.8c-0.2,0.2-0.5,0.4-0.9,0.4h-15.6c-0.3,0-0.6-0.1-0.9-0.4c-0.2-0.2-0.3-0.5-0.3-0.8v-1.6
	c0-0.3,0.1-0.6,0.3-0.9c0.2-0.2,0.5-0.4,0.9-0.4h11.6c0.3,0,0.6-0.1,0.8-0.3c0.2-0.2,0.4-0.5,0.4-0.9v-4.6c0-0.3-0.1-0.6-0.4-0.8
	c-0.2-0.2-0.5-0.4-0.8-0.4h-11.6c-0.3,0-0.6-0.1-0.9-0.3c-0.2-0.2-0.3-0.5-0.3-0.9V61.9c0-0.3,0.1-0.6,0.3-0.9
	c0.2-0.2,0.5-0.4,0.9-0.4h15.6c0.3,0,0.6,0.1,0.9,0.4c0.2,0.2,0.3,0.5,0.3,0.9V63.5z"/>
<path class="st0" d="M234.6,60.7c0.3,0,0.5,0.1,0.7,0.3c0.2,0.2,0.3,0.4,0.3,0.7v24.1c0,0.3-0.1,0.5-0.3,0.7s-0.4,0.3-0.7,0.3h-2.1
	c-0.3,0-0.5-0.1-0.7-0.3c-0.2-0.2-0.3-0.4-0.3-0.7V61.7c0-0.3,0.1-0.5,0.3-0.7c0.2-0.2,0.4-0.3,0.7-0.3H234.6z"/>
<path class="st0" d="M259.6,63.5c0,0.3-0.1,0.6-0.3,0.9c-0.2,0.2-0.5,0.3-0.9,0.3h-11.6c-0.3,0-0.6,0.1-0.9,0.4
	c-0.2,0.2-0.3,0.5-0.3,0.8v4.6c0,0.3,0.1,0.6,0.3,0.9c0.2,0.2,0.5,0.3,0.9,0.3h8.6c0.3,0,0.6,0.1,0.9,0.4c0.2,0.2,0.4,0.5,0.4,0.9
	v1.6c0,0.3-0.1,0.6-0.4,0.9c-0.2,0.2-0.5,0.3-0.9,0.3h-8.6c-0.3,0-0.6,0.1-0.9,0.4c-0.2,0.2-0.3,0.5-0.3,0.8v4.6
	c0,0.3,0.1,0.6,0.3,0.9c0.2,0.2,0.5,0.3,0.9,0.3h11.6c0.3,0,0.6,0.1,0.9,0.4c0.2,0.2,0.3,0.5,0.3,0.9v1.6c0,0.3-0.1,0.6-0.3,0.8
	c-0.2,0.2-0.5,0.4-0.9,0.4h-15.6c-0.3,0-0.6-0.1-0.9-0.4c-0.2-0.2-0.3-0.5-0.3-0.8V61.9c0-0.3,0.1-0.6,0.3-0.9
	c0.2-0.2,0.5-0.4,0.9-0.4h15.6c0.3,0,0.6,0.1,0.9,0.4c0.2,0.2,0.3,0.5,0.3,0.9V63.5z"/>
<path class="st0" d="M280.6,60.7c0.3,0,0.6,0.1,0.9,0.4c0.2,0.2,0.3,0.5,0.3,0.9v23.7c0,0.3-0.1,0.6-0.3,0.8
	c-0.2,0.2-0.5,0.4-0.9,0.4H279c-0.3,0-0.6-0.1-0.9-0.4c-0.2-0.2-0.3-0.5-0.3-0.8V65.9c0-0.3-0.1-0.6-0.4-0.8
	c-0.2-0.2-0.5-0.4-0.8-0.4H269c-0.3,0-0.6,0.1-0.9,0.4c-0.2,0.2-0.3,0.5-0.3,0.8v19.7c0,0.3-0.1,0.6-0.4,0.8
	c-0.2,0.2-0.5,0.4-0.9,0.4h-1.6c-0.3,0-0.6-0.1-0.8-0.4c-0.2-0.2-0.4-0.5-0.4-0.8V61.9c0-0.3,0.1-0.6,0.4-0.9
	c0.2-0.2,0.5-0.4,0.8-0.4H280.6z"/>
<path class="st0" d="M305.4,63.5c0,0.3-0.1,0.6-0.3,0.9c-0.2,0.2-0.5,0.3-0.9,0.3h-11.6c-0.3,0-0.6,0.1-0.9,0.4
	c-0.2,0.2-0.3,0.5-0.3,0.8v4.6c0,0.3,0.1,0.6,0.3,0.9c0.2,0.2,0.5,0.3,0.9,0.3h11.6c0.3,0,0.6,0.1,0.9,0.4c0.2,0.2,0.3,0.5,0.3,0.9
	v12.6c0,0.3-0.1,0.6-0.3,0.8c-0.2,0.2-0.5,0.4-0.9,0.4h-15.6c-0.3,0-0.6-0.1-0.9-0.4c-0.2-0.2-0.3-0.5-0.3-0.8v-1.6
	c0-0.3,0.1-0.6,0.3-0.9c0.2-0.2,0.5-0.4,0.9-0.4h11.6c0.3,0,0.6-0.1,0.8-0.3c0.2-0.2,0.4-0.5,0.4-0.9v-4.6c0-0.3-0.1-0.6-0.4-0.8
	c-0.2-0.2-0.5-0.4-0.8-0.4h-11.6c-0.3,0-0.6-0.1-0.9-0.3c-0.2-0.2-0.3-0.5-0.3-0.9V61.9c0-0.3,0.1-0.6,0.3-0.9
	c0.2-0.2,0.5-0.4,0.9-0.4h15.6c0.3,0,0.6,0.1,0.9,0.4c0.2,0.2,0.3,0.5,0.3,0.9V63.5z"/>
<path class="st0" d="M325.7,63.5c0,0.3-0.1,0.6-0.3,0.9c-0.2,0.2-0.5,0.3-0.9,0.3h-4.6c-0.3,0-0.6,0.1-0.9,0.4
	c-0.2,0.2-0.3,0.5-0.3,0.8v19.7c0,0.3-0.1,0.6-0.4,0.8c-0.2,0.2-0.5,0.4-0.8,0.4h-1.6c-0.3,0-0.6-0.1-0.9-0.4
	c-0.2-0.2-0.4-0.5-0.4-0.8V65.9c0-0.3-0.1-0.6-0.3-0.8c-0.2-0.2-0.5-0.4-0.9-0.4h-4.6c-0.3,0-0.6-0.1-0.9-0.3
	c-0.2-0.2-0.3-0.5-0.3-0.9v-1.6c0-0.3,0.1-0.6,0.3-0.9c0.2-0.2,0.5-0.4,0.9-0.4h15.6c0.3,0,0.6,0.1,0.9,0.4c0.2,0.2,0.3,0.5,0.3,0.9
	V63.5z"/>
<path class="st0" d="M207.1,128.4c-8.9,7.2-20.2,11.4-32.3,11.4c-12.1,0-23.4-4.2-32.3-11.4h-13.2c11.3,12.8,27.8,20.7,45.5,20.7
	s34.2-7.9,45.5-20.7H207.1z"/>
<path class="st0" d="M90.4,169.4H86c-2.1,0-3.5,1.6-4.2,4.7l-0.2,1.6c-0.4,2.8,0.6,4.2,2.8,4.4h3.3l0.6-4.7h-2.8l0.2-1.3h4.3l-1,7.5
	h-4.9c-3.3,0-4.7-2-4.2-5.9l0.2-1.6c0.8-4.1,2.8-6.2,6-6.2l4.3,0.1L90.4,169.4z"/>
<path class="st0" d="M95.2,167.5l-1.4,11c-0.1,1.1,0.1,1.6,0.8,1.6l1.5-0.1l-0.2,1.3l-1.5,0.2c-1.7,0-2.5-1-2.2-3l1.4-11H95.2z"/>
<path class="st0" d="M105.7,171.8l-1.3,9.8h-1.4l0.1-1.5c-1.4,1-2.7,1.5-4,1.5c-1.8,0-2.6-1.6-2.1-4.9c0.5-3.3,1.9-5,4.4-5.1
	l2.7,0.2L105.7,171.8z M103.9,173.4l-2.8-0.2c-1.3,0.1-2.2,1.3-2.5,3.6c-0.3,2.2-0.1,3.3,0.7,3.3c1.2-0.2,2.5-0.7,3.9-1.8
	L103.9,173.4z"/>
<path class="st0" d="M114.8,171.8l-0.2,1.4l-3.9,0c-1.2,0-1.8,0.2-1.8,0.6l-0.1,1.1c0,0.4,0.4,0.7,1.1,0.8l2.3,0.4
	c1.6,0.3,2.3,1.1,2.2,2.3l-0.1,1c-0.2,1.5-1.3,2.2-3.3,2.2l-4.3-0.1l0.2-1.4l4.3,0c1.1,0,1.6-0.2,1.7-0.7l0.1-1
	c0-0.4-0.3-0.7-1.1-0.9l-2.5-0.5c-1.4-0.4-2-1.1-1.9-2.2l0.2-1.1c0.2-1.4,1.4-2.1,3.5-2.1L114.8,171.8z"/>
<path class="st0" d="M125.1,175.6l-0.2,1.6H120l0.2-1.6H125.1z"/>
<path class="st0" d="M141.4,169.5h-6.7c-0.6,0-0.9,0.3-0.9,0.8l-0.5,3.6h5.8l-0.2,1.6h-5.8l-0.8,6h-1.6l1.5-11.2
	c0.2-1.6,1.1-2.4,2.8-2.4l6.6,0.1L141.4,169.5z"/>
<path class="st0" d="M150.7,176.1l-0.1,1.1c-0.4,2.9-1.8,4.3-4.2,4.3h-1.1c-2.4,0-3.5-1.4-3.1-4.3l0.1-1.1c0.4-2.9,1.8-4.4,4.2-4.4
	h1.1C150.1,171.7,151.1,173.2,150.7,176.1z M146.3,173.1c-1.4,0-2.2,1-2.5,2.9l-0.1,1.1c-0.3,2,0.3,3,1.7,3h1.1c1.4,0,2.2-1,2.5-3
	l0.1-1.1c0.3-2-0.3-2.9-1.7-2.9H146.3z"/>
<path class="st0" d="M155.8,167.5l-1.4,11c-0.1,1.1,0.1,1.6,0.8,1.6l1.5-0.1l-0.2,1.3l-1.5,0.2c-1.7,0-2.5-1-2.2-3l1.4-11H155.8z"/>
<path class="st0" d="M160.8,171.7l-1.3,9.9h-1.6l1.3-9.9H160.8z M161.3,167.5l-0.2,1.6h-1.6l0.2-1.6H161.3z"/>
<path class="st0" d="M163.5,177.5c-0.1,1.8,0.8,2.7,2.5,2.7c0.7,0,1.7-0.1,3.1-0.2l0,1.3c-0.9,0.2-2,0.3-3.3,0.3
	c-2.8,0-4.1-1.6-3.6-4.9c0.4-3.3,1.7-5,3.9-5h1.6c2,0,2.9,1.3,2.6,3.8c-0.2,1.3-0.8,2-1.7,2H163.5z M168.6,175.3
	c0.2-1.5-0.3-2.2-1.5-2.2h-1.3c-1,0-1.8,1-2.2,2.9h4.1C168.3,176.1,168.6,175.8,168.6,175.3z"/>
<path class="st0" d="M180.5,175.6l-0.2,1.6h-4.9l0.2-1.6H180.5z"/>
<path class="st0" d="M189.6,167.7l-0.9,6.4l6.6-6.4h2.1l-5.8,5.6c1.3,2.8,3,5.6,4.9,8.4h-1.8c-1.7-2.4-3.2-4.8-4.3-7.3l-2,1.9
	l-0.7,5.4h-1.7l1.8-14H189.6z"/>
<path class="st0" d="M206.5,171.8l-1.3,9.8h-1.4l0.1-1.5c-1.4,1-2.7,1.5-4,1.5c-1.8,0-2.6-1.6-2.1-4.9c0.5-3.3,1.9-5,4.4-5.1
	l2.7,0.2L206.5,171.8z M204.7,173.4l-2.8-0.2c-1.3,0.1-2.2,1.3-2.6,3.6c-0.3,2.2-0.1,3.3,0.7,3.3c1.2-0.2,2.5-0.7,3.9-1.8
	L204.7,173.4z"/>
<path class="st0" d="M214.3,173.1c-0.7,0-1.3-0.1-2-0.1c-0.5,0-1.2,0.4-2.1,1.1l-1,7.4h-1.6l1.3-9.9h1.5l0,1.1
	c0.8-0.7,1.5-1.1,2.1-1.1c0.7,0,1.3,0.1,2,0.2L214.3,173.1z"/>
<path class="st0" d="M223.5,176.1l-0.1,1.1c-0.4,2.9-1.8,4.3-4.2,4.3H218c-2.4,0-3.5-1.4-3.1-4.3l0.1-1.1c0.4-2.9,1.8-4.4,4.2-4.4
	h1.1C222.8,171.7,223.9,173.2,223.5,176.1z M219.1,173.1c-1.4,0-2.2,1-2.5,2.9l-0.1,1.1c-0.3,2,0.3,3,1.7,3h1.1c1.4,0,2.2-1,2.5-3
	l0.2-1.1c0.3-2-0.3-2.9-1.7-2.9H219.1z"/>
<path class="st0" d="M232.9,171.8l-0.2,1.4l-3.9,0c-1.2,0-1.8,0.2-1.8,0.6l-0.1,1.1c0,0.4,0.4,0.7,1.1,0.8l2.3,0.4
	c1.6,0.3,2.3,1.1,2.2,2.3l-0.1,1c-0.2,1.5-1.3,2.2-3.3,2.2l-4.3-0.1l0.2-1.4l4.3,0c1.1,0,1.6-0.2,1.7-0.7l0.1-1
	c0-0.4-0.3-0.7-1.1-0.9l-2.5-0.5c-1.4-0.4-2-1.1-1.9-2.2l0.2-1.1c0.2-1.4,1.4-2.1,3.5-2.1L232.9,171.8z"/>
<path class="st0" d="M242.1,171.8l-0.2,1.4l-3.9,0c-1.2,0-1.8,0.2-1.8,0.6l-0.1,1.1c0,0.4,0.4,0.7,1.1,0.8l2.3,0.4
	c1.6,0.3,2.3,1.1,2.2,2.3l-0.1,1c-0.2,1.5-1.3,2.2-3.3,2.2l-4.3-0.1l0.2-1.4l4.3,0c1.1,0,1.6-0.2,1.7-0.7l0.1-1
	c0-0.4-0.3-0.7-1.1-0.9l-2.5-0.5c-1.4-0.4-2-1.1-1.9-2.2l0.2-1.1c0.2-1.4,1.4-2.1,3.5-2.1L242.1,171.8z"/>
<path class="st0" d="M244.9,177.5c-0.1,1.8,0.8,2.7,2.5,2.7c0.7,0,1.7-0.1,3.1-0.2l0,1.3c-0.9,0.2-2,0.3-3.3,0.3
	c-2.8,0-4.1-1.6-3.6-4.9c0.4-3.3,1.7-5,3.9-5h1.6c2,0,2.9,1.3,2.6,3.8c-0.2,1.3-0.8,2-1.7,2H244.9z M250.1,175.3
	c0.2-1.5-0.3-2.2-1.5-2.2h-1.3c-1,0-1.8,1-2.2,2.9h4.1C249.7,176.1,250,175.8,250.1,175.3z"/>
<path class="st0" d="M259.5,173.1c-0.7,0-1.3-0.1-2-0.1c-0.5,0-1.2,0.4-2.1,1.1l-1,7.4h-1.6l1.3-9.9h1.5l0,1.1
	c0.8-0.7,1.5-1.1,2-1.1c0.7,0,1.3,0.1,2,0.2L259.5,173.1z"/>
<path class="st0" d="M263.1,171.7l-1.3,9.9h-1.6l1.3-9.9H263.1z M263.7,167.5l-0.2,1.6h-1.6l0.2-1.6H263.7z"/>
<path class="st0" d="M265.9,177.5c-0.1,1.8,0.8,2.7,2.5,2.7c0.7,0,1.7-0.1,3.1-0.2l0,1.3c-0.9,0.2-2,0.3-3.3,0.3
	c-2.8,0-4.1-1.6-3.6-4.9c0.4-3.3,1.7-5,3.9-5h1.6c2,0,2.9,1.3,2.6,3.8c-0.2,1.3-0.8,2-1.7,2H265.9z M271,175.3
	c0.2-1.5-0.3-2.2-1.5-2.2h-1.3c-1,0-1.8,1-2.2,2.9h4.1C270.7,176.1,270.9,175.8,271,175.3z"/>
</svg>
